<?xml version="1.0" encoding="utf-8" standalone="no"?>
<!DOCTYPE svg PUBLIC "-//W3C//DTD SVG 1.1//EN"
  "http://www.w3.org/Graphics/SVG/1.1/DTD/svg11.dtd">
<svg xmlns:xlink="http://www.w3.org/1999/xlink" width="413.947188pt" height="291.27425pt" viewBox="0 0 413.947188 291.27425" xmlns="http://www.w3.org/2000/svg" version="1.1">
 <metadata>
  <rdf:RDF xmlns:dc="http://purl.org/dc/elements/1.1/" xmlns:cc="http://creativecommons.org/ns#" xmlns:rdf="http://www.w3.org/1999/02/22-rdf-syntax-ns#">
   <cc:Work>
    <dc:type rdf:resource="http://purl.org/dc/dcmitype/StillImage"/>
    <dc:date>2026-05-12T00:44:01.570508</dc:date>
    <dc:format>image/svg+xml</dc:format>
    <dc:creator>
     <cc:Agent>
      <dc:title>Matplotlib v3.9.4, https://matplotlib.org/</dc:title>
     </cc:Agent>
    </dc:creator>
   </cc:Work>
  </rdf:RDF>
 </metadata>
 <defs>
  <style type="text/css">*{stroke-linejoin: round; stroke-linecap: butt}</style>
 </defs>
 <g id="figure_1">
  <g id="patch_1">
   <path d="M 0 291.27425 
L 413.947187 291.27425 
L 413.947187 0 
L 0 0 
z
" style="fill: #ffffff"/>
  </g>
  <g id="axes_1">
   <g id="patch_2">
    <path d="M 38.467188 254.783625 
L 406.747187 254.783625 
L 406.747187 21.935625 
L 38.467188 21.935625 
z
" style="fill: #ffffff"/>
   </g>
   <g id="matplotlib.axis_1">
    <g id="xtick_1">
     <g id="line2d_1">
      <path d="M 79.121473 254.783625 
L 79.121473 21.935625 
" clip-path="url(#p93335eeae7)" style="fill: none; stroke: #b0b0b0; stroke-opacity: 0.3; stroke-width: 0.8; stroke-linecap: square"/>
     </g>
     <g id="line2d_2">
      <defs>
       <path id="m7327d6a47e" d="M 0 0 
L 0 3.5 
" style="stroke: #000000; stroke-width: 0.8"/>
      </defs>
      <g>
       <use xlink:href="#m7327d6a47e" x="79.121473" y="254.783625" style="stroke: #000000; stroke-width: 0.8"/>
      </g>
     </g>
     <g id="text_1">
      <text style="font: 10px 'Arial'; text-anchor: middle" x="79.121473" y="268.941438" transform="rotate(-0 79.121473 268.941438)">0.8</text>
     </g>
    </g>
    <g id="xtick_2">
     <g id="line2d_3">
      <path d="M 126.950045 254.783625 
L 126.950045 21.935625 
" clip-path="url(#p93335eeae7)" style="fill: none; stroke: #b0b0b0; stroke-opacity: 0.3; stroke-width: 0.8; stroke-linecap: square"/>
     </g>
     <g id="line2d_4">
      <g>
       <use xlink:href="#m7327d6a47e" x="126.950045" y="254.783625" style="stroke: #000000; stroke-width: 0.8"/>
      </g>
     </g>
     <g id="text_2">
      <text style="font: 10px 'Arial'; text-anchor: middle" x="126.950045" y="268.941438" transform="rotate(-0 126.950045 268.941438)">0.9</text>
     </g>
    </g>
    <g id="xtick_3">
     <g id="line2d_5">
      <path d="M 174.778616 254.783625 
L 174.778616 21.935625 
" clip-path="url(#p93335eeae7)" style="fill: none; stroke: #b0b0b0; stroke-opacity: 0.3; stroke-width: 0.8; stroke-linecap: square"/>
     </g>
     <g id="line2d_6">
      <g>
       <use xlink:href="#m7327d6a47e" x="174.778616" y="254.783625" style="stroke: #000000; stroke-width: 0.8"/>
      </g>
     </g>
     <g id="text_3">
      <text style="font: 10px 'Arial'; text-anchor: middle" x="174.778616" y="268.941438" transform="rotate(-0 174.778616 268.941438)">1.0</text>
     </g>
    </g>
    <g id="xtick_4">
     <g id="line2d_7">
      <path d="M 222.607188 254.783625 
L 222.607188 21.935625 
" clip-path="url(#p93335eeae7)" style="fill: none; stroke: #b0b0b0; stroke-opacity: 0.3; stroke-width: 0.8; stroke-linecap: square"/>
     </g>
     <g id="line2d_8">
      <g>
       <use xlink:href="#m7327d6a47e" x="222.607188" y="254.783625" style="stroke: #000000; stroke-width: 0.8"/>
      </g>
     </g>
     <g id="text_4">
      <text style="font: 10px 'Arial'; text-anchor: middle" x="222.607188" y="268.941438" transform="rotate(-0 222.607188 268.941438)">1.1</text>
     </g>
    </g>
    <g id="xtick_5">
     <g id="line2d_9">
      <path d="M 270.435759 254.783625 
L 270.435759 21.935625 
" clip-path="url(#p93335eeae7)" style="fill: none; stroke: #b0b0b0; stroke-opacity: 0.3; stroke-width: 0.8; stroke-linecap: square"/>
     </g>
     <g id="line2d_10">
      <g>
       <use xlink:href="#m7327d6a47e" x="270.435759" y="254.783625" style="stroke: #000000; stroke-width: 0.8"/>
      </g>
     </g>
     <g id="text_5">
      <text style="font: 10px 'Arial'; text-anchor: middle" x="270.435759" y="268.941438" transform="rotate(-0 270.435759 268.941438)">1.2</text>
     </g>
    </g>
    <g id="xtick_6">
     <g id="line2d_11">
      <path d="M 318.26433 254.783625 
L 318.26433 21.935625 
" clip-path="url(#p93335eeae7)" style="fill: none; stroke: #b0b0b0; stroke-opacity: 0.3; stroke-width: 0.8; stroke-linecap: square"/>
     </g>
     <g id="line2d_12">
      <g>
       <use xlink:href="#m7327d6a47e" x="318.26433" y="254.783625" style="stroke: #000000; stroke-width: 0.8"/>
      </g>
     </g>
     <g id="text_6">
      <text style="font: 10px 'Arial'; text-anchor: middle" x="318.26433" y="268.941438" transform="rotate(-0 318.26433 268.941438)">1.3</text>
     </g>
    </g>
    <g id="xtick_7">
     <g id="line2d_13">
      <path d="M 366.092902 254.783625 
L 366.092902 21.935625 
" clip-path="url(#p93335eeae7)" style="fill: none; stroke: #b0b0b0; stroke-opacity: 0.3; stroke-width: 0.8; stroke-linecap: square"/>
     </g>
     <g id="line2d_14">
      <g>
       <use xlink:href="#m7327d6a47e" x="366.092902" y="254.783625" style="stroke: #000000; stroke-width: 0.8"/>
      </g>
     </g>
     <g id="text_7">
      <text style="font: 10px 'Arial'; text-anchor: middle" x="366.092902" y="268.941438" transform="rotate(-0 366.092902 268.941438)">1.4</text>
     </g>
    </g>
    <g id="text_8">
     <text style="font: 10px 'Arial'; text-anchor: middle" x="222.607188" y="282.08675" transform="rotate(-0 222.607188 282.08675)">cv scale</text>
    </g>
   </g>
   <g id="matplotlib.axis_2">
    <g id="ytick_1">
     <g id="line2d_15">
      <path d="M 38.467188 214.913001 
L 406.747187 214.913001 
" clip-path="url(#p93335eeae7)" style="fill: none; stroke: #b0b0b0; stroke-opacity: 0.3; stroke-width: 0.8; stroke-linecap: square"/>
     </g>
     <g id="line2d_16">
      <defs>
       <path id="m699a6ec88a" d="M 0 0 
L -3.5 0 
" style="stroke: #000000; stroke-width: 0.8"/>
      </defs>
      <g>
       <use xlink:href="#m699a6ec88a" x="38.467188" y="214.913001" style="stroke: #000000; stroke-width: 0.8"/>
      </g>
     </g>
     <g id="text_9">
      <text style="font: 10px 'Arial'; text-anchor: end" x="31.467188" y="218.491908" transform="rotate(-0 31.467188 218.491908)">5</text>
     </g>
    </g>
    <g id="ytick_2">
     <g id="line2d_17">
      <path d="M 38.467188 166.365881 
L 406.747187 166.365881 
" clip-path="url(#p93335eeae7)" style="fill: none; stroke: #b0b0b0; stroke-opacity: 0.3; stroke-width: 0.8; stroke-linecap: square"/>
     </g>
     <g id="line2d_18">
      <g>
       <use xlink:href="#m699a6ec88a" x="38.467188" y="166.365881" style="stroke: #000000; stroke-width: 0.8"/>
      </g>
     </g>
     <g id="text_10">
      <text style="font: 10px 'Arial'; text-anchor: end" x="31.467188" y="169.944788" transform="rotate(-0 31.467188 169.944788)">10</text>
     </g>
    </g>
    <g id="ytick_3">
     <g id="line2d_19">
      <path d="M 38.467188 117.818762 
L 406.747187 117.818762 
" clip-path="url(#p93335eeae7)" style="fill: none; stroke: #b0b0b0; stroke-opacity: 0.3; stroke-width: 0.8; stroke-linecap: square"/>
     </g>
     <g id="line2d_20">
      <g>
       <use xlink:href="#m699a6ec88a" x="38.467188" y="117.818762" style="stroke: #000000; stroke-width: 0.8"/>
      </g>
     </g>
     <g id="text_11">
      <text style="font: 10px 'Arial'; text-anchor: end" x="31.467188" y="121.397668" transform="rotate(-0 31.467188 121.397668)">15</text>
     </g>
    </g>
    <g id="ytick_4">
     <g id="line2d_21">
      <path d="M 38.467188 69.271642 
L 406.747187 69.271642 
" clip-path="url(#p93335eeae7)" style="fill: none; stroke: #b0b0b0; stroke-opacity: 0.3; stroke-width: 0.8; stroke-linecap: square"/>
     </g>
     <g id="line2d_22">
      <g>
       <use xlink:href="#m699a6ec88a" x="38.467188" y="69.271642" style="stroke: #000000; stroke-width: 0.8"/>
      </g>
     </g>
     <g id="text_12">
      <text style="font: 10px 'Arial'; text-anchor: end" x="31.467188" y="72.850548" transform="rotate(-0 31.467188 72.850548)">20</text>
     </g>
    </g>
    <g id="text_13">
     <text style="font: 10px 'Arial'; text-anchor: middle" x="14.357813" y="138.359625" transform="rotate(-90 14.357813 138.359625)">Bottom excess relative RMSE, %</text>
    </g>
   </g>
   <g id="line2d_23">
    <path d="M 55.207188 32.519625 
L 85.100045 72.695529 
L 111.405759 107.685562 
L 134.12433 137.546586 
L 153.255759 162.356318 
L 169.995759 183.71276 
L 183.148616 200.14004 
L 192.71433 211.766321 
L 199.888616 220.190445 
L 205.867188 226.893845 
L 210.650045 231.927636 
L 214.237188 235.412886 
L 217.82433 238.537494 
L 220.215759 240.349509 
L 222.607188 241.881659 
L 224.998616 243.07235 
L 227.390045 243.860924 
L 228.585759 244.088612 
L 229.781473 244.199625 
L 230.977188 244.192158 
L 232.172902 244.066559 
L 234.56433 243.472784 
L 236.955759 242.458901 
L 239.347188 241.083405 
L 241.738616 239.409623 
L 244.130045 237.496442 
L 247.717188 234.284699 
L 251.30433 230.774093 
L 256.087188 225.778574 
L 262.065759 219.209213 
L 270.435759 209.660963 
L 283.588616 194.251067 
L 309.89433 162.972543 
L 345.765759 120.404686 
L 372.071473 89.524246 
L 390.007188 68.670691 
L 390.007188 68.670691 
" clip-path="url(#p93335eeae7)" style="fill: none; stroke: #1f77b4; stroke-width: 1.8; stroke-linecap: square"/>
   </g>
   <g id="line2d_24">
    <path d="M 174.778616 254.783625 
L 174.778616 21.935625 
" clip-path="url(#p93335eeae7)" style="fill: none; stroke-dasharray: 4.07,1.76; stroke-dashoffset: 0; stroke: #000000; stroke-width: 1.1"/>
   </g>
   <g id="line2d_25">
    <defs>
     <path id="m33f8cd481e" d="M 0 3 
C 0.795609 3 1.55874 2.683901 2.12132 2.12132 
C 2.683901 1.55874 3 0.795609 3 0 
C 3 -0.795609 2.683901 -1.55874 2.12132 -2.12132 
C 1.55874 -2.683901 0.795609 -3 0 -3 
C -0.795609 -3 -1.55874 -2.683901 -2.12132 -2.12132 
C -2.683901 -1.55874 -3 -0.795609 -3 0 
C -3 0.795609 -2.683901 1.55874 -2.12132 2.12132 
C -1.55874 2.683901 -0.795609 3 0 3 
z
" style="stroke: #000000"/>
    </defs>
    <g clip-path="url(#p93335eeae7)">
     <use xlink:href="#m33f8cd481e" x="174.778616" y="189.73123" style="stroke: #000000"/>
    </g>
   </g>
   <g id="line2d_26">
    <path d="M 230.977188 254.783625 
L 230.977188 21.935625 
" clip-path="url(#p93335eeae7)" style="fill: none; stroke-dasharray: 4.07,1.76; stroke-dashoffset: 0; stroke: #d62728; stroke-width: 1.1"/>
   </g>
   <g id="line2d_27">
    <defs>
     <path id="m7b32e3550e" d="M 0 3 
C 0.795609 3 1.55874 2.683901 2.12132 2.12132 
C 2.683901 1.55874 3 0.795609 3 0 
C 3 -0.795609 2.683901 -1.55874 2.12132 -2.12132 
C 1.55874 -2.683901 0.795609 -3 0 -3 
C -0.795609 -3 -1.55874 -2.683901 -2.12132 -2.12132 
C -2.683901 -1.55874 -3 -0.795609 -3 0 
C -3 0.795609 -2.683901 1.55874 -2.12132 2.12132 
C -1.55874 2.683901 -0.795609 3 0 3 
z
" style="stroke: #d62728"/>
    </defs>
    <g clip-path="url(#p93335eeae7)">
     <use xlink:href="#m7b32e3550e" x="230.977188" y="244.192158" style="fill: #d62728; stroke: #d62728"/>
    </g>
   </g>
   <g id="line2d_28">
    <path d="M 248.912902 254.783625 
L 248.912902 21.935625 
" clip-path="url(#p93335eeae7)" style="fill: none; stroke-dasharray: 4.07,1.76; stroke-dashoffset: 0; stroke: #ff7f0e; stroke-width: 1.1"/>
   </g>
   <g id="line2d_29">
    <defs>
     <path id="m8527d6011c" d="M 0 3 
C 0.795609 3 1.55874 2.683901 2.12132 2.12132 
C 2.683901 1.55874 3 0.795609 3 0 
C 3 -0.795609 2.683901 -1.55874 2.12132 -2.12132 
C 1.55874 -2.683901 0.795609 -3 0 -3 
C -0.795609 -3 -1.55874 -2.683901 -2.12132 -2.12132 
C -2.683901 -1.55874 -3 -0.795609 -3 0 
C -3 0.795609 -2.683901 1.55874 -2.12132 2.12132 
C -1.55874 2.683901 -0.795609 3 0 3 
z
" style="stroke: #ff7f0e"/>
    </defs>
    <g clip-path="url(#p93335eeae7)">
     <use xlink:href="#m8527d6011c" x="248.912902" y="233.142578" style="fill: #ff7f0e; stroke: #ff7f0e"/>
    </g>
   </g>
   <g id="line2d_30">
    <path d="M 269.240045 254.783625 
L 269.240045 21.935625 
" clip-path="url(#p93335eeae7)" style="fill: none; stroke-dasharray: 4.07,1.76; stroke-dashoffset: 0; stroke: #9467bd; stroke-width: 1.1"/>
   </g>
   <g id="line2d_31">
    <defs>
     <path id="m5f203f4570" d="M 0 3 
C 0.795609 3 1.55874 2.683901 2.12132 2.12132 
C 2.683901 1.55874 3 0.795609 3 0 
C 3 -0.795609 2.683901 -1.55874 2.12132 -2.12132 
C 1.55874 -2.683901 0.795609 -3 0 -3 
C -0.795609 -3 -1.55874 -2.683901 -2.12132 -2.12132 
C -2.683901 -1.55874 -3 -0.795609 -3 0 
C -3 0.795609 -2.683901 1.55874 -2.12132 2.12132 
C -1.55874 2.683901 -0.795609 3 0 3 
z
" style="stroke: #9467bd"/>
    </defs>
    <g clip-path="url(#p93335eeae7)">
     <use xlink:href="#m5f203f4570" x="269.240045" y="211.042107" style="fill: #9467bd; stroke: #9467bd"/>
    </g>
   </g>
   <g id="patch_3">
    <path d="M 38.467188 254.783625 
L 38.467188 21.935625 
" style="fill: none; stroke: #000000; stroke-width: 0.8; stroke-linejoin: miter; stroke-linecap: square"/>
   </g>
   <g id="patch_4">
    <path d="M 406.747187 254.783625 
L 406.747187 21.935625 
" style="fill: none; stroke: #000000; stroke-width: 0.8; stroke-linejoin: miter; stroke-linecap: square"/>
   </g>
   <g id="patch_5">
    <path d="M 38.467188 254.783625 
L 406.747188 254.783625 
" style="fill: none; stroke: #000000; stroke-width: 0.8; stroke-linejoin: miter; stroke-linecap: square"/>
   </g>
   <g id="patch_6">
    <path d="M 38.467188 21.935625 
L 406.747188 21.935625 
" style="fill: none; stroke: #000000; stroke-width: 0.8; stroke-linejoin: miter; stroke-linecap: square"/>
   </g>
   <g id="text_14">
    <text style="font: 12px 'Arial'; text-anchor: middle" x="222.607188" y="15.935625" transform="rotate(-0 222.607188 15.935625)">Effective time-factor sensitivity</text>
   </g>
   <g id="legend_1">
    <g id="patch_7">
     <path d="M 44.067188 250.783625 
L 150.450938 250.783625 
Q 152.050938 250.783625 152.050938 249.183625 
L 152.050938 204.718625 
Q 152.050938 203.118625 150.450938 203.118625 
L 44.067188 203.118625 
Q 42.467188 203.118625 42.467188 204.718625 
L 42.467188 249.183625 
Q 42.467188 250.783625 44.067188 250.783625 
z
" style="fill: #ffffff; opacity: 0.8; stroke: #cccccc; stroke-linejoin: miter"/>
    </g>
    <g id="line2d_32">
     <g>
      <use xlink:href="#m33f8cd481e" x="53.667188" y="209.244875" style="stroke: #000000"/>
     </g>
    </g>
    <g id="text_15">
     <text style="font: 8px 'Arial'; text-anchor: start" x="68.067188" y="212.044875" transform="rotate(-0 68.067188 212.044875)">nominal: 1</text>
    </g>
    <g id="line2d_33">
     <g>
      <use xlink:href="#m7b32e3550e" x="53.667188" y="220.561125" style="fill: #d62728; stroke: #d62728"/>
     </g>
    </g>
    <g id="text_16">
     <text style="font: 8px 'Arial'; text-anchor: start" x="68.067188" y="223.361125" transform="rotate(-0 68.067188 223.361125)">full-window best: 1.117</text>
    </g>
    <g id="line2d_34">
     <g>
      <use xlink:href="#m8527d6011c" x="53.667188" y="231.877375" style="fill: #ff7f0e; stroke: #ff7f0e"/>
     </g>
    </g>
    <g id="text_17">
     <text style="font: 8px 'Arial'; text-anchor: start" x="68.067188" y="234.677375" transform="rotate(-0 68.067188 234.677375)">0.01-1.0 s: 1.155</text>
    </g>
    <g id="line2d_35">
     <g>
      <use xlink:href="#m5f203f4570" x="53.667188" y="243.193625" style="fill: #9467bd; stroke: #9467bd"/>
     </g>
    </g>
    <g id="text_18">
     <text style="font: 8px 'Arial'; text-anchor: start" x="68.067188" y="245.993625" transform="rotate(-0 68.067188 245.993625)">0.002-0.5 s: 1.198</text>
    </g>
   </g>
  </g>
 </g>
 <defs>
  <clipPath id="p93335eeae7">
   <rect x="38.467188" y="21.935625" width="368.28" height="232.848"/>
  </clipPath>
 </defs>
</svg>
