<?xml version="1.0" encoding="utf-8" standalone="no"?>
<!DOCTYPE svg PUBLIC "-//W3C//DTD SVG 1.1//EN"
  "http://www.w3.org/Graphics/SVG/1.1/DTD/svg11.dtd">
<svg xmlns:xlink="http://www.w3.org/1999/xlink" width="427.885312pt" height="291.27425pt" viewBox="0 0 427.885312 291.27425" xmlns="http://www.w3.org/2000/svg" version="1.1">
 <metadata>
  <rdf:RDF xmlns:dc="http://purl.org/dc/elements/1.1/" xmlns:cc="http://creativecommons.org/ns#" xmlns:rdf="http://www.w3.org/1999/02/22-rdf-syntax-ns#">
   <cc:Work>
    <dc:type rdf:resource="http://purl.org/dc/dcmitype/StillImage"/>
    <dc:date>2026-05-12T00:32:31.476732</dc:date>
    <dc:format>image/svg+xml</dc:format>
    <dc:creator>
     <cc:Agent>
      <dc:title>Matplotlib v3.9.4, https://matplotlib.org/</dc:title>
     </cc:Agent>
    </dc:creator>
   </cc:Work>
  </rdf:RDF>
 </metadata>
 <defs>
  <style type="text/css">*{stroke-linejoin: round; stroke-linecap: butt}</style>
 </defs>
 <g id="figure_1">
  <g id="patch_1">
   <path d="M 0 291.27425 
L 427.885312 291.27425 
L 427.885312 0 
L 0 0 
z
" style="fill: #ffffff"/>
  </g>
  <g id="axes_1">
   <g id="patch_2">
    <path d="M 41.245313 254.783625 
L 420.685313 254.783625 
L 420.685313 21.935625 
L 41.245313 21.935625 
z
" style="fill: #ffffff"/>
   </g>
   <g id="matplotlib.axis_1">
    <g id="xtick_1">
     <g id="line2d_1">
      <path d="M 83.131546 254.783625 
L 83.131546 21.935625 
" clip-path="url(#pf4ea54350e)" style="fill: none; stroke: #b0b0b0; stroke-opacity: 0.3; stroke-width: 0.8; stroke-linecap: square"/>
     </g>
     <g id="line2d_2">
      <defs>
       <path id="mbf0d79590d" d="M 0 0 
L 0 3.5 
" style="stroke: #000000; stroke-width: 0.8"/>
      </defs>
      <g>
       <use xlink:href="#mbf0d79590d" x="83.131546" y="254.783625" style="stroke: #000000; stroke-width: 0.8"/>
      </g>
     </g>
     <g id="text_1">
      <text style="font: 10px 'Arial'; text-anchor: middle" x="83.131546" y="268.941438" transform="rotate(-0 83.131546 268.941438)">0.8</text>
     </g>
    </g>
    <g id="xtick_2">
     <g id="line2d_3">
      <path d="M 132.409468 254.783625 
L 132.409468 21.935625 
" clip-path="url(#pf4ea54350e)" style="fill: none; stroke: #b0b0b0; stroke-opacity: 0.3; stroke-width: 0.8; stroke-linecap: square"/>
     </g>
     <g id="line2d_4">
      <g>
       <use xlink:href="#mbf0d79590d" x="132.409468" y="254.783625" style="stroke: #000000; stroke-width: 0.8"/>
      </g>
     </g>
     <g id="text_2">
      <text style="font: 10px 'Arial'; text-anchor: middle" x="132.409468" y="268.941438" transform="rotate(-0 132.409468 268.941438)">0.9</text>
     </g>
    </g>
    <g id="xtick_3">
     <g id="line2d_5">
      <path d="M 181.68739 254.783625 
L 181.68739 21.935625 
" clip-path="url(#pf4ea54350e)" style="fill: none; stroke: #b0b0b0; stroke-opacity: 0.3; stroke-width: 0.8; stroke-linecap: square"/>
     </g>
     <g id="line2d_6">
      <g>
       <use xlink:href="#mbf0d79590d" x="181.68739" y="254.783625" style="stroke: #000000; stroke-width: 0.8"/>
      </g>
     </g>
     <g id="text_3">
      <text style="font: 10px 'Arial'; text-anchor: middle" x="181.68739" y="268.941438" transform="rotate(-0 181.68739 268.941438)">1.0</text>
     </g>
    </g>
    <g id="xtick_4">
     <g id="line2d_7">
      <path d="M 230.965313 254.783625 
L 230.965313 21.935625 
" clip-path="url(#pf4ea54350e)" style="fill: none; stroke: #b0b0b0; stroke-opacity: 0.3; stroke-width: 0.8; stroke-linecap: square"/>
     </g>
     <g id="line2d_8">
      <g>
       <use xlink:href="#mbf0d79590d" x="230.965313" y="254.783625" style="stroke: #000000; stroke-width: 0.8"/>
      </g>
     </g>
     <g id="text_4">
      <text style="font: 10px 'Arial'; text-anchor: middle" x="230.965313" y="268.941438" transform="rotate(-0 230.965313 268.941438)">1.1</text>
     </g>
    </g>
    <g id="xtick_5">
     <g id="line2d_9">
      <path d="M 280.243235 254.783625 
L 280.243235 21.935625 
" clip-path="url(#pf4ea54350e)" style="fill: none; stroke: #b0b0b0; stroke-opacity: 0.3; stroke-width: 0.8; stroke-linecap: square"/>
     </g>
     <g id="line2d_10">
      <g>
       <use xlink:href="#mbf0d79590d" x="280.243235" y="254.783625" style="stroke: #000000; stroke-width: 0.8"/>
      </g>
     </g>
     <g id="text_5">
      <text style="font: 10px 'Arial'; text-anchor: middle" x="280.243235" y="268.941438" transform="rotate(-0 280.243235 268.941438)">1.2</text>
     </g>
    </g>
    <g id="xtick_6">
     <g id="line2d_11">
      <path d="M 329.521157 254.783625 
L 329.521157 21.935625 
" clip-path="url(#pf4ea54350e)" style="fill: none; stroke: #b0b0b0; stroke-opacity: 0.3; stroke-width: 0.8; stroke-linecap: square"/>
     </g>
     <g id="line2d_12">
      <g>
       <use xlink:href="#mbf0d79590d" x="329.521157" y="254.783625" style="stroke: #000000; stroke-width: 0.8"/>
      </g>
     </g>
     <g id="text_6">
      <text style="font: 10px 'Arial'; text-anchor: middle" x="329.521157" y="268.941438" transform="rotate(-0 329.521157 268.941438)">1.3</text>
     </g>
    </g>
    <g id="xtick_7">
     <g id="line2d_13">
      <path d="M 378.799079 254.783625 
L 378.799079 21.935625 
" clip-path="url(#pf4ea54350e)" style="fill: none; stroke: #b0b0b0; stroke-opacity: 0.3; stroke-width: 0.8; stroke-linecap: square"/>
     </g>
     <g id="line2d_14">
      <g>
       <use xlink:href="#mbf0d79590d" x="378.799079" y="254.783625" style="stroke: #000000; stroke-width: 0.8"/>
      </g>
     </g>
     <g id="text_7">
      <text style="font: 10px 'Arial'; text-anchor: middle" x="378.799079" y="268.941438" transform="rotate(-0 378.799079 268.941438)">1.4</text>
     </g>
    </g>
    <g id="text_8">
     <text style="font: 10px 'Arial'; text-anchor: middle" x="230.965313" y="282.08675" transform="rotate(-0 230.965313 282.08675)">cv scale</text>
    </g>
   </g>
   <g id="matplotlib.axis_2">
    <g id="ytick_1">
     <g id="line2d_15">
      <path d="M 41.245313 248.752252 
L 420.685313 248.752252 
" clip-path="url(#pf4ea54350e)" style="fill: none; stroke: #b0b0b0; stroke-opacity: 0.3; stroke-width: 0.8; stroke-linecap: square"/>
     </g>
     <g id="line2d_16">
      <defs>
       <path id="m64134bdd45" d="M 0 0 
L -3.5 0 
" style="stroke: #000000; stroke-width: 0.8"/>
      </defs>
      <g>
       <use xlink:href="#m64134bdd45" x="41.245313" y="248.752252" style="stroke: #000000; stroke-width: 0.8"/>
      </g>
     </g>
     <g id="text_9">
      <text style="font: 10px 'Arial'; text-anchor: end" x="34.245313" y="252.331159" transform="rotate(-0 34.245313 252.331159)">0.0</text>
     </g>
    </g>
    <g id="ytick_2">
     <g id="line2d_17">
      <path d="M 41.245313 202.851681 
L 420.685313 202.851681 
" clip-path="url(#pf4ea54350e)" style="fill: none; stroke: #b0b0b0; stroke-opacity: 0.3; stroke-width: 0.8; stroke-linecap: square"/>
     </g>
     <g id="line2d_18">
      <g>
       <use xlink:href="#m64134bdd45" x="41.245313" y="202.851681" style="stroke: #000000; stroke-width: 0.8"/>
      </g>
     </g>
     <g id="text_10">
      <text style="font: 10px 'Arial'; text-anchor: end" x="34.245313" y="206.430587" transform="rotate(-0 34.245313 206.430587)">0.2</text>
     </g>
    </g>
    <g id="ytick_3">
     <g id="line2d_19">
      <path d="M 41.245313 156.95111 
L 420.685313 156.95111 
" clip-path="url(#pf4ea54350e)" style="fill: none; stroke: #b0b0b0; stroke-opacity: 0.3; stroke-width: 0.8; stroke-linecap: square"/>
     </g>
     <g id="line2d_20">
      <g>
       <use xlink:href="#m64134bdd45" x="41.245313" y="156.95111" style="stroke: #000000; stroke-width: 0.8"/>
      </g>
     </g>
     <g id="text_11">
      <text style="font: 10px 'Arial'; text-anchor: end" x="34.245313" y="160.530016" transform="rotate(-0 34.245313 160.530016)">0.4</text>
     </g>
    </g>
    <g id="ytick_4">
     <g id="line2d_21">
      <path d="M 41.245313 111.050538 
L 420.685313 111.050538 
" clip-path="url(#pf4ea54350e)" style="fill: none; stroke: #b0b0b0; stroke-opacity: 0.3; stroke-width: 0.8; stroke-linecap: square"/>
     </g>
     <g id="line2d_22">
      <g>
       <use xlink:href="#m64134bdd45" x="41.245313" y="111.050538" style="stroke: #000000; stroke-width: 0.8"/>
      </g>
     </g>
     <g id="text_12">
      <text style="font: 10px 'Arial'; text-anchor: end" x="34.245313" y="114.629445" transform="rotate(-0 34.245313 114.629445)">0.6</text>
     </g>
    </g>
    <g id="ytick_5">
     <g id="line2d_23">
      <path d="M 41.245313 65.149967 
L 420.685313 65.149967 
" clip-path="url(#pf4ea54350e)" style="fill: none; stroke: #b0b0b0; stroke-opacity: 0.3; stroke-width: 0.8; stroke-linecap: square"/>
     </g>
     <g id="line2d_24">
      <g>
       <use xlink:href="#m64134bdd45" x="41.245313" y="65.149967" style="stroke: #000000; stroke-width: 0.8"/>
      </g>
     </g>
     <g id="text_13">
      <text style="font: 10px 'Arial'; text-anchor: end" x="34.245313" y="68.728873" transform="rotate(-0 34.245313 68.728873)">0.8</text>
     </g>
    </g>
    <g id="text_14">
     <text style="font: 10px 'Arial'; text-anchor: middle" x="14.357813" y="138.359625" transform="rotate(-90 14.357813 138.359625)">Relative RMSE</text>
    </g>
   </g>
   <g id="line2d_25">
    <path d="M 58.492585 194.164561 
L 107.770507 209.310267 
L 147.192845 221.198803 
L 176.759598 229.90227 
L 197.702715 235.854452 
L 211.254144 239.485747 
L 219.87778 241.581257 
L 226.03752 242.86126 
L 230.965313 243.651724 
L 234.661157 244.039064 
L 238.357001 244.199625 
L 242.052845 244.111146 
L 245.748689 243.788168 
L 250.676481 243.067406 
L 256.836222 241.856022 
L 264.22791 240.146897 
L 275.315442 237.334248 
L 295.026611 232.058978 
L 403.43804 202.709633 
L 403.43804 202.709633 
" clip-path="url(#pf4ea54350e)" style="fill: none; stroke: #1f77b4; stroke-width: 1.5; stroke-linecap: square"/>
   </g>
   <g id="line2d_26">
    <path d="M 58.492585 160.962278 
L 70.812066 157.380831 
L 84.363494 153.215728 
L 99.146871 148.441295 
L 115.162196 143.041044 
L 133.641416 136.569072 
L 154.584533 128.987258 
L 179.223494 119.814212 
L 208.790248 108.552488 
L 246.980637 93.752986 
L 317.201676 66.248647 
L 393.582455 36.417398 
L 403.43804 32.594224 
L 403.43804 32.594224 
" clip-path="url(#pf4ea54350e)" style="fill: none; stroke: #ff7f0e; stroke-width: 1.5; stroke-linecap: square"/>
   </g>
   <g id="line2d_27">
    <path d="M 58.492585 160.900709 
L 70.812066 157.318451 
L 84.363494 153.152574 
L 99.146871 148.377406 
L 115.162196 142.976453 
L 133.641416 136.503756 
L 154.584533 128.921188 
L 179.223494 119.747306 
L 208.790248 108.484606 
L 246.980637 93.683844 
L 317.201676 66.177114 
L 393.582455 36.343155 
L 403.43804 32.519625 
L 403.43804 32.519625 
" clip-path="url(#pf4ea54350e)" style="fill: none; stroke: #2ca02c; stroke-width: 1.5; stroke-linecap: square"/>
   </g>
   <g id="patch_3">
    <path d="M 41.245313 254.783625 
L 41.245313 21.935625 
" style="fill: none; stroke: #000000; stroke-width: 0.8; stroke-linejoin: miter; stroke-linecap: square"/>
   </g>
   <g id="patch_4">
    <path d="M 420.685313 254.783625 
L 420.685313 21.935625 
" style="fill: none; stroke: #000000; stroke-width: 0.8; stroke-linejoin: miter; stroke-linecap: square"/>
   </g>
   <g id="patch_5">
    <path d="M 41.245313 254.783625 
L 420.685312 254.783625 
" style="fill: none; stroke: #000000; stroke-width: 0.8; stroke-linejoin: miter; stroke-linecap: square"/>
   </g>
   <g id="patch_6">
    <path d="M 41.245313 21.935625 
L 420.685312 21.935625 
" style="fill: none; stroke: #000000; stroke-width: 0.8; stroke-linejoin: miter; stroke-linecap: square"/>
   </g>
   <g id="text_15">
    <text style="font: 12px 'Arial'; text-anchor: middle" x="230.965313" y="15.935625" transform="rotate(-0 230.965313 15.935625)">Effective cv sensitivity, G9b bottom excess</text>
   </g>
   <g id="legend_1">
    <g id="patch_7">
     <path d="M 48.245313 72.548125 
L 254.790625 72.548125 
Q 256.790625 72.548125 256.790625 70.548125 
L 256.790625 28.935625 
Q 256.790625 26.935625 254.790625 26.935625 
L 48.245313 26.935625 
Q 46.245313 26.935625 46.245313 28.935625 
L 46.245313 70.548125 
Q 46.245313 72.548125 48.245313 72.548125 
z
" style="fill: #ffffff; opacity: 0.8; stroke: #cccccc; stroke-linejoin: miter"/>
    </g>
    <g id="line2d_28">
     <path d="M 50.245313 34.593437 
L 60.245313 34.593437 
L 70.245313 34.593437 
" style="fill: none; stroke: #1f77b4; stroke-width: 1.5; stroke-linecap: square"/>
    </g>
    <g id="text_16">
     <text style="font: 10px 'Arial'; text-anchor: start" x="78.245313" y="38.093437" transform="rotate(-0 78.245313 38.093437)">eq4</text>
    </g>
    <g id="line2d_29">
     <path d="M 50.245313 48.768438 
L 60.245313 48.768438 
L 70.245313 48.768438 
" style="fill: none; stroke: #ff7f0e; stroke-width: 1.5; stroke-linecap: square"/>
    </g>
    <g id="text_17">
     <text style="font: 10px 'Arial'; text-anchor: start" x="78.245313" y="52.268438" transform="rotate(-0 78.245313 52.268438)">measured_t0p002</text>
    </g>
    <g id="line2d_30">
     <path d="M 50.245313 62.943437 
L 60.245313 62.943437 
L 70.245313 62.943437 
" style="fill: none; stroke: #2ca02c; stroke-width: 1.5; stroke-linecap: square"/>
    </g>
    <g id="text_18">
     <text style="font: 10px 'Arial'; text-anchor: start" x="78.245313" y="66.443437" transform="rotate(-0 78.245313 66.443437)">measured_t0p002_bottom_layer_mean</text>
    </g>
   </g>
  </g>
 </g>
 <defs>
  <clipPath id="pf4ea54350e">
   <rect x="41.245313" y="21.935625" width="379.44" height="232.848"/>
  </clipPath>
 </defs>
</svg>
