<?xml version="1.0" encoding="utf-8" standalone="no"?>
<!DOCTYPE svg PUBLIC "-//W3C//DTD SVG 1.1//EN"
  "http://www.w3.org/Graphics/SVG/1.1/DTD/svg11.dtd">
<svg xmlns:xlink="http://www.w3.org/1999/xlink" width="433.44625pt" height="291.128pt" viewBox="0 0 433.44625 291.128" xmlns="http://www.w3.org/2000/svg" version="1.1">
 <metadata>
  <rdf:RDF xmlns:dc="http://purl.org/dc/elements/1.1/" xmlns:cc="http://creativecommons.org/ns#" xmlns:rdf="http://www.w3.org/1999/02/22-rdf-syntax-ns#">
   <cc:Work>
    <dc:type rdf:resource="http://purl.org/dc/dcmitype/StillImage"/>
    <dc:date>2026-05-12T00:32:32.216608</dc:date>
    <dc:format>image/svg+xml</dc:format>
    <dc:creator>
     <cc:Agent>
      <dc:title>Matplotlib v3.9.4, https://matplotlib.org/</dc:title>
     </cc:Agent>
    </dc:creator>
   </cc:Work>
  </rdf:RDF>
 </metadata>
 <defs>
  <style type="text/css">*{stroke-linejoin: round; stroke-linecap: butt}</style>
 </defs>
 <g id="figure_1">
  <g id="patch_1">
   <path d="M 0 291.128 
L 433.44625 291.128 
L 433.44625 0 
L 0 0 
z
" style="fill: #ffffff"/>
  </g>
  <g id="axes_1">
   <g id="patch_2">
    <path d="M 46.80625 254.637375 
L 426.24625 254.637375 
L 426.24625 21.789375 
L 46.80625 21.789375 
z
" style="fill: #ffffff"/>
   </g>
   <g id="matplotlib.axis_1">
    <g id="xtick_1">
     <g id="line2d_1">
      <path d="M 64.053523 254.637375 
L 64.053523 21.789375 
" clip-path="url(#p9415d0bdfe)" style="fill: none; stroke: #b0b0b0; stroke-opacity: 0.3; stroke-width: 0.8; stroke-linecap: square"/>
     </g>
     <g id="line2d_2">
      <defs>
       <path id="mfccf9a3171" d="M 0 0 
L 0 3.5 
" style="stroke: #000000; stroke-width: 0.8"/>
      </defs>
      <g>
       <use xlink:href="#mfccf9a3171" x="64.053523" y="254.637375" style="stroke: #000000; stroke-width: 0.8"/>
      </g>
     </g>
     <g id="text_1">
      <text style="font: 10px 'Arial'; text-anchor: middle" x="64.053523" y="268.795188" transform="rotate(-0 64.053523 268.795188)">0.0</text>
     </g>
    </g>
    <g id="xtick_2">
     <g id="line2d_3">
      <path d="M 111.962614 254.637375 
L 111.962614 21.789375 
" clip-path="url(#p9415d0bdfe)" style="fill: none; stroke: #b0b0b0; stroke-opacity: 0.3; stroke-width: 0.8; stroke-linecap: square"/>
     </g>
     <g id="line2d_4">
      <g>
       <use xlink:href="#mfccf9a3171" x="111.962614" y="254.637375" style="stroke: #000000; stroke-width: 0.8"/>
      </g>
     </g>
     <g id="text_2">
      <text style="font: 10px 'Arial'; text-anchor: middle" x="111.962614" y="268.795188" transform="rotate(-0 111.962614 268.795188)">0.5</text>
     </g>
    </g>
    <g id="xtick_3">
     <g id="line2d_5">
      <path d="M 159.871705 254.637375 
L 159.871705 21.789375 
" clip-path="url(#p9415d0bdfe)" style="fill: none; stroke: #b0b0b0; stroke-opacity: 0.3; stroke-width: 0.8; stroke-linecap: square"/>
     </g>
     <g id="line2d_6">
      <g>
       <use xlink:href="#mfccf9a3171" x="159.871705" y="254.637375" style="stroke: #000000; stroke-width: 0.8"/>
      </g>
     </g>
     <g id="text_3">
      <text style="font: 10px 'Arial'; text-anchor: middle" x="159.871705" y="268.795188" transform="rotate(-0 159.871705 268.795188)">1.0</text>
     </g>
    </g>
    <g id="xtick_4">
     <g id="line2d_7">
      <path d="M 207.780795 254.637375 
L 207.780795 21.789375 
" clip-path="url(#p9415d0bdfe)" style="fill: none; stroke: #b0b0b0; stroke-opacity: 0.3; stroke-width: 0.8; stroke-linecap: square"/>
     </g>
     <g id="line2d_8">
      <g>
       <use xlink:href="#mfccf9a3171" x="207.780795" y="254.637375" style="stroke: #000000; stroke-width: 0.8"/>
      </g>
     </g>
     <g id="text_4">
      <text style="font: 10px 'Arial'; text-anchor: middle" x="207.780795" y="268.795188" transform="rotate(-0 207.780795 268.795188)">1.5</text>
     </g>
    </g>
    <g id="xtick_5">
     <g id="line2d_9">
      <path d="M 255.689886 254.637375 
L 255.689886 21.789375 
" clip-path="url(#p9415d0bdfe)" style="fill: none; stroke: #b0b0b0; stroke-opacity: 0.3; stroke-width: 0.8; stroke-linecap: square"/>
     </g>
     <g id="line2d_10">
      <g>
       <use xlink:href="#mfccf9a3171" x="255.689886" y="254.637375" style="stroke: #000000; stroke-width: 0.8"/>
      </g>
     </g>
     <g id="text_5">
      <text style="font: 10px 'Arial'; text-anchor: middle" x="255.689886" y="268.795188" transform="rotate(-0 255.689886 268.795188)">2.0</text>
     </g>
    </g>
    <g id="xtick_6">
     <g id="line2d_11">
      <path d="M 303.598977 254.637375 
L 303.598977 21.789375 
" clip-path="url(#p9415d0bdfe)" style="fill: none; stroke: #b0b0b0; stroke-opacity: 0.3; stroke-width: 0.8; stroke-linecap: square"/>
     </g>
     <g id="line2d_12">
      <g>
       <use xlink:href="#mfccf9a3171" x="303.598977" y="254.637375" style="stroke: #000000; stroke-width: 0.8"/>
      </g>
     </g>
     <g id="text_6">
      <text style="font: 10px 'Arial'; text-anchor: middle" x="303.598977" y="268.795188" transform="rotate(-0 303.598977 268.795188)">2.5</text>
     </g>
    </g>
    <g id="xtick_7">
     <g id="line2d_13">
      <path d="M 351.508068 254.637375 
L 351.508068 21.789375 
" clip-path="url(#p9415d0bdfe)" style="fill: none; stroke: #b0b0b0; stroke-opacity: 0.3; stroke-width: 0.8; stroke-linecap: square"/>
     </g>
     <g id="line2d_14">
      <g>
       <use xlink:href="#mfccf9a3171" x="351.508068" y="254.637375" style="stroke: #000000; stroke-width: 0.8"/>
      </g>
     </g>
     <g id="text_7">
      <text style="font: 10px 'Arial'; text-anchor: middle" x="351.508068" y="268.795188" transform="rotate(-0 351.508068 268.795188)">3.0</text>
     </g>
    </g>
    <g id="xtick_8">
     <g id="line2d_15">
      <path d="M 399.417159 254.637375 
L 399.417159 21.789375 
" clip-path="url(#p9415d0bdfe)" style="fill: none; stroke: #b0b0b0; stroke-opacity: 0.3; stroke-width: 0.8; stroke-linecap: square"/>
     </g>
     <g id="line2d_16">
      <g>
       <use xlink:href="#mfccf9a3171" x="399.417159" y="254.637375" style="stroke: #000000; stroke-width: 0.8"/>
      </g>
     </g>
     <g id="text_8">
      <text style="font: 10px 'Arial'; text-anchor: middle" x="399.417159" y="268.795188" transform="rotate(-0 399.417159 268.795188)">3.5</text>
     </g>
    </g>
    <g id="text_9">
     <text style="font: 10px 'Arial'; text-anchor: middle" x="236.52625" y="281.9405" transform="rotate(-0 236.52625 281.9405)">Time, s</text>
    </g>
   </g>
   <g id="matplotlib.axis_2">
    <g id="ytick_1">
     <g id="line2d_17">
      <path d="M 46.80625 244.053375 
L 426.24625 244.053375 
" clip-path="url(#p9415d0bdfe)" style="fill: none; stroke: #b0b0b0; stroke-opacity: 0.3; stroke-width: 0.8; stroke-linecap: square"/>
     </g>
     <g id="line2d_18">
      <defs>
       <path id="m8a43442360" d="M 0 0 
L -3.5 0 
" style="stroke: #000000; stroke-width: 0.8"/>
      </defs>
      <g>
       <use xlink:href="#m8a43442360" x="46.80625" y="244.053375" style="stroke: #000000; stroke-width: 0.8"/>
      </g>
     </g>
     <g id="text_10">
      <text style="font: 10px 'Arial'; text-anchor: end" x="39.80625" y="247.632281" transform="rotate(-0 39.80625 247.632281)">0.0</text>
     </g>
    </g>
    <g id="ytick_2">
     <g id="line2d_19">
      <path d="M 46.80625 218.171687 
L 426.24625 218.171687 
" clip-path="url(#p9415d0bdfe)" style="fill: none; stroke: #b0b0b0; stroke-opacity: 0.3; stroke-width: 0.8; stroke-linecap: square"/>
     </g>
     <g id="line2d_20">
      <g>
       <use xlink:href="#m8a43442360" x="46.80625" y="218.171687" style="stroke: #000000; stroke-width: 0.8"/>
      </g>
     </g>
     <g id="text_11">
      <text style="font: 10px 'Arial'; text-anchor: end" x="39.80625" y="221.750593" transform="rotate(-0 39.80625 221.750593)">2.5</text>
     </g>
    </g>
    <g id="ytick_3">
     <g id="line2d_21">
      <path d="M 46.80625 192.289999 
L 426.24625 192.289999 
" clip-path="url(#p9415d0bdfe)" style="fill: none; stroke: #b0b0b0; stroke-opacity: 0.3; stroke-width: 0.8; stroke-linecap: square"/>
     </g>
     <g id="line2d_22">
      <g>
       <use xlink:href="#m8a43442360" x="46.80625" y="192.289999" style="stroke: #000000; stroke-width: 0.8"/>
      </g>
     </g>
     <g id="text_12">
      <text style="font: 10px 'Arial'; text-anchor: end" x="39.80625" y="195.868905" transform="rotate(-0 39.80625 195.868905)">5.0</text>
     </g>
    </g>
    <g id="ytick_4">
     <g id="line2d_23">
      <path d="M 46.80625 166.408311 
L 426.24625 166.408311 
" clip-path="url(#p9415d0bdfe)" style="fill: none; stroke: #b0b0b0; stroke-opacity: 0.3; stroke-width: 0.8; stroke-linecap: square"/>
     </g>
     <g id="line2d_24">
      <g>
       <use xlink:href="#m8a43442360" x="46.80625" y="166.408311" style="stroke: #000000; stroke-width: 0.8"/>
      </g>
     </g>
     <g id="text_13">
      <text style="font: 10px 'Arial'; text-anchor: end" x="39.80625" y="169.987217" transform="rotate(-0 39.80625 169.987217)">7.5</text>
     </g>
    </g>
    <g id="ytick_5">
     <g id="line2d_25">
      <path d="M 46.80625 140.526623 
L 426.24625 140.526623 
" clip-path="url(#p9415d0bdfe)" style="fill: none; stroke: #b0b0b0; stroke-opacity: 0.3; stroke-width: 0.8; stroke-linecap: square"/>
     </g>
     <g id="line2d_26">
      <g>
       <use xlink:href="#m8a43442360" x="46.80625" y="140.526623" style="stroke: #000000; stroke-width: 0.8"/>
      </g>
     </g>
     <g id="text_14">
      <text style="font: 10px 'Arial'; text-anchor: end" x="39.80625" y="144.105529" transform="rotate(-0 39.80625 144.105529)">10.0</text>
     </g>
    </g>
    <g id="ytick_6">
     <g id="line2d_27">
      <path d="M 46.80625 114.644935 
L 426.24625 114.644935 
" clip-path="url(#p9415d0bdfe)" style="fill: none; stroke: #b0b0b0; stroke-opacity: 0.3; stroke-width: 0.8; stroke-linecap: square"/>
     </g>
     <g id="line2d_28">
      <g>
       <use xlink:href="#m8a43442360" x="46.80625" y="114.644935" style="stroke: #000000; stroke-width: 0.8"/>
      </g>
     </g>
     <g id="text_15">
      <text style="font: 10px 'Arial'; text-anchor: end" x="39.80625" y="118.223841" transform="rotate(-0 39.80625 118.223841)">12.5</text>
     </g>
    </g>
    <g id="ytick_7">
     <g id="line2d_29">
      <path d="M 46.80625 88.763247 
L 426.24625 88.763247 
" clip-path="url(#p9415d0bdfe)" style="fill: none; stroke: #b0b0b0; stroke-opacity: 0.3; stroke-width: 0.8; stroke-linecap: square"/>
     </g>
     <g id="line2d_30">
      <g>
       <use xlink:href="#m8a43442360" x="46.80625" y="88.763247" style="stroke: #000000; stroke-width: 0.8"/>
      </g>
     </g>
     <g id="text_16">
      <text style="font: 10px 'Arial'; text-anchor: end" x="39.80625" y="92.342153" transform="rotate(-0 39.80625 92.342153)">15.0</text>
     </g>
    </g>
    <g id="ytick_8">
     <g id="line2d_31">
      <path d="M 46.80625 62.881559 
L 426.24625 62.881559 
" clip-path="url(#p9415d0bdfe)" style="fill: none; stroke: #b0b0b0; stroke-opacity: 0.3; stroke-width: 0.8; stroke-linecap: square"/>
     </g>
     <g id="line2d_32">
      <g>
       <use xlink:href="#m8a43442360" x="46.80625" y="62.881559" style="stroke: #000000; stroke-width: 0.8"/>
      </g>
     </g>
     <g id="text_17">
      <text style="font: 10px 'Arial'; text-anchor: end" x="39.80625" y="66.460465" transform="rotate(-0 39.80625 66.460465)">17.5</text>
     </g>
    </g>
    <g id="ytick_9">
     <g id="line2d_33">
      <path d="M 46.80625 36.999871 
L 426.24625 36.999871 
" clip-path="url(#p9415d0bdfe)" style="fill: none; stroke: #b0b0b0; stroke-opacity: 0.3; stroke-width: 0.8; stroke-linecap: square"/>
     </g>
     <g id="line2d_34">
      <g>
       <use xlink:href="#m8a43442360" x="46.80625" y="36.999871" style="stroke: #000000; stroke-width: 0.8"/>
      </g>
     </g>
     <g id="text_18">
      <text style="font: 10px 'Arial'; text-anchor: end" x="39.80625" y="40.578777" transform="rotate(-0 39.80625 40.578777)">20.0</text>
     </g>
    </g>
    <g id="text_19">
     <text style="font: 10px 'Arial'; text-anchor: middle" x="14.357813" y="138.213375" transform="rotate(-90 14.357813 138.213375)">Bottom excess pore pressure, kPa</text>
    </g>
   </g>
   <g id="line2d_35">
    <path d="M 64.053523 244.053375 
L 73.635341 79.547407 
L 83.217159 96.075902 
L 92.798977 108.841694 
L 102.380795 119.68764 
L 111.962614 129.278288 
L 121.544432 137.871575 
L 131.12625 145.686281 
L 140.708068 153.072744 
L 150.289886 159.529345 
L 159.871705 165.87779 
L 169.453523 171.369004 
L 179.035341 176.672669 
L 188.617159 181.69196 
L 198.198977 185.952041 
L 207.780795 190.194953 
L 217.362614 194.359936 
L 226.944432 197.589688 
L 236.52625 200.777889 
L 246.108068 203.964788 
L 255.689886 207.149035 
L 265.271705 209.557798 
L 274.853523 211.689256 
L 284.435341 213.818857 
L 294.017159 215.948028 
L 303.598977 218.080405 
L 313.180795 220.208398 
L 322.762614 222.318356 
L 332.344432 223.881053 
L 341.92625 225.005576 
L 351.508068 226.090001 
L 361.089886 227.179359 
L 370.671705 228.259958 
L 380.253523 229.342886 
L 389.835341 230.419165 
L 399.417159 231.491954 
L 408.998977 232.561898 
" clip-path="url(#p9415d0bdfe)" style="fill: none; stroke: #000000; stroke-width: 1.2; stroke-linecap: square"/>
    <defs>
     <path id="m4a4e72dd89" d="M 0 1.5 
C 0.397805 1.5 0.77937 1.341951 1.06066 1.06066 
C 1.341951 0.77937 1.5 0.397805 1.5 0 
C 1.5 -0.397805 1.341951 -0.77937 1.06066 -1.06066 
C 0.77937 -1.341951 0.397805 -1.5 0 -1.5 
C -0.397805 -1.5 -0.77937 -1.341951 -1.06066 -1.06066 
C -1.341951 -0.77937 -1.5 -0.397805 -1.5 0 
C -1.5 0.397805 -1.341951 0.77937 -1.06066 1.06066 
C -0.77937 1.341951 -0.397805 1.5 0 1.5 
z
" style="stroke: #000000"/>
    </defs>
    <g clip-path="url(#p9415d0bdfe)">
     <use xlink:href="#m4a4e72dd89" x="64.053523" y="244.053375" style="stroke: #000000"/>
     <use xlink:href="#m4a4e72dd89" x="73.635341" y="79.547407" style="stroke: #000000"/>
     <use xlink:href="#m4a4e72dd89" x="83.217159" y="96.075902" style="stroke: #000000"/>
     <use xlink:href="#m4a4e72dd89" x="92.798977" y="108.841694" style="stroke: #000000"/>
     <use xlink:href="#m4a4e72dd89" x="102.380795" y="119.68764" style="stroke: #000000"/>
     <use xlink:href="#m4a4e72dd89" x="111.962614" y="129.278288" style="stroke: #000000"/>
     <use xlink:href="#m4a4e72dd89" x="121.544432" y="137.871575" style="stroke: #000000"/>
     <use xlink:href="#m4a4e72dd89" x="131.12625" y="145.686281" style="stroke: #000000"/>
     <use xlink:href="#m4a4e72dd89" x="140.708068" y="153.072744" style="stroke: #000000"/>
     <use xlink:href="#m4a4e72dd89" x="150.289886" y="159.529345" style="stroke: #000000"/>
     <use xlink:href="#m4a4e72dd89" x="159.871705" y="165.87779" style="stroke: #000000"/>
     <use xlink:href="#m4a4e72dd89" x="169.453523" y="171.369004" style="stroke: #000000"/>
     <use xlink:href="#m4a4e72dd89" x="179.035341" y="176.672669" style="stroke: #000000"/>
     <use xlink:href="#m4a4e72dd89" x="188.617159" y="181.69196" style="stroke: #000000"/>
     <use xlink:href="#m4a4e72dd89" x="198.198977" y="185.952041" style="stroke: #000000"/>
     <use xlink:href="#m4a4e72dd89" x="207.780795" y="190.194953" style="stroke: #000000"/>
     <use xlink:href="#m4a4e72dd89" x="217.362614" y="194.359936" style="stroke: #000000"/>
     <use xlink:href="#m4a4e72dd89" x="226.944432" y="197.589688" style="stroke: #000000"/>
     <use xlink:href="#m4a4e72dd89" x="236.52625" y="200.777889" style="stroke: #000000"/>
     <use xlink:href="#m4a4e72dd89" x="246.108068" y="203.964788" style="stroke: #000000"/>
     <use xlink:href="#m4a4e72dd89" x="255.689886" y="207.149035" style="stroke: #000000"/>
     <use xlink:href="#m4a4e72dd89" x="265.271705" y="209.557798" style="stroke: #000000"/>
     <use xlink:href="#m4a4e72dd89" x="274.853523" y="211.689256" style="stroke: #000000"/>
     <use xlink:href="#m4a4e72dd89" x="284.435341" y="213.818857" style="stroke: #000000"/>
     <use xlink:href="#m4a4e72dd89" x="294.017159" y="215.948028" style="stroke: #000000"/>
     <use xlink:href="#m4a4e72dd89" x="303.598977" y="218.080405" style="stroke: #000000"/>
     <use xlink:href="#m4a4e72dd89" x="313.180795" y="220.208398" style="stroke: #000000"/>
     <use xlink:href="#m4a4e72dd89" x="322.762614" y="222.318356" style="stroke: #000000"/>
     <use xlink:href="#m4a4e72dd89" x="332.344432" y="223.881053" style="stroke: #000000"/>
     <use xlink:href="#m4a4e72dd89" x="341.92625" y="225.005576" style="stroke: #000000"/>
     <use xlink:href="#m4a4e72dd89" x="351.508068" y="226.090001" style="stroke: #000000"/>
     <use xlink:href="#m4a4e72dd89" x="361.089886" y="227.179359" style="stroke: #000000"/>
     <use xlink:href="#m4a4e72dd89" x="370.671705" y="228.259958" style="stroke: #000000"/>
     <use xlink:href="#m4a4e72dd89" x="380.253523" y="229.342886" style="stroke: #000000"/>
     <use xlink:href="#m4a4e72dd89" x="389.835341" y="230.419165" style="stroke: #000000"/>
     <use xlink:href="#m4a4e72dd89" x="399.417159" y="231.491954" style="stroke: #000000"/>
     <use xlink:href="#m4a4e72dd89" x="408.998977" y="232.561898" style="stroke: #000000"/>
    </g>
   </g>
   <g id="line2d_36">
    <path d="M 64.053523 33.759929 
L 73.635341 72.96728 
L 83.217159 89.562245 
L 92.798977 102.24774 
L 102.380795 112.924873 
L 111.962614 122.31719 
L 121.544432 130.783837 
L 131.12625 138.526161 
L 140.708068 145.666316 
L 150.289886 152.284012 
L 159.871705 158.435371 
L 169.453523 164.162957 
L 179.035341 169.501215 
L 188.617159 174.479446 
L 198.198977 179.123462 
L 207.780795 183.456526 
L 217.362614 187.499904 
L 226.944432 191.273203 
L 236.52625 194.794593 
L 246.108068 198.080961 
L 255.689886 201.14803 
L 265.271705 204.010455 
L 274.853523 206.681901 
L 284.435341 209.175115 
L 294.017159 211.501993 
L 303.598977 213.673633 
L 313.180795 215.700392 
L 322.762614 217.591937 
L 332.344432 219.357289 
L 341.92625 221.004867 
L 351.508068 222.542528 
L 361.089886 223.977605 
L 370.671705 225.316943 
L 380.253523 226.566927 
L 389.835341 227.73352 
L 399.417159 228.822285 
L 408.998977 229.838414 
" clip-path="url(#p9415d0bdfe)" style="fill: none; stroke: #1f77b4; stroke-width: 1.5; stroke-linecap: square"/>
   </g>
   <g id="line2d_37">
    <path d="M 64.053523 33.832626 
L 73.635341 73.068389 
L 83.217159 89.633421 
L 92.798977 102.305788 
L 102.380795 112.975316 
L 111.962614 122.36302 
L 121.544432 130.827101 
L 131.12625 138.568274 
L 140.708068 145.708172 
L 150.289886 152.326105 
L 159.871705 158.477908 
L 169.453523 164.205966 
L 179.035341 169.544613 
L 188.617159 174.523093 
L 198.198977 179.167194 
L 207.780795 183.500175 
L 217.362614 187.543309 
L 226.944432 191.316215 
L 236.52625 194.837078 
L 246.108068 198.122803 
L 255.689886 201.189128 
L 265.271705 204.050723 
L 274.853523 206.721267 
L 284.435341 209.213522 
L 294.017159 211.539393 
L 303.598977 213.709989 
L 313.180795 215.735678 
L 322.762614 217.626133 
L 332.344432 219.390384 
L 341.92625 221.036855 
L 351.508068 222.57341 
L 361.089886 224.007387 
L 370.671705 225.345632 
L 380.253523 226.594538 
L 389.835341 227.760069 
L 399.417159 228.84779 
L 408.998977 229.862897 
" clip-path="url(#p9415d0bdfe)" style="fill: none; stroke-dasharray: 4.44,1.92; stroke-dashoffset: 0; stroke: #ff7f0e; stroke-width: 1.2"/>
   </g>
   <g id="line2d_38">
    <path d="M 64.053523 32.373375 
L 73.635341 56.948472 
L 83.217159 74.036021 
L 92.798977 87.513017 
L 102.380795 99.050726 
L 111.962614 109.30425 
L 121.544432 118.604622 
L 131.12625 127.140971 
L 140.708068 135.030715 
L 150.289886 142.352587 
L 159.871705 149.163619 
L 169.453523 155.508202 
L 179.035341 161.423014 
L 188.617159 166.939722 
L 198.198977 172.086499 
L 207.780795 176.888896 
L 217.362614 181.370357 
L 226.944432 185.552545 
L 236.52625 189.455563 
L 246.108068 193.098109 
L 255.689886 196.497599 
L 265.271705 199.67027 
L 274.853523 202.631266 
L 284.435341 205.394714 
L 294.017159 207.973797 
L 303.598977 210.380817 
L 313.180795 212.627253 
L 322.762614 214.72382 
L 332.344432 216.680516 
L 341.92625 218.506672 
L 351.508068 220.210998 
L 361.089886 221.801622 
L 370.671705 223.286128 
L 380.253523 224.671597 
L 389.835341 225.964635 
L 399.417159 227.171409 
L 408.998977 228.297675 
" clip-path="url(#p9415d0bdfe)" style="fill: none; stroke: #2ca02c; stroke-width: 1.5; stroke-linecap: square"/>
   </g>
   <g id="line2d_39">
    <path d="M 64.053523 32.37339 
L 73.635341 57.02874 
L 83.217159 74.099367 
L 92.798977 87.567467 
L 102.380795 99.099978 
L 111.962614 109.350514 
L 121.544432 118.649471 
L 131.12625 127.185492 
L 140.708068 135.075571 
L 150.289886 142.398106 
L 159.871705 149.209889 
L 169.453523 155.555164 
L 179.035341 161.47052 
L 188.617159 166.987583 
L 198.198977 172.134513 
L 207.780795 176.936862 
L 217.362614 181.418088 
L 226.944432 185.59987 
L 236.52625 189.50233 
L 246.108068 193.144186 
L 255.689886 196.542872 
L 265.271705 199.714642 
L 274.853523 202.674656 
L 284.435341 205.437057 
L 294.017159 208.015039 
L 303.598977 210.420917 
L 313.180795 212.66618 
L 322.762614 214.761551 
L 332.344432 216.717038 
L 341.92625 218.541979 
L 351.508068 220.245088 
L 361.089886 221.834501 
L 370.671705 223.317806 
L 380.253523 224.702087 
L 389.835341 225.993955 
L 399.417159 227.19958 
L 408.998977 228.324719 
" clip-path="url(#p9415d0bdfe)" style="fill: none; stroke-dasharray: 4.44,1.92; stroke-dashoffset: 0; stroke: #d62728; stroke-width: 1.2"/>
   </g>
   <g id="patch_3">
    <path d="M 46.80625 254.637375 
L 46.80625 21.789375 
" style="fill: none; stroke: #000000; stroke-width: 0.8; stroke-linejoin: miter; stroke-linecap: square"/>
   </g>
   <g id="patch_4">
    <path d="M 426.24625 254.637375 
L 426.24625 21.789375 
" style="fill: none; stroke: #000000; stroke-width: 0.8; stroke-linejoin: miter; stroke-linecap: square"/>
   </g>
   <g id="patch_5">
    <path d="M 46.80625 254.637375 
L 426.24625 254.637375 
" style="fill: none; stroke: #000000; stroke-width: 0.8; stroke-linejoin: miter; stroke-linecap: square"/>
   </g>
   <g id="patch_6">
    <path d="M 46.80625 21.789375 
L 426.24625 21.789375 
" style="fill: none; stroke: #000000; stroke-width: 0.8; stroke-linejoin: miter; stroke-linecap: square"/>
   </g>
   <g id="text_20">
    <text style="font: 12px 'Arial'; text-anchor: middle" x="236.52625" y="15.789375" transform="rotate(-0 236.52625 15.789375)">Finite-volume vs series reference variants</text>
   </g>
   <g id="legend_1">
    <g id="patch_7">
     <path d="M 305.6625 84.989375 
L 420.64625 84.989375 
Q 422.24625 84.989375 422.24625 83.389375 
L 422.24625 27.389375 
Q 422.24625 25.789375 420.64625 25.789375 
L 305.6625 25.789375 
Q 304.0625 25.789375 304.0625 27.389375 
L 304.0625 83.389375 
Q 304.0625 84.989375 305.6625 84.989375 
z
" style="fill: #ffffff; opacity: 0.8; stroke: #cccccc; stroke-linejoin: miter"/>
    </g>
    <g id="line2d_40">
     <path d="M 307.2625 31.915625 
L 315.2625 31.915625 
L 323.2625 31.915625 
" style="fill: none; stroke: #000000; stroke-width: 1.2; stroke-linecap: square"/>
     <g>
      <use xlink:href="#m4a4e72dd89" x="315.2625" y="31.915625" style="stroke: #000000"/>
     </g>
    </g>
    <g id="text_21">
     <text style="font: 8px 'Arial'; text-anchor: start" x="329.6625" y="34.715625" transform="rotate(-0 329.6625 34.715625)">GPU G9b</text>
    </g>
    <g id="line2d_41">
     <path d="M 307.2625 43.231875 
L 315.2625 43.231875 
L 323.2625 43.231875 
" style="fill: none; stroke: #1f77b4; stroke-width: 1.5; stroke-linecap: square"/>
    </g>
    <g id="text_22">
     <text style="font: 8px 'Arial'; text-anchor: start" x="329.6625" y="46.031875" transform="rotate(-0 329.6625 46.031875)">FD eq4</text>
    </g>
    <g id="line2d_42">
     <path d="M 307.2625 54.645625 
L 315.2625 54.645625 
L 323.2625 54.645625 
" style="fill: none; stroke-dasharray: 4.44,1.92; stroke-dashoffset: 0; stroke: #ff7f0e; stroke-width: 1.2"/>
    </g>
    <g id="text_23">
     <text style="font: 8px 'Arial'; text-anchor: start" x="329.6625" y="57.445625" transform="rotate(-0 329.6625 57.445625)">Series eq4</text>
    </g>
    <g id="line2d_43">
     <path d="M 307.2625 65.985625 
L 315.2625 65.985625 
L 323.2625 65.985625 
" style="fill: none; stroke: #2ca02c; stroke-width: 1.5; stroke-linecap: square"/>
    </g>
    <g id="text_24">
     <text style="font: 8px 'Arial'; text-anchor: start" x="329.6625" y="68.785625" transform="rotate(-0 329.6625 68.785625)">FD measured_t0p010</text>
    </g>
    <g id="line2d_44">
     <path d="M 307.2625 77.399375 
L 315.2625 77.399375 
L 323.2625 77.399375 
" style="fill: none; stroke-dasharray: 4.44,1.92; stroke-dashoffset: 0; stroke: #d62728; stroke-width: 1.2"/>
    </g>
    <g id="text_25">
     <text style="font: 8px 'Arial'; text-anchor: start" x="329.6625" y="80.199375" transform="rotate(-0 329.6625 80.199375)">Series measured_t0p010</text>
    </g>
   </g>
  </g>
 </g>
 <defs>
  <clipPath id="p9415d0bdfe">
   <rect x="46.80625" y="21.789375" width="379.44" height="232.848"/>
  </clipPath>
 </defs>
</svg>
