<?xml version="1.0" encoding="utf-8" standalone="no"?>
<!DOCTYPE svg PUBLIC "-//W3C//DTD SVG 1.1//EN"
  "http://www.w3.org/Graphics/SVG/1.1/DTD/svg11.dtd">
<svg xmlns:xlink="http://www.w3.org/1999/xlink" width="504pt" height="324pt" viewBox="0 0 504 324" xmlns="http://www.w3.org/2000/svg" version="1.1">
 <metadata>
  <rdf:RDF xmlns:dc="http://purl.org/dc/elements/1.1/" xmlns:cc="http://creativecommons.org/ns#" xmlns:rdf="http://www.w3.org/1999/02/22-rdf-syntax-ns#">
   <cc:Work>
    <dc:type rdf:resource="http://purl.org/dc/dcmitype/StillImage"/>
    <dc:date>2026-05-14T04:14:12.195220</dc:date>
    <dc:format>image/svg+xml</dc:format>
    <dc:creator>
     <cc:Agent>
      <dc:title>Matplotlib v3.9.4, https://matplotlib.org/</dc:title>
     </cc:Agent>
    </dc:creator>
   </cc:Work>
  </rdf:RDF>
 </metadata>
 <defs>
  <style type="text/css">*{stroke-linejoin: round; stroke-linecap: butt}</style>
 </defs>
 <g id="figure_1">
  <g id="patch_1">
   <path d="M 0 324
L 504 324
L 504 0
L 0 0
z
" style="fill: #ffffff"/>
  </g>
  <g id="axes_1">
   <g id="patch_2">
    <path d="M 66.8 282.04
L 493.2 282.04
L 493.2 10.8
L 66.8 10.8
z
" style="fill: #ffffff"/>
   </g>
   <g id="matplotlib.axis_1">
    <g id="xtick_1">
     <g id="line2d_1">
      <path d="M 86.181818 282.04
L 86.181818 10.8
" clip-path="url(#p4029cfc4eb)" style="fill: none; stroke: #b0b0b0; stroke-opacity: 0.3; stroke-width: 0.8; stroke-linecap: square"/>
     </g>
     <g id="line2d_2">
      <defs>
       <path id="mbea6f3731c" d="M 0 0
L 0 3.5
" style="stroke: #000000; stroke-width: 0.8"/>
      </defs>
      <g>
       <use xlink:href="#mbea6f3731c" x="86.181818" y="282.04" style="stroke: #000000; stroke-width: 0.8"/>
      </g>
     </g>
     <g id="text_1">
      <!-- 0.0000 -->
      <g transform="translate(68.686506 296.638438) scale(0.1 -0.1)">
       <defs>
        <path id="DejaVuSans-30" d="M 2034 4250
Q 1547 4250 1301 3770
Q 1056 3291 1056 2328
Q 1056 1369 1301 889
Q 1547 409 2034 409
Q 2525 409 2770 889
Q 3016 1369 3016 2328
Q 3016 3291 2770 3770
Q 2525 4250 2034 4250
z
M 2034 4750
Q 2819 4750 3233 4129
Q 3647 3509 3647 2328
Q 3647 1150 3233 529
Q 2819 -91 2034 -91
Q 1250 -91 836 529
Q 422 1150 422 2328
Q 422 3509 836 4129
Q 1250 4750 2034 4750
z
" transform="scale(0.015625)"/>
        <path id="DejaVuSans-2e" d="M 684 794
L 1344 794
L 1344 0
L 684 0
L 684 794
z
" transform="scale(0.015625)"/>
       </defs>
       <use xlink:href="#DejaVuSans-30"/>
       <use xlink:href="#DejaVuSans-2e" x="63.623047"/>
       <use xlink:href="#DejaVuSans-30" x="95.410156"/>
       <use xlink:href="#DejaVuSans-30" x="159.033203"/>
       <use xlink:href="#DejaVuSans-30" x="222.65625"/>
       <use xlink:href="#DejaVuSans-30" x="286.279297"/>
      </g>
     </g>
    </g>
    <g id="xtick_2">
     <g id="line2d_3">
      <path d="M 139.731628 282.04
L 139.731628 10.8
" clip-path="url(#p4029cfc4eb)" style="fill: none; stroke: #b0b0b0; stroke-opacity: 0.3; stroke-width: 0.8; stroke-linecap: square"/>
     </g>
     <g id="line2d_4">
      <g>
       <use xlink:href="#mbea6f3731c" x="139.731628" y="282.04" style="stroke: #000000; stroke-width: 0.8"/>
      </g>
     </g>
     <g id="text_2">
      <!-- 0.0025 -->
      <g transform="translate(122.236316 296.638438) scale(0.1 -0.1)">
       <defs>
        <path id="DejaVuSans-32" d="M 1228 531
L 3431 531
L 3431 0
L 469 0
L 469 531
Q 828 903 1448 1529
Q 2069 2156 2228 2338
Q 2531 2678 2651 2914
Q 2772 3150 2772 3378
Q 2772 3750 2511 3984
Q 2250 4219 1831 4219
Q 1534 4219 1204 4116
Q 875 4013 500 3803
L 500 4441
Q 881 4594 1212 4672
Q 1544 4750 1819 4750
Q 2544 4750 2975 4387
Q 3406 4025 3406 3419
Q 3406 3131 3298 2873
Q 3191 2616 2906 2266
Q 2828 2175 2409 1742
Q 1991 1309 1228 531
z
" transform="scale(0.015625)"/>
        <path id="DejaVuSans-35" d="M 691 4666
L 3169 4666
L 3169 4134
L 1269 4134
L 1269 2991
Q 1406 3038 1543 3061
Q 1681 3084 1819 3084
Q 2600 3084 3056 2656
Q 3513 2228 3513 1497
Q 3513 744 3044 326
Q 2575 -91 1722 -91
Q 1428 -91 1123 -41
Q 819 9 494 109
L 494 744
Q 775 591 1075 516
Q 1375 441 1709 441
Q 2250 441 2565 725
Q 2881 1009 2881 1497
Q 2881 1984 2565 2268
Q 2250 2553 1709 2553
Q 1456 2553 1204 2497
Q 953 2441 691 2322
L 691 4666
z
" transform="scale(0.015625)"/>
       </defs>
       <use xlink:href="#DejaVuSans-30"/>
       <use xlink:href="#DejaVuSans-2e" x="63.623047"/>
       <use xlink:href="#DejaVuSans-30" x="95.410156"/>
       <use xlink:href="#DejaVuSans-30" x="159.033203"/>
       <use xlink:href="#DejaVuSans-32" x="222.65625"/>
       <use xlink:href="#DejaVuSans-35" x="286.279297"/>
      </g>
     </g>
    </g>
    <g id="xtick_3">
     <g id="line2d_5">
      <path d="M 193.281438 282.04
L 193.281438 10.8
" clip-path="url(#p4029cfc4eb)" style="fill: none; stroke: #b0b0b0; stroke-opacity: 0.3; stroke-width: 0.8; stroke-linecap: square"/>
     </g>
     <g id="line2d_6">
      <g>
       <use xlink:href="#mbea6f3731c" x="193.281438" y="282.04" style="stroke: #000000; stroke-width: 0.8"/>
      </g>
     </g>
     <g id="text_3">
      <!-- 0.0050 -->
      <g transform="translate(175.786125 296.638438) scale(0.1 -0.1)">
       <use xlink:href="#DejaVuSans-30"/>
       <use xlink:href="#DejaVuSans-2e" x="63.623047"/>
       <use xlink:href="#DejaVuSans-30" x="95.410156"/>
       <use xlink:href="#DejaVuSans-30" x="159.033203"/>
       <use xlink:href="#DejaVuSans-35" x="222.65625"/>
       <use xlink:href="#DejaVuSans-30" x="286.279297"/>
      </g>
     </g>
    </g>
    <g id="xtick_4">
     <g id="line2d_7">
      <path d="M 246.831248 282.04
L 246.831248 10.8
" clip-path="url(#p4029cfc4eb)" style="fill: none; stroke: #b0b0b0; stroke-opacity: 0.3; stroke-width: 0.8; stroke-linecap: square"/>
     </g>
     <g id="line2d_8">
      <g>
       <use xlink:href="#mbea6f3731c" x="246.831248" y="282.04" style="stroke: #000000; stroke-width: 0.8"/>
      </g>
     </g>
     <g id="text_4">
      <!-- 0.0075 -->
      <g transform="translate(229.335935 296.638438) scale(0.1 -0.1)">
       <defs>
        <path id="DejaVuSans-37" d="M 525 4666
L 3525 4666
L 3525 4397
L 1831 0
L 1172 0
L 2766 4134
L 525 4134
L 525 4666
z
" transform="scale(0.015625)"/>
       </defs>
       <use xlink:href="#DejaVuSans-30"/>
       <use xlink:href="#DejaVuSans-2e" x="63.623047"/>
       <use xlink:href="#DejaVuSans-30" x="95.410156"/>
       <use xlink:href="#DejaVuSans-30" x="159.033203"/>
       <use xlink:href="#DejaVuSans-37" x="222.65625"/>
       <use xlink:href="#DejaVuSans-35" x="286.279297"/>
      </g>
     </g>
    </g>
    <g id="xtick_5">
     <g id="line2d_9">
      <path d="M 300.381058 282.04
L 300.381058 10.8
" clip-path="url(#p4029cfc4eb)" style="fill: none; stroke: #b0b0b0; stroke-opacity: 0.3; stroke-width: 0.8; stroke-linecap: square"/>
     </g>
     <g id="line2d_10">
      <g>
       <use xlink:href="#mbea6f3731c" x="300.381058" y="282.04" style="stroke: #000000; stroke-width: 0.8"/>
      </g>
     </g>
     <g id="text_5">
      <!-- 0.0100 -->
      <g transform="translate(282.885745 296.638438) scale(0.1 -0.1)">
       <defs>
        <path id="DejaVuSans-31" d="M 794 531
L 1825 531
L 1825 4091
L 703 3866
L 703 4441
L 1819 4666
L 2450 4666
L 2450 531
L 3481 531
L 3481 0
L 794 0
L 794 531
z
" transform="scale(0.015625)"/>
       </defs>
       <use xlink:href="#DejaVuSans-30"/>
       <use xlink:href="#DejaVuSans-2e" x="63.623047"/>
       <use xlink:href="#DejaVuSans-30" x="95.410156"/>
       <use xlink:href="#DejaVuSans-31" x="159.033203"/>
       <use xlink:href="#DejaVuSans-30" x="222.65625"/>
       <use xlink:href="#DejaVuSans-30" x="286.279297"/>
      </g>
     </g>
    </g>
    <g id="xtick_6">
     <g id="line2d_11">
      <path d="M 353.930867 282.04
L 353.930867 10.8
" clip-path="url(#p4029cfc4eb)" style="fill: none; stroke: #b0b0b0; stroke-opacity: 0.3; stroke-width: 0.8; stroke-linecap: square"/>
     </g>
     <g id="line2d_12">
      <g>
       <use xlink:href="#mbea6f3731c" x="353.930867" y="282.04" style="stroke: #000000; stroke-width: 0.8"/>
      </g>
     </g>
     <g id="text_6">
      <!-- 0.0125 -->
      <g transform="translate(336.435555 296.638438) scale(0.1 -0.1)">
       <use xlink:href="#DejaVuSans-30"/>
       <use xlink:href="#DejaVuSans-2e" x="63.623047"/>
       <use xlink:href="#DejaVuSans-30" x="95.410156"/>
       <use xlink:href="#DejaVuSans-31" x="159.033203"/>
       <use xlink:href="#DejaVuSans-32" x="222.65625"/>
       <use xlink:href="#DejaVuSans-35" x="286.279297"/>
      </g>
     </g>
    </g>
    <g id="xtick_7">
     <g id="line2d_13">
      <path d="M 407.480677 282.04
L 407.480677 10.8
" clip-path="url(#p4029cfc4eb)" style="fill: none; stroke: #b0b0b0; stroke-opacity: 0.3; stroke-width: 0.8; stroke-linecap: square"/>
     </g>
     <g id="line2d_14">
      <g>
       <use xlink:href="#mbea6f3731c" x="407.480677" y="282.04" style="stroke: #000000; stroke-width: 0.8"/>
      </g>
     </g>
     <g id="text_7">
      <!-- 0.0150 -->
      <g transform="translate(389.985365 296.638438) scale(0.1 -0.1)">
       <use xlink:href="#DejaVuSans-30"/>
       <use xlink:href="#DejaVuSans-2e" x="63.623047"/>
       <use xlink:href="#DejaVuSans-30" x="95.410156"/>
       <use xlink:href="#DejaVuSans-31" x="159.033203"/>
       <use xlink:href="#DejaVuSans-35" x="222.65625"/>
       <use xlink:href="#DejaVuSans-30" x="286.279297"/>
      </g>
     </g>
    </g>
    <g id="xtick_8">
     <g id="line2d_15">
      <path d="M 461.030487 282.04
L 461.030487 10.8
" clip-path="url(#p4029cfc4eb)" style="fill: none; stroke: #b0b0b0; stroke-opacity: 0.3; stroke-width: 0.8; stroke-linecap: square"/>
     </g>
     <g id="line2d_16">
      <g>
       <use xlink:href="#mbea6f3731c" x="461.030487" y="282.04" style="stroke: #000000; stroke-width: 0.8"/>
      </g>
     </g>
     <g id="text_8">
      <!-- 0.0175 -->
      <g transform="translate(443.535175 296.638438) scale(0.1 -0.1)">
       <use xlink:href="#DejaVuSans-30"/>
       <use xlink:href="#DejaVuSans-2e" x="63.623047"/>
       <use xlink:href="#DejaVuSans-30" x="95.410156"/>
       <use xlink:href="#DejaVuSans-31" x="159.033203"/>
       <use xlink:href="#DejaVuSans-37" x="222.65625"/>
       <use xlink:href="#DejaVuSans-35" x="286.279297"/>
      </g>
     </g>
    </g>
    <g id="text_9">
     <!-- time [s] -->
     <g transform="translate(260.608594 310.316563) scale(0.1 -0.1)">
      <defs>
       <path id="DejaVuSans-74" d="M 1172 4494
L 1172 3500
L 2356 3500
L 2356 3053
L 1172 3053
L 1172 1153
Q 1172 725 1289 603
Q 1406 481 1766 481
L 2356 481
L 2356 0
L 1766 0
Q 1100 0 847 248
Q 594 497 594 1153
L 594 3053
L 172 3053
L 172 3500
L 594 3500
L 594 4494
L 1172 4494
z
" transform="scale(0.015625)"/>
       <path id="DejaVuSans-69" d="M 603 3500
L 1178 3500
L 1178 0
L 603 0
L 603 3500
z
M 603 4863
L 1178 4863
L 1178 4134
L 603 4134
L 603 4863
z
" transform="scale(0.015625)"/>
       <path id="DejaVuSans-6d" d="M 3328 2828
Q 3544 3216 3844 3400
Q 4144 3584 4550 3584
Q 5097 3584 5394 3201
Q 5691 2819 5691 2113
L 5691 0
L 5113 0
L 5113 2094
Q 5113 2597 4934 2840
Q 4756 3084 4391 3084
Q 3944 3084 3684 2787
Q 3425 2491 3425 1978
L 3425 0
L 2847 0
L 2847 2094
Q 2847 2600 2669 2842
Q 2491 3084 2119 3084
Q 1678 3084 1418 2786
Q 1159 2488 1159 1978
L 1159 0
L 581 0
L 581 3500
L 1159 3500
L 1159 2956
Q 1356 3278 1631 3431
Q 1906 3584 2284 3584
Q 2666 3584 2933 3390
Q 3200 3197 3328 2828
z
" transform="scale(0.015625)"/>
       <path id="DejaVuSans-65" d="M 3597 1894
L 3597 1613
L 953 1613
Q 991 1019 1311 708
Q 1631 397 2203 397
Q 2534 397 2845 478
Q 3156 559 3463 722
L 3463 178
Q 3153 47 2828 -22
Q 2503 -91 2169 -91
Q 1331 -91 842 396
Q 353 884 353 1716
Q 353 2575 817 3079
Q 1281 3584 2069 3584
Q 2775 3584 3186 3129
Q 3597 2675 3597 1894
z
M 3022 2063
Q 3016 2534 2758 2815
Q 2500 3097 2075 3097
Q 1594 3097 1305 2825
Q 1016 2553 972 2059
L 3022 2063
z
" transform="scale(0.015625)"/>
       <path id="DejaVuSans-20" transform="scale(0.015625)"/>
       <path id="DejaVuSans-5b" d="M 550 4863
L 1875 4863
L 1875 4416
L 1125 4416
L 1125 -397
L 1875 -397
L 1875 -844
L 550 -844
L 550 4863
z
" transform="scale(0.015625)"/>
       <path id="DejaVuSans-73" d="M 2834 3397
L 2834 2853
Q 2591 2978 2328 3040
Q 2066 3103 1784 3103
Q 1356 3103 1142 2972
Q 928 2841 928 2578
Q 928 2378 1081 2264
Q 1234 2150 1697 2047
L 1894 2003
Q 2506 1872 2764 1633
Q 3022 1394 3022 966
Q 3022 478 2636 193
Q 2250 -91 1575 -91
Q 1294 -91 989 -36
Q 684 19 347 128
L 347 722
Q 666 556 975 473
Q 1284 391 1588 391
Q 1994 391 2212 530
Q 2431 669 2431 922
Q 2431 1156 2273 1281
Q 2116 1406 1581 1522
L 1381 1569
Q 847 1681 609 1914
Q 372 2147 372 2553
Q 372 3047 722 3315
Q 1072 3584 1716 3584
Q 2034 3584 2315 3537
Q 2597 3491 2834 3397
z
" transform="scale(0.015625)"/>
       <path id="DejaVuSans-5d" d="M 1947 4863
L 1947 -844
L 622 -844
L 622 -397
L 1369 -397
L 1369 4416
L 622 4416
L 622 4863
L 1947 4863
z
" transform="scale(0.015625)"/>
      </defs>
      <use xlink:href="#DejaVuSans-74"/>
      <use xlink:href="#DejaVuSans-69" x="39.208984"/>
      <use xlink:href="#DejaVuSans-6d" x="66.992188"/>
      <use xlink:href="#DejaVuSans-65" x="164.404297"/>
      <use xlink:href="#DejaVuSans-20" x="225.927734"/>
      <use xlink:href="#DejaVuSans-5b" x="257.714844"/>
      <use xlink:href="#DejaVuSans-73" x="296.728516"/>
      <use xlink:href="#DejaVuSans-5d" x="348.828125"/>
     </g>
    </g>
   </g>
   <g id="matplotlib.axis_2">
    <g id="ytick_1">
     <g id="line2d_17">
      <path d="M 66.8 276.477179
L 493.2 276.477179
" clip-path="url(#p4029cfc4eb)" style="fill: none; stroke: #b0b0b0; stroke-opacity: 0.3; stroke-width: 0.8; stroke-linecap: square"/>
     </g>
     <g id="line2d_18">
      <defs>
       <path id="mc622110a67" d="M 0 0
L -3.5 0
" style="stroke: #000000; stroke-width: 0.8"/>
      </defs>
      <g>
       <use xlink:href="#mc622110a67" x="66.8" y="276.477179" style="stroke: #000000; stroke-width: 0.8"/>
      </g>
     </g>
     <g id="text_10">
      <!-- 0.7996 -->
      <g transform="translate(24.809375 280.276398) scale(0.1 -0.1)">
       <defs>
        <path id="DejaVuSans-39" d="M 703 97
L 703 672
Q 941 559 1184 500
Q 1428 441 1663 441
Q 2288 441 2617 861
Q 2947 1281 2994 2138
Q 2813 1869 2534 1725
Q 2256 1581 1919 1581
Q 1219 1581 811 2004
Q 403 2428 403 3163
Q 403 3881 828 4315
Q 1253 4750 1959 4750
Q 2769 4750 3195 4129
Q 3622 3509 3622 2328
Q 3622 1225 3098 567
Q 2575 -91 1691 -91
Q 1453 -91 1209 -44
Q 966 3 703 97
z
M 1959 2075
Q 2384 2075 2632 2365
Q 2881 2656 2881 3163
Q 2881 3666 2632 3958
Q 2384 4250 1959 4250
Q 1534 4250 1286 3958
Q 1038 3666 1038 3163
Q 1038 2656 1286 2365
Q 1534 2075 1959 2075
z
" transform="scale(0.015625)"/>
        <path id="DejaVuSans-36" d="M 2113 2584
Q 1688 2584 1439 2293
Q 1191 2003 1191 1497
Q 1191 994 1439 701
Q 1688 409 2113 409
Q 2538 409 2786 701
Q 3034 994 3034 1497
Q 3034 2003 2786 2293
Q 2538 2584 2113 2584
z
M 3366 4563
L 3366 3988
Q 3128 4100 2886 4159
Q 2644 4219 2406 4219
Q 1781 4219 1451 3797
Q 1122 3375 1075 2522
Q 1259 2794 1537 2939
Q 1816 3084 2150 3084
Q 2853 3084 3261 2657
Q 3669 2231 3669 1497
Q 3669 778 3244 343
Q 2819 -91 2113 -91
Q 1303 -91 875 529
Q 447 1150 447 2328
Q 447 3434 972 4092
Q 1497 4750 2381 4750
Q 2619 4750 2861 4703
Q 3103 4656 3366 4563
z
" transform="scale(0.015625)"/>
       </defs>
       <use xlink:href="#DejaVuSans-30"/>
       <use xlink:href="#DejaVuSans-2e" x="63.623047"/>
       <use xlink:href="#DejaVuSans-37" x="95.410156"/>
       <use xlink:href="#DejaVuSans-39" x="159.033203"/>
       <use xlink:href="#DejaVuSans-39" x="222.65625"/>
       <use xlink:href="#DejaVuSans-36" x="286.279297"/>
      </g>
     </g>
    </g>
    <g id="ytick_2">
     <g id="line2d_19">
      <path d="M 66.8 219.727556
L 493.2 219.727556
" clip-path="url(#p4029cfc4eb)" style="fill: none; stroke: #b0b0b0; stroke-opacity: 0.3; stroke-width: 0.8; stroke-linecap: square"/>
     </g>
     <g id="line2d_20">
      <g>
       <use xlink:href="#mc622110a67" x="66.8" y="219.727556" style="stroke: #000000; stroke-width: 0.8"/>
      </g>
     </g>
     <g id="text_11">
      <!-- 0.7998 -->
      <g transform="translate(24.809375 223.526775) scale(0.1 -0.1)">
       <defs>
        <path id="DejaVuSans-38" d="M 2034 2216
Q 1584 2216 1326 1975
Q 1069 1734 1069 1313
Q 1069 891 1326 650
Q 1584 409 2034 409
Q 2484 409 2743 651
Q 3003 894 3003 1313
Q 3003 1734 2745 1975
Q 2488 2216 2034 2216
z
M 1403 2484
Q 997 2584 770 2862
Q 544 3141 544 3541
Q 544 4100 942 4425
Q 1341 4750 2034 4750
Q 2731 4750 3128 4425
Q 3525 4100 3525 3541
Q 3525 3141 3298 2862
Q 3072 2584 2669 2484
Q 3125 2378 3379 2068
Q 3634 1759 3634 1313
Q 3634 634 3220 271
Q 2806 -91 2034 -91
Q 1263 -91 848 271
Q 434 634 434 1313
Q 434 1759 690 2068
Q 947 2378 1403 2484
z
M 1172 3481
Q 1172 3119 1398 2916
Q 1625 2713 2034 2713
Q 2441 2713 2670 2916
Q 2900 3119 2900 3481
Q 2900 3844 2670 4047
Q 2441 4250 2034 4250
Q 1625 4250 1398 4047
Q 1172 3844 1172 3481
z
" transform="scale(0.015625)"/>
       </defs>
       <use xlink:href="#DejaVuSans-30"/>
       <use xlink:href="#DejaVuSans-2e" x="63.623047"/>
       <use xlink:href="#DejaVuSans-37" x="95.410156"/>
       <use xlink:href="#DejaVuSans-39" x="159.033203"/>
       <use xlink:href="#DejaVuSans-39" x="222.65625"/>
       <use xlink:href="#DejaVuSans-38" x="286.279297"/>
      </g>
     </g>
    </g>
    <g id="ytick_3">
     <g id="line2d_21">
      <path d="M 66.8 162.977933
L 493.2 162.977933
" clip-path="url(#p4029cfc4eb)" style="fill: none; stroke: #b0b0b0; stroke-opacity: 0.3; stroke-width: 0.8; stroke-linecap: square"/>
     </g>
     <g id="line2d_22">
      <g>
       <use xlink:href="#mc622110a67" x="66.8" y="162.977933" style="stroke: #000000; stroke-width: 0.8"/>
      </g>
     </g>
     <g id="text_12">
      <!-- 0.8000 -->
      <g transform="translate(24.809375 166.777152) scale(0.1 -0.1)">
       <use xlink:href="#DejaVuSans-30"/>
       <use xlink:href="#DejaVuSans-2e" x="63.623047"/>
       <use xlink:href="#DejaVuSans-38" x="95.410156"/>
       <use xlink:href="#DejaVuSans-30" x="159.033203"/>
       <use xlink:href="#DejaVuSans-30" x="222.65625"/>
       <use xlink:href="#DejaVuSans-30" x="286.279297"/>
      </g>
     </g>
    </g>
    <g id="ytick_4">
     <g id="line2d_23">
      <path d="M 66.8 106.22831
L 493.2 106.22831
" clip-path="url(#p4029cfc4eb)" style="fill: none; stroke: #b0b0b0; stroke-opacity: 0.3; stroke-width: 0.8; stroke-linecap: square"/>
     </g>
     <g id="line2d_24">
      <g>
       <use xlink:href="#mc622110a67" x="66.8" y="106.22831" style="stroke: #000000; stroke-width: 0.8"/>
      </g>
     </g>
     <g id="text_13">
      <!-- 0.8002 -->
      <g transform="translate(24.809375 110.027529) scale(0.1 -0.1)">
       <use xlink:href="#DejaVuSans-30"/>
       <use xlink:href="#DejaVuSans-2e" x="63.623047"/>
       <use xlink:href="#DejaVuSans-38" x="95.410156"/>
       <use xlink:href="#DejaVuSans-30" x="159.033203"/>
       <use xlink:href="#DejaVuSans-30" x="222.65625"/>
       <use xlink:href="#DejaVuSans-32" x="286.279297"/>
      </g>
     </g>
    </g>
    <g id="ytick_5">
     <g id="line2d_25">
      <path d="M 66.8 49.478687
L 493.2 49.478687
" clip-path="url(#p4029cfc4eb)" style="fill: none; stroke: #b0b0b0; stroke-opacity: 0.3; stroke-width: 0.8; stroke-linecap: square"/>
     </g>
     <g id="line2d_26">
      <g>
       <use xlink:href="#mc622110a67" x="66.8" y="49.478687" style="stroke: #000000; stroke-width: 0.8"/>
      </g>
     </g>
     <g id="text_14">
      <!-- 0.8004 -->
      <g transform="translate(24.809375 53.277906) scale(0.1 -0.1)">
       <defs>
        <path id="DejaVuSans-34" d="M 2419 4116
L 825 1625
L 2419 1625
L 2419 4116
z
M 2253 4666
L 3047 4666
L 3047 1625
L 3713 1625
L 3713 1100
L 3047 1100
L 3047 0
L 2419 0
L 2419 1100
L 313 1100
L 313 1709
L 2253 4666
z
" transform="scale(0.015625)"/>
       </defs>
       <use xlink:href="#DejaVuSans-30"/>
       <use xlink:href="#DejaVuSans-2e" x="63.623047"/>
       <use xlink:href="#DejaVuSans-38" x="95.410156"/>
       <use xlink:href="#DejaVuSans-30" x="159.033203"/>
       <use xlink:href="#DejaVuSans-30" x="222.65625"/>
       <use xlink:href="#DejaVuSans-34" x="286.279297"/>
      </g>
     </g>
    </g>
    <g id="text_15">
     <!-- void ratio e -->
     <g transform="translate(18.729688 174.784844) rotate(-90) scale(0.1 -0.1)">
      <defs>
       <path id="DejaVuSans-76" d="M 191 3500
L 800 3500
L 1894 563
L 2988 3500
L 3597 3500
L 2284 0
L 1503 0
L 191 3500
z
" transform="scale(0.015625)"/>
       <path id="DejaVuSans-6f" d="M 1959 3097
Q 1497 3097 1228 2736
Q 959 2375 959 1747
Q 959 1119 1226 758
Q 1494 397 1959 397
Q 2419 397 2687 759
Q 2956 1122 2956 1747
Q 2956 2369 2687 2733
Q 2419 3097 1959 3097
z
M 1959 3584
Q 2709 3584 3137 3096
Q 3566 2609 3566 1747
Q 3566 888 3137 398
Q 2709 -91 1959 -91
Q 1206 -91 779 398
Q 353 888 353 1747
Q 353 2609 779 3096
Q 1206 3584 1959 3584
z
" transform="scale(0.015625)"/>
       <path id="DejaVuSans-64" d="M 2906 2969
L 2906 4863
L 3481 4863
L 3481 0
L 2906 0
L 2906 525
Q 2725 213 2448 61
Q 2172 -91 1784 -91
Q 1150 -91 751 415
Q 353 922 353 1747
Q 353 2572 751 3078
Q 1150 3584 1784 3584
Q 2172 3584 2448 3432
Q 2725 3281 2906 2969
z
M 947 1747
Q 947 1113 1208 752
Q 1469 391 1925 391
Q 2381 391 2643 752
Q 2906 1113 2906 1747
Q 2906 2381 2643 2742
Q 2381 3103 1925 3103
Q 1469 3103 1208 2742
Q 947 2381 947 1747
z
" transform="scale(0.015625)"/>
       <path id="DejaVuSans-72" d="M 2631 2963
Q 2534 3019 2420 3045
Q 2306 3072 2169 3072
Q 1681 3072 1420 2755
Q 1159 2438 1159 1844
L 1159 0
L 581 0
L 581 3500
L 1159 3500
L 1159 2956
Q 1341 3275 1631 3429
Q 1922 3584 2338 3584
Q 2397 3584 2469 3576
Q 2541 3569 2628 3553
L 2631 2963
z
" transform="scale(0.015625)"/>
       <path id="DejaVuSans-61" d="M 2194 1759
Q 1497 1759 1228 1600
Q 959 1441 959 1056
Q 959 750 1161 570
Q 1363 391 1709 391
Q 2188 391 2477 730
Q 2766 1069 2766 1631
L 2766 1759
L 2194 1759
z
M 3341 1997
L 3341 0
L 2766 0
L 2766 531
Q 2569 213 2275 61
Q 1981 -91 1556 -91
Q 1019 -91 701 211
Q 384 513 384 1019
Q 384 1609 779 1909
Q 1175 2209 1959 2209
L 2766 2209
L 2766 2266
Q 2766 2663 2505 2880
Q 2244 3097 1772 3097
Q 1472 3097 1187 3025
Q 903 2953 641 2809
L 641 3341
Q 956 3463 1253 3523
Q 1550 3584 1831 3584
Q 2591 3584 2966 3190
Q 3341 2797 3341 1997
z
" transform="scale(0.015625)"/>
      </defs>
      <use xlink:href="#DejaVuSans-76"/>
      <use xlink:href="#DejaVuSans-6f" x="59.179688"/>
      <use xlink:href="#DejaVuSans-69" x="120.361328"/>
      <use xlink:href="#DejaVuSans-64" x="148.144531"/>
      <use xlink:href="#DejaVuSans-20" x="211.621094"/>
      <use xlink:href="#DejaVuSans-72" x="243.408203"/>
      <use xlink:href="#DejaVuSans-61" x="284.521484"/>
      <use xlink:href="#DejaVuSans-74" x="345.800781"/>
      <use xlink:href="#DejaVuSans-69" x="385.009766"/>
      <use xlink:href="#DejaVuSans-6f" x="412.792969"/>
      <use xlink:href="#DejaVuSans-20" x="473.974609"/>
      <use xlink:href="#DejaVuSans-65" x="505.761719"/>
     </g>
    </g>
   </g>
   <g id="line2d_27">
    <path d="M 86.181818 162.975096
L 96.95604 158.012264
L 107.708842 154.283912
L 118.483063 156.893425
L 129.257285 162.056135
L 140.010087 168.514152
L 150.784309 174.674951
L 161.558531 178.003734
L 172.332752 179.07
L 183.085554 180.116263
L 193.859776 183.085259
L 204.633998 187.952864
L 215.386799 193.313298
L 226.161021 197.804403
L 236.935243 200.86463
L 247.688045 202.830684
L 258.462266 204.683315
L 269.236488 207.30086
L 279.98929 210.843598
L 290.763512 214.774088
L 301.537734 218.440762
L 312.311955 221.611344
L 323.064757 224.502765
L 333.838979 227.495171
L 344.613201 230.81029
L 355.366002 234.368115
L 366.140224 237.906524
L 376.914446 241.206675
L 387.667248 244.219522
L 398.441469 247.077946
L 409.215691 249.982865
L 419.989913 253.090485
L 430.742715 256.420196
L 441.516937 259.860952
L 452.291158 263.269757
L 463.04396 266.555937
L 473.818182 269.710909
" clip-path="url(#p4029cfc4eb)" style="fill: none; stroke: #1f77b4; stroke-width: 1.5; stroke-linecap: square"/>
    <defs>
     <path id="mb28199adcf" d="M 0 3
C 0.795609 3 1.55874 2.683901 2.12132 2.12132
C 2.683901 1.55874 3 0.795609 3 0
C 3 -0.795609 2.683901 -1.55874 2.12132 -2.12132
C 1.55874 -2.683901 0.795609 -3 0 -3
C -0.795609 -3 -1.55874 -2.683901 -2.12132 -2.12132
C -2.683901 -1.55874 -3 -0.795609 -3 0
C -3 0.795609 -2.683901 1.55874 -2.12132 2.12132
C -1.55874 2.683901 -0.795609 3 0 3
z
" style="stroke: #1f77b4"/>
    </defs>
    <g clip-path="url(#p4029cfc4eb)">
     <use xlink:href="#mb28199adcf" x="86.181818" y="162.975096" style="fill: #1f77b4; stroke: #1f77b4"/>
     <use xlink:href="#mb28199adcf" x="96.95604" y="158.012264" style="fill: #1f77b4; stroke: #1f77b4"/>
     <use xlink:href="#mb28199adcf" x="107.708842" y="154.283912" style="fill: #1f77b4; stroke: #1f77b4"/>
     <use xlink:href="#mb28199adcf" x="118.483063" y="156.893425" style="fill: #1f77b4; stroke: #1f77b4"/>
     <use xlink:href="#mb28199adcf" x="129.257285" y="162.056135" style="fill: #1f77b4; stroke: #1f77b4"/>
     <use xlink:href="#mb28199adcf" x="140.010087" y="168.514152" style="fill: #1f77b4; stroke: #1f77b4"/>
     <use xlink:href="#mb28199adcf" x="150.784309" y="174.674951" style="fill: #1f77b4; stroke: #1f77b4"/>
     <use xlink:href="#mb28199adcf" x="161.558531" y="178.003734" style="fill: #1f77b4; stroke: #1f77b4"/>
     <use xlink:href="#mb28199adcf" x="172.332752" y="179.07" style="fill: #1f77b4; stroke: #1f77b4"/>
     <use xlink:href="#mb28199adcf" x="183.085554" y="180.116263" style="fill: #1f77b4; stroke: #1f77b4"/>
     <use xlink:href="#mb28199adcf" x="193.859776" y="183.085259" style="fill: #1f77b4; stroke: #1f77b4"/>
     <use xlink:href="#mb28199adcf" x="204.633998" y="187.952864" style="fill: #1f77b4; stroke: #1f77b4"/>
     <use xlink:href="#mb28199adcf" x="215.386799" y="193.313298" style="fill: #1f77b4; stroke: #1f77b4"/>
     <use xlink:href="#mb28199adcf" x="226.161021" y="197.804403" style="fill: #1f77b4; stroke: #1f77b4"/>
     <use xlink:href="#mb28199adcf" x="236.935243" y="200.86463" style="fill: #1f77b4; stroke: #1f77b4"/>
     <use xlink:href="#mb28199adcf" x="247.688045" y="202.830684" style="fill: #1f77b4; stroke: #1f77b4"/>
     <use xlink:href="#mb28199adcf" x="258.462266" y="204.683315" style="fill: #1f77b4; stroke: #1f77b4"/>
     <use xlink:href="#mb28199adcf" x="269.236488" y="207.30086" style="fill: #1f77b4; stroke: #1f77b4"/>
     <use xlink:href="#mb28199adcf" x="279.98929" y="210.843598" style="fill: #1f77b4; stroke: #1f77b4"/>
     <use xlink:href="#mb28199adcf" x="290.763512" y="214.774088" style="fill: #1f77b4; stroke: #1f77b4"/>
     <use xlink:href="#mb28199adcf" x="301.537734" y="218.440762" style="fill: #1f77b4; stroke: #1f77b4"/>
     <use xlink:href="#mb28199adcf" x="312.311955" y="221.611344" style="fill: #1f77b4; stroke: #1f77b4"/>
     <use xlink:href="#mb28199adcf" x="323.064757" y="224.502765" style="fill: #1f77b4; stroke: #1f77b4"/>
     <use xlink:href="#mb28199adcf" x="333.838979" y="227.495171" style="fill: #1f77b4; stroke: #1f77b4"/>
     <use xlink:href="#mb28199adcf" x="344.613201" y="230.81029" style="fill: #1f77b4; stroke: #1f77b4"/>
     <use xlink:href="#mb28199adcf" x="355.366002" y="234.368115" style="fill: #1f77b4; stroke: #1f77b4"/>
     <use xlink:href="#mb28199adcf" x="366.140224" y="237.906524" style="fill: #1f77b4; stroke: #1f77b4"/>
     <use xlink:href="#mb28199adcf" x="376.914446" y="241.206675" style="fill: #1f77b4; stroke: #1f77b4"/>
     <use xlink:href="#mb28199adcf" x="387.667248" y="244.219522" style="fill: #1f77b4; stroke: #1f77b4"/>
     <use xlink:href="#mb28199adcf" x="398.441469" y="247.077946" style="fill: #1f77b4; stroke: #1f77b4"/>
     <use xlink:href="#mb28199adcf" x="409.215691" y="249.982865" style="fill: #1f77b4; stroke: #1f77b4"/>
     <use xlink:href="#mb28199adcf" x="419.989913" y="253.090485" style="fill: #1f77b4; stroke: #1f77b4"/>
     <use xlink:href="#mb28199adcf" x="430.742715" y="256.420196" style="fill: #1f77b4; stroke: #1f77b4"/>
     <use xlink:href="#mb28199adcf" x="441.516937" y="259.860952" style="fill: #1f77b4; stroke: #1f77b4"/>
     <use xlink:href="#mb28199adcf" x="452.291158" y="263.269757" style="fill: #1f77b4; stroke: #1f77b4"/>
     <use xlink:href="#mb28199adcf" x="463.04396" y="266.555937" style="fill: #1f77b4; stroke: #1f77b4"/>
     <use xlink:href="#mb28199adcf" x="473.818182" y="269.710909" style="fill: #1f77b4; stroke: #1f77b4"/>
    </g>
   </g>
   <g id="line2d_28">
    <path d="M 86.181818 162.975096
L 96.95604 158.012264
L 107.708842 154.246564
L 118.483063 156.2829
L 129.257285 159.440305
L 140.010087 162.169648
L 150.784309 163.173378
L 161.558531 160.647845
L 172.311332 155.5471
L 183.085554 149.875777
L 193.859776 144.812295
L 204.612578 140.469255
L 215.386799 136.388274
L 226.161021 132.128657
L 236.913823 127.539704
L 247.688045 122.63602
L 258.462266 117.875138
L 269.215068 113.27639
L 279.98929 108.947572
L 290.763512 104.923271
L 301.516314 101.049558
L 312.290535 96.905079
L 323.064757 92.388206
L 333.817559 87.666631
L 344.591781 82.833055
L 355.344582 77.957014
L 366.118804 73.060121
L 376.893026 68.140034
L 387.645828 63.203402
L 398.42005 58.230357
L 409.194271 53.211718
L 419.947073 48.169109
L 430.721295 43.154639
L 441.495517 38.140203
L 452.248318 33.156491
L 463.02254 28.146824
L 473.796762 23.129091
" clip-path="url(#p4029cfc4eb)" style="fill: none; stroke: #ff7f0e; stroke-width: 1.5; stroke-linecap: square"/>
    <defs>
     <path id="ma6ee07dd69" d="M 0 3
C 0.795609 3 1.55874 2.683901 2.12132 2.12132
C 2.683901 1.55874 3 0.795609 3 0
C 3 -0.795609 2.683901 -1.55874 2.12132 -2.12132
C 1.55874 -2.683901 0.795609 -3 0 -3
C -0.795609 -3 -1.55874 -2.683901 -2.12132 -2.12132
C -2.683901 -1.55874 -3 -0.795609 -3 0
C -3 0.795609 -2.683901 1.55874 -2.12132 2.12132
C -1.55874 2.683901 -0.795609 3 0 3
z
" style="stroke: #ff7f0e"/>
    </defs>
    <g clip-path="url(#p4029cfc4eb)">
     <use xlink:href="#ma6ee07dd69" x="86.181818" y="162.975096" style="fill: #ff7f0e; stroke: #ff7f0e"/>
     <use xlink:href="#ma6ee07dd69" x="96.95604" y="158.012264" style="fill: #ff7f0e; stroke: #ff7f0e"/>
     <use xlink:href="#ma6ee07dd69" x="107.708842" y="154.246564" style="fill: #ff7f0e; stroke: #ff7f0e"/>
     <use xlink:href="#ma6ee07dd69" x="118.483063" y="156.2829" style="fill: #ff7f0e; stroke: #ff7f0e"/>
     <use xlink:href="#ma6ee07dd69" x="129.257285" y="159.440305" style="fill: #ff7f0e; stroke: #ff7f0e"/>
     <use xlink:href="#ma6ee07dd69" x="140.010087" y="162.169648" style="fill: #ff7f0e; stroke: #ff7f0e"/>
     <use xlink:href="#ma6ee07dd69" x="150.784309" y="163.173378" style="fill: #ff7f0e; stroke: #ff7f0e"/>
     <use xlink:href="#ma6ee07dd69" x="161.558531" y="160.647845" style="fill: #ff7f0e; stroke: #ff7f0e"/>
     <use xlink:href="#ma6ee07dd69" x="172.311332" y="155.5471" style="fill: #ff7f0e; stroke: #ff7f0e"/>
     <use xlink:href="#ma6ee07dd69" x="183.085554" y="149.875777" style="fill: #ff7f0e; stroke: #ff7f0e"/>
     <use xlink:href="#ma6ee07dd69" x="193.859776" y="144.812295" style="fill: #ff7f0e; stroke: #ff7f0e"/>
     <use xlink:href="#ma6ee07dd69" x="204.612578" y="140.469255" style="fill: #ff7f0e; stroke: #ff7f0e"/>
     <use xlink:href="#ma6ee07dd69" x="215.386799" y="136.388274" style="fill: #ff7f0e; stroke: #ff7f0e"/>
     <use xlink:href="#ma6ee07dd69" x="226.161021" y="132.128657" style="fill: #ff7f0e; stroke: #ff7f0e"/>
     <use xlink:href="#ma6ee07dd69" x="236.913823" y="127.539704" style="fill: #ff7f0e; stroke: #ff7f0e"/>
     <use xlink:href="#ma6ee07dd69" x="247.688045" y="122.63602" style="fill: #ff7f0e; stroke: #ff7f0e"/>
     <use xlink:href="#ma6ee07dd69" x="258.462266" y="117.875138" style="fill: #ff7f0e; stroke: #ff7f0e"/>
     <use xlink:href="#ma6ee07dd69" x="269.215068" y="113.27639" style="fill: #ff7f0e; stroke: #ff7f0e"/>
     <use xlink:href="#ma6ee07dd69" x="279.98929" y="108.947572" style="fill: #ff7f0e; stroke: #ff7f0e"/>
     <use xlink:href="#ma6ee07dd69" x="290.763512" y="104.923271" style="fill: #ff7f0e; stroke: #ff7f0e"/>
     <use xlink:href="#ma6ee07dd69" x="301.516314" y="101.049558" style="fill: #ff7f0e; stroke: #ff7f0e"/>
     <use xlink:href="#ma6ee07dd69" x="312.290535" y="96.905079" style="fill: #ff7f0e; stroke: #ff7f0e"/>
     <use xlink:href="#ma6ee07dd69" x="323.064757" y="92.388206" style="fill: #ff7f0e; stroke: #ff7f0e"/>
     <use xlink:href="#ma6ee07dd69" x="333.817559" y="87.666631" style="fill: #ff7f0e; stroke: #ff7f0e"/>
     <use xlink:href="#ma6ee07dd69" x="344.591781" y="82.833055" style="fill: #ff7f0e; stroke: #ff7f0e"/>
     <use xlink:href="#ma6ee07dd69" x="355.344582" y="77.957014" style="fill: #ff7f0e; stroke: #ff7f0e"/>
     <use xlink:href="#ma6ee07dd69" x="366.118804" y="73.060121" style="fill: #ff7f0e; stroke: #ff7f0e"/>
     <use xlink:href="#ma6ee07dd69" x="376.893026" y="68.140034" style="fill: #ff7f0e; stroke: #ff7f0e"/>
     <use xlink:href="#ma6ee07dd69" x="387.645828" y="63.203402" style="fill: #ff7f0e; stroke: #ff7f0e"/>
     <use xlink:href="#ma6ee07dd69" x="398.42005" y="58.230357" style="fill: #ff7f0e; stroke: #ff7f0e"/>
     <use xlink:href="#ma6ee07dd69" x="409.194271" y="53.211718" style="fill: #ff7f0e; stroke: #ff7f0e"/>
     <use xlink:href="#ma6ee07dd69" x="419.947073" y="48.169109" style="fill: #ff7f0e; stroke: #ff7f0e"/>
     <use xlink:href="#ma6ee07dd69" x="430.721295" y="43.154639" style="fill: #ff7f0e; stroke: #ff7f0e"/>
     <use xlink:href="#ma6ee07dd69" x="441.495517" y="38.140203" style="fill: #ff7f0e; stroke: #ff7f0e"/>
     <use xlink:href="#ma6ee07dd69" x="452.248318" y="33.156491" style="fill: #ff7f0e; stroke: #ff7f0e"/>
     <use xlink:href="#ma6ee07dd69" x="463.02254" y="28.146824" style="fill: #ff7f0e; stroke: #ff7f0e"/>
     <use xlink:href="#ma6ee07dd69" x="473.796762" y="23.129091" style="fill: #ff7f0e; stroke: #ff7f0e"/>
    </g>
   </g>
   <g id="patch_3">
    <path d="M 66.8 282.04
L 66.8 10.8
" style="fill: none; stroke: #000000; stroke-width: 0.8; stroke-linejoin: miter; stroke-linecap: square"/>
   </g>
   <g id="patch_4">
    <path d="M 493.2 282.04
L 493.2 10.8
" style="fill: none; stroke: #000000; stroke-width: 0.8; stroke-linejoin: miter; stroke-linecap: square"/>
   </g>
   <g id="patch_5">
    <path d="M 66.8 282.04
L 493.2 282.04
" style="fill: none; stroke: #000000; stroke-width: 0.8; stroke-linejoin: miter; stroke-linecap: square"/>
   </g>
   <g id="patch_6">
    <path d="M 66.8 10.8
L 493.2 10.8
" style="fill: none; stroke: #000000; stroke-width: 0.8; stroke-linejoin: miter; stroke-linecap: square"/>
   </g>
   <g id="legend_1">
    <g id="patch_7">
     <path d="M 73.8 48.7125
L 182.159375 48.7125
Q 184.159375 48.7125 184.159375 46.7125
L 184.159375 17.8
Q 184.159375 15.8 182.159375 15.8
L 73.8 15.8
Q 71.8 15.8 71.8 17.8
L 71.8 46.7125
Q 71.8 48.7125 73.8 48.7125
z
" style="fill: #ffffff; opacity: 0.8; stroke: #cccccc; stroke-linejoin: miter"/>
    </g>
    <g id="line2d_29">
     <path d="M 75.8 23.898438
L 85.8 23.898438
L 95.8 23.898438
" style="fill: none; stroke: #1f77b4; stroke-width: 1.5; stroke-linecap: square"/>
     <g>
      <use xlink:href="#mb28199adcf" x="85.8" y="23.898438" style="fill: #1f77b4; stroke: #1f77b4"/>
     </g>
    </g>
    <g id="text_16">
     <!-- mcc_high_pc -->
     <g transform="translate(103.8 27.398438) scale(0.1 -0.1)">
      <defs>
       <path id="DejaVuSans-63" d="M 3122 3366
L 3122 2828
Q 2878 2963 2633 3030
Q 2388 3097 2138 3097
Q 1578 3097 1268 2742
Q 959 2388 959 1747
Q 959 1106 1268 751
Q 1578 397 2138 397
Q 2388 397 2633 464
Q 2878 531 3122 666
L 3122 134
Q 2881 22 2623 -34
Q 2366 -91 2075 -91
Q 1284 -91 818 406
Q 353 903 353 1747
Q 353 2603 823 3093
Q 1294 3584 2113 3584
Q 2378 3584 2631 3529
Q 2884 3475 3122 3366
z
" transform="scale(0.015625)"/>
       <path id="DejaVuSans-5f" d="M 3263 -1063
L 3263 -1509
L -63 -1509
L -63 -1063
L 3263 -1063
z
" transform="scale(0.015625)"/>
       <path id="DejaVuSans-68" d="M 3513 2113
L 3513 0
L 2938 0
L 2938 2094
Q 2938 2591 2744 2837
Q 2550 3084 2163 3084
Q 1697 3084 1428 2787
Q 1159 2491 1159 1978
L 1159 0
L 581 0
L 581 4863
L 1159 4863
L 1159 2956
Q 1366 3272 1645 3428
Q 1925 3584 2291 3584
Q 2894 3584 3203 3211
Q 3513 2838 3513 2113
z
" transform="scale(0.015625)"/>
       <path id="DejaVuSans-67" d="M 2906 1791
Q 2906 2416 2648 2759
Q 2391 3103 1925 3103
Q 1463 3103 1205 2759
Q 947 2416 947 1791
Q 947 1169 1205 825
Q 1463 481 1925 481
Q 2391 481 2648 825
Q 2906 1169 2906 1791
z
M 3481 434
Q 3481 -459 3084 -895
Q 2688 -1331 1869 -1331
Q 1566 -1331 1297 -1286
Q 1028 -1241 775 -1147
L 775 -588
Q 1028 -725 1275 -790
Q 1522 -856 1778 -856
Q 2344 -856 2625 -561
Q 2906 -266 2906 331
L 2906 616
Q 2728 306 2450 153
Q 2172 0 1784 0
Q 1141 0 747 490
Q 353 981 353 1791
Q 353 2603 747 3093
Q 1141 3584 1784 3584
Q 2172 3584 2450 3431
Q 2728 3278 2906 2969
L 2906 3500
L 3481 3500
L 3481 434
z
" transform="scale(0.015625)"/>
       <path id="DejaVuSans-70" d="M 1159 525
L 1159 -1331
L 581 -1331
L 581 3500
L 1159 3500
L 1159 2969
Q 1341 3281 1617 3432
Q 1894 3584 2278 3584
Q 2916 3584 3314 3078
Q 3713 2572 3713 1747
Q 3713 922 3314 415
Q 2916 -91 2278 -91
Q 1894 -91 1617 61
Q 1341 213 1159 525
z
M 3116 1747
Q 3116 2381 2855 2742
Q 2594 3103 2138 3103
Q 1681 3103 1420 2742
Q 1159 2381 1159 1747
Q 1159 1113 1420 752
Q 1681 391 2138 391
Q 2594 391 2855 752
Q 3116 1113 3116 1747
z
" transform="scale(0.015625)"/>
      </defs>
      <use xlink:href="#DejaVuSans-6d"/>
      <use xlink:href="#DejaVuSans-63" x="97.412109"/>
      <use xlink:href="#DejaVuSans-63" x="152.392578"/>
      <use xlink:href="#DejaVuSans-5f" x="207.373047"/>
      <use xlink:href="#DejaVuSans-68" x="257.373047"/>
      <use xlink:href="#DejaVuSans-69" x="320.751953"/>
      <use xlink:href="#DejaVuSans-67" x="348.535156"/>
      <use xlink:href="#DejaVuSans-68" x="412.011719"/>
      <use xlink:href="#DejaVuSans-5f" x="475.390625"/>
      <use xlink:href="#DejaVuSans-70" x="525.390625"/>
      <use xlink:href="#DejaVuSans-63" x="588.867188"/>
     </g>
    </g>
    <g id="line2d_30">
     <path d="M 75.8 38.854688
L 85.8 38.854688
L 95.8 38.854688
" style="fill: none; stroke: #ff7f0e; stroke-width: 1.5; stroke-linecap: square"/>
     <g>
      <use xlink:href="#ma6ee07dd69" x="85.8" y="38.854688" style="fill: #ff7f0e; stroke: #ff7f0e"/>
     </g>
    </g>
    <g id="text_17">
     <!-- mcc_mild_yield -->
     <g transform="translate(103.8 42.354688) scale(0.1 -0.1)">
      <defs>
       <path id="DejaVuSans-6c" d="M 603 4863
L 1178 4863
L 1178 0
L 603 0
L 603 4863
z
" transform="scale(0.015625)"/>
       <path id="DejaVuSans-79" d="M 2059 -325
Q 1816 -950 1584 -1140
Q 1353 -1331 966 -1331
L 506 -1331
L 506 -850
L 844 -850
Q 1081 -850 1212 -737
Q 1344 -625 1503 -206
L 1606 56
L 191 3500
L 800 3500
L 1894 763
L 2988 3500
L 3597 3500
L 2059 -325
z
" transform="scale(0.015625)"/>
      </defs>
      <use xlink:href="#DejaVuSans-6d"/>
      <use xlink:href="#DejaVuSans-63" x="97.412109"/>
      <use xlink:href="#DejaVuSans-63" x="152.392578"/>
      <use xlink:href="#DejaVuSans-5f" x="207.373047"/>
      <use xlink:href="#DejaVuSans-6d" x="257.373047"/>
      <use xlink:href="#DejaVuSans-69" x="354.785156"/>
      <use xlink:href="#DejaVuSans-6c" x="382.568359"/>
      <use xlink:href="#DejaVuSans-64" x="410.351562"/>
      <use xlink:href="#DejaVuSans-5f" x="473.828125"/>
      <use xlink:href="#DejaVuSans-79" x="523.828125"/>
      <use xlink:href="#DejaVuSans-69" x="583.007812"/>
      <use xlink:href="#DejaVuSans-65" x="610.791016"/>
      <use xlink:href="#DejaVuSans-6c" x="672.314453"/>
      <use xlink:href="#DejaVuSans-64" x="700.097656"/>
     </g>
    </g>
   </g>
  </g>
 </g>
 <defs>
  <clipPath id="p4029cfc4eb">
   <rect x="66.8" y="10.8" width="426.4" height="271.24"/>
  </clipPath>
 </defs>
</svg>
