<?xml version="1.0" encoding="utf-8" standalone="no"?>
<!DOCTYPE svg PUBLIC "-//W3C//DTD SVG 1.1//EN"
  "http://www.w3.org/Graphics/SVG/1.1/DTD/svg11.dtd">
<svg xmlns:xlink="http://www.w3.org/1999/xlink" width="504pt" height="324pt" viewBox="0 0 504 324" xmlns="http://www.w3.org/2000/svg" version="1.1">
 <metadata>
  <rdf:RDF xmlns:dc="http://purl.org/dc/elements/1.1/" xmlns:cc="http://creativecommons.org/ns#" xmlns:rdf="http://www.w3.org/1999/02/22-rdf-syntax-ns#">
   <cc:Work>
    <dc:type rdf:resource="http://purl.org/dc/dcmitype/StillImage"/>
    <dc:date>2026-05-14T04:47:55.747852</dc:date>
    <dc:format>image/svg+xml</dc:format>
    <dc:creator>
     <cc:Agent>
      <dc:title>Matplotlib v3.9.4, https://matplotlib.org/</dc:title>
     </cc:Agent>
    </dc:creator>
   </cc:Work>
  </rdf:RDF>
 </metadata>
 <defs>
  <style type="text/css">*{stroke-linejoin: round; stroke-linecap: butt}</style>
 </defs>
 <g id="figure_1">
  <g id="patch_1">
   <path d="M 0 324
L 504 324
L 504 0
L 0 0
z
" style="fill: #ffffff"/>
  </g>
  <g id="axes_1">
   <g id="patch_2">
    <path d="M 60.59 282.04
L 493.2 282.04
L 493.2 10.8
L 60.59 10.8
z
" style="fill: #ffffff"/>
   </g>
   <g id="matplotlib.axis_1">
    <g id="xtick_1">
     <g id="line2d_1">
      <path d="M 80.254091 282.04
L 80.254091 10.8
" clip-path="url(#p54ef50f567)" style="fill: none; stroke: #b0b0b0; stroke-opacity: 0.3; stroke-width: 0.8; stroke-linecap: square"/>
     </g>
     <g id="line2d_2">
      <defs>
       <path id="m0b4faf72f9" d="M 0 0
L 0 3.5
" style="stroke: #000000; stroke-width: 0.8"/>
      </defs>
      <g>
       <use xlink:href="#m0b4faf72f9" x="80.254091" y="282.04" style="stroke: #000000; stroke-width: 0.8"/>
      </g>
     </g>
     <g id="text_1">
      <!-- 0.000 -->
      <g transform="translate(65.940028 296.638438) scale(0.1 -0.1)">
       <defs>
        <path id="DejaVuSans-30" d="M 2034 4250
Q 1547 4250 1301 3770
Q 1056 3291 1056 2328
Q 1056 1369 1301 889
Q 1547 409 2034 409
Q 2525 409 2770 889
Q 3016 1369 3016 2328
Q 3016 3291 2770 3770
Q 2525 4250 2034 4250
z
M 2034 4750
Q 2819 4750 3233 4129
Q 3647 3509 3647 2328
Q 3647 1150 3233 529
Q 2819 -91 2034 -91
Q 1250 -91 836 529
Q 422 1150 422 2328
Q 422 3509 836 4129
Q 1250 4750 2034 4750
z
" transform="scale(0.015625)"/>
        <path id="DejaVuSans-2e" d="M 684 794
L 1344 794
L 1344 0
L 684 0
L 684 794
z
" transform="scale(0.015625)"/>
       </defs>
       <use xlink:href="#DejaVuSans-30"/>
       <use xlink:href="#DejaVuSans-2e" x="63.623047"/>
       <use xlink:href="#DejaVuSans-30" x="95.410156"/>
       <use xlink:href="#DejaVuSans-30" x="159.033203"/>
       <use xlink:href="#DejaVuSans-30" x="222.65625"/>
      </g>
     </g>
    </g>
    <g id="xtick_2">
     <g id="line2d_3">
      <path d="M 134.735821 282.04
L 134.735821 10.8
" clip-path="url(#p54ef50f567)" style="fill: none; stroke: #b0b0b0; stroke-opacity: 0.3; stroke-width: 0.8; stroke-linecap: square"/>
     </g>
     <g id="line2d_4">
      <g>
       <use xlink:href="#m0b4faf72f9" x="134.735821" y="282.04" style="stroke: #000000; stroke-width: 0.8"/>
      </g>
     </g>
     <g id="text_2">
      <!-- 0.005 -->
      <g transform="translate(120.421759 296.638438) scale(0.1 -0.1)">
       <defs>
        <path id="DejaVuSans-35" d="M 691 4666
L 3169 4666
L 3169 4134
L 1269 4134
L 1269 2991
Q 1406 3038 1543 3061
Q 1681 3084 1819 3084
Q 2600 3084 3056 2656
Q 3513 2228 3513 1497
Q 3513 744 3044 326
Q 2575 -91 1722 -91
Q 1428 -91 1123 -41
Q 819 9 494 109
L 494 744
Q 775 591 1075 516
Q 1375 441 1709 441
Q 2250 441 2565 725
Q 2881 1009 2881 1497
Q 2881 1984 2565 2268
Q 2250 2553 1709 2553
Q 1456 2553 1204 2497
Q 953 2441 691 2322
L 691 4666
z
" transform="scale(0.015625)"/>
       </defs>
       <use xlink:href="#DejaVuSans-30"/>
       <use xlink:href="#DejaVuSans-2e" x="63.623047"/>
       <use xlink:href="#DejaVuSans-30" x="95.410156"/>
       <use xlink:href="#DejaVuSans-30" x="159.033203"/>
       <use xlink:href="#DejaVuSans-35" x="222.65625"/>
      </g>
     </g>
    </g>
    <g id="xtick_3">
     <g id="line2d_5">
      <path d="M 189.217551 282.04
L 189.217551 10.8
" clip-path="url(#p54ef50f567)" style="fill: none; stroke: #b0b0b0; stroke-opacity: 0.3; stroke-width: 0.8; stroke-linecap: square"/>
     </g>
     <g id="line2d_6">
      <g>
       <use xlink:href="#m0b4faf72f9" x="189.217551" y="282.04" style="stroke: #000000; stroke-width: 0.8"/>
      </g>
     </g>
     <g id="text_3">
      <!-- 0.010 -->
      <g transform="translate(174.903489 296.638438) scale(0.1 -0.1)">
       <defs>
        <path id="DejaVuSans-31" d="M 794 531
L 1825 531
L 1825 4091
L 703 3866
L 703 4441
L 1819 4666
L 2450 4666
L 2450 531
L 3481 531
L 3481 0
L 794 0
L 794 531
z
" transform="scale(0.015625)"/>
       </defs>
       <use xlink:href="#DejaVuSans-30"/>
       <use xlink:href="#DejaVuSans-2e" x="63.623047"/>
       <use xlink:href="#DejaVuSans-30" x="95.410156"/>
       <use xlink:href="#DejaVuSans-31" x="159.033203"/>
       <use xlink:href="#DejaVuSans-30" x="222.65625"/>
      </g>
     </g>
    </g>
    <g id="xtick_4">
     <g id="line2d_7">
      <path d="M 243.699282 282.04
L 243.699282 10.8
" clip-path="url(#p54ef50f567)" style="fill: none; stroke: #b0b0b0; stroke-opacity: 0.3; stroke-width: 0.8; stroke-linecap: square"/>
     </g>
     <g id="line2d_8">
      <g>
       <use xlink:href="#m0b4faf72f9" x="243.699282" y="282.04" style="stroke: #000000; stroke-width: 0.8"/>
      </g>
     </g>
     <g id="text_4">
      <!-- 0.015 -->
      <g transform="translate(229.385219 296.638438) scale(0.1 -0.1)">
       <use xlink:href="#DejaVuSans-30"/>
       <use xlink:href="#DejaVuSans-2e" x="63.623047"/>
       <use xlink:href="#DejaVuSans-30" x="95.410156"/>
       <use xlink:href="#DejaVuSans-31" x="159.033203"/>
       <use xlink:href="#DejaVuSans-35" x="222.65625"/>
      </g>
     </g>
    </g>
    <g id="xtick_5">
     <g id="line2d_9">
      <path d="M 298.181012 282.04
L 298.181012 10.8
" clip-path="url(#p54ef50f567)" style="fill: none; stroke: #b0b0b0; stroke-opacity: 0.3; stroke-width: 0.8; stroke-linecap: square"/>
     </g>
     <g id="line2d_10">
      <g>
       <use xlink:href="#m0b4faf72f9" x="298.181012" y="282.04" style="stroke: #000000; stroke-width: 0.8"/>
      </g>
     </g>
     <g id="text_5">
      <!-- 0.020 -->
      <g transform="translate(283.86695 296.638438) scale(0.1 -0.1)">
       <defs>
        <path id="DejaVuSans-32" d="M 1228 531
L 3431 531
L 3431 0
L 469 0
L 469 531
Q 828 903 1448 1529
Q 2069 2156 2228 2338
Q 2531 2678 2651 2914
Q 2772 3150 2772 3378
Q 2772 3750 2511 3984
Q 2250 4219 1831 4219
Q 1534 4219 1204 4116
Q 875 4013 500 3803
L 500 4441
Q 881 4594 1212 4672
Q 1544 4750 1819 4750
Q 2544 4750 2975 4387
Q 3406 4025 3406 3419
Q 3406 3131 3298 2873
Q 3191 2616 2906 2266
Q 2828 2175 2409 1742
Q 1991 1309 1228 531
z
" transform="scale(0.015625)"/>
       </defs>
       <use xlink:href="#DejaVuSans-30"/>
       <use xlink:href="#DejaVuSans-2e" x="63.623047"/>
       <use xlink:href="#DejaVuSans-30" x="95.410156"/>
       <use xlink:href="#DejaVuSans-32" x="159.033203"/>
       <use xlink:href="#DejaVuSans-30" x="222.65625"/>
      </g>
     </g>
    </g>
    <g id="xtick_6">
     <g id="line2d_11">
      <path d="M 352.662742 282.04
L 352.662742 10.8
" clip-path="url(#p54ef50f567)" style="fill: none; stroke: #b0b0b0; stroke-opacity: 0.3; stroke-width: 0.8; stroke-linecap: square"/>
     </g>
     <g id="line2d_12">
      <g>
       <use xlink:href="#m0b4faf72f9" x="352.662742" y="282.04" style="stroke: #000000; stroke-width: 0.8"/>
      </g>
     </g>
     <g id="text_6">
      <!-- 0.025 -->
      <g transform="translate(338.34868 296.638438) scale(0.1 -0.1)">
       <use xlink:href="#DejaVuSans-30"/>
       <use xlink:href="#DejaVuSans-2e" x="63.623047"/>
       <use xlink:href="#DejaVuSans-30" x="95.410156"/>
       <use xlink:href="#DejaVuSans-32" x="159.033203"/>
       <use xlink:href="#DejaVuSans-35" x="222.65625"/>
      </g>
     </g>
    </g>
    <g id="xtick_7">
     <g id="line2d_13">
      <path d="M 407.144473 282.04
L 407.144473 10.8
" clip-path="url(#p54ef50f567)" style="fill: none; stroke: #b0b0b0; stroke-opacity: 0.3; stroke-width: 0.8; stroke-linecap: square"/>
     </g>
     <g id="line2d_14">
      <g>
       <use xlink:href="#m0b4faf72f9" x="407.144473" y="282.04" style="stroke: #000000; stroke-width: 0.8"/>
      </g>
     </g>
     <g id="text_7">
      <!-- 0.030 -->
      <g transform="translate(392.83041 296.638438) scale(0.1 -0.1)">
       <defs>
        <path id="DejaVuSans-33" d="M 2597 2516
Q 3050 2419 3304 2112
Q 3559 1806 3559 1356
Q 3559 666 3084 287
Q 2609 -91 1734 -91
Q 1441 -91 1130 -33
Q 819 25 488 141
L 488 750
Q 750 597 1062 519
Q 1375 441 1716 441
Q 2309 441 2620 675
Q 2931 909 2931 1356
Q 2931 1769 2642 2001
Q 2353 2234 1838 2234
L 1294 2234
L 1294 2753
L 1863 2753
Q 2328 2753 2575 2939
Q 2822 3125 2822 3475
Q 2822 3834 2567 4026
Q 2313 4219 1838 4219
Q 1578 4219 1281 4162
Q 984 4106 628 3988
L 628 4550
Q 988 4650 1302 4700
Q 1616 4750 1894 4750
Q 2613 4750 3031 4423
Q 3450 4097 3450 3541
Q 3450 3153 3228 2886
Q 3006 2619 2597 2516
z
" transform="scale(0.015625)"/>
       </defs>
       <use xlink:href="#DejaVuSans-30"/>
       <use xlink:href="#DejaVuSans-2e" x="63.623047"/>
       <use xlink:href="#DejaVuSans-30" x="95.410156"/>
       <use xlink:href="#DejaVuSans-33" x="159.033203"/>
       <use xlink:href="#DejaVuSans-30" x="222.65625"/>
      </g>
     </g>
    </g>
    <g id="xtick_8">
     <g id="line2d_15">
      <path d="M 461.626203 282.04
L 461.626203 10.8
" clip-path="url(#p54ef50f567)" style="fill: none; stroke: #b0b0b0; stroke-opacity: 0.3; stroke-width: 0.8; stroke-linecap: square"/>
     </g>
     <g id="line2d_16">
      <g>
       <use xlink:href="#m0b4faf72f9" x="461.626203" y="282.04" style="stroke: #000000; stroke-width: 0.8"/>
      </g>
     </g>
     <g id="text_8">
      <!-- 0.035 -->
      <g transform="translate(447.31214 296.638438) scale(0.1 -0.1)">
       <use xlink:href="#DejaVuSans-30"/>
       <use xlink:href="#DejaVuSans-2e" x="63.623047"/>
       <use xlink:href="#DejaVuSans-30" x="95.410156"/>
       <use xlink:href="#DejaVuSans-33" x="159.033203"/>
       <use xlink:href="#DejaVuSans-35" x="222.65625"/>
      </g>
     </g>
    </g>
    <g id="text_9">
     <!-- time [s] -->
     <g transform="translate(257.503594 310.316563) scale(0.1 -0.1)">
      <defs>
       <path id="DejaVuSans-74" d="M 1172 4494
L 1172 3500
L 2356 3500
L 2356 3053
L 1172 3053
L 1172 1153
Q 1172 725 1289 603
Q 1406 481 1766 481
L 2356 481
L 2356 0
L 1766 0
Q 1100 0 847 248
Q 594 497 594 1153
L 594 3053
L 172 3053
L 172 3500
L 594 3500
L 594 4494
L 1172 4494
z
" transform="scale(0.015625)"/>
       <path id="DejaVuSans-69" d="M 603 3500
L 1178 3500
L 1178 0
L 603 0
L 603 3500
z
M 603 4863
L 1178 4863
L 1178 4134
L 603 4134
L 603 4863
z
" transform="scale(0.015625)"/>
       <path id="DejaVuSans-6d" d="M 3328 2828
Q 3544 3216 3844 3400
Q 4144 3584 4550 3584
Q 5097 3584 5394 3201
Q 5691 2819 5691 2113
L 5691 0
L 5113 0
L 5113 2094
Q 5113 2597 4934 2840
Q 4756 3084 4391 3084
Q 3944 3084 3684 2787
Q 3425 2491 3425 1978
L 3425 0
L 2847 0
L 2847 2094
Q 2847 2600 2669 2842
Q 2491 3084 2119 3084
Q 1678 3084 1418 2786
Q 1159 2488 1159 1978
L 1159 0
L 581 0
L 581 3500
L 1159 3500
L 1159 2956
Q 1356 3278 1631 3431
Q 1906 3584 2284 3584
Q 2666 3584 2933 3390
Q 3200 3197 3328 2828
z
" transform="scale(0.015625)"/>
       <path id="DejaVuSans-65" d="M 3597 1894
L 3597 1613
L 953 1613
Q 991 1019 1311 708
Q 1631 397 2203 397
Q 2534 397 2845 478
Q 3156 559 3463 722
L 3463 178
Q 3153 47 2828 -22
Q 2503 -91 2169 -91
Q 1331 -91 842 396
Q 353 884 353 1716
Q 353 2575 817 3079
Q 1281 3584 2069 3584
Q 2775 3584 3186 3129
Q 3597 2675 3597 1894
z
M 3022 2063
Q 3016 2534 2758 2815
Q 2500 3097 2075 3097
Q 1594 3097 1305 2825
Q 1016 2553 972 2059
L 3022 2063
z
" transform="scale(0.015625)"/>
       <path id="DejaVuSans-20" transform="scale(0.015625)"/>
       <path id="DejaVuSans-5b" d="M 550 4863
L 1875 4863
L 1875 4416
L 1125 4416
L 1125 -397
L 1875 -397
L 1875 -844
L 550 -844
L 550 4863
z
" transform="scale(0.015625)"/>
       <path id="DejaVuSans-73" d="M 2834 3397
L 2834 2853
Q 2591 2978 2328 3040
Q 2066 3103 1784 3103
Q 1356 3103 1142 2972
Q 928 2841 928 2578
Q 928 2378 1081 2264
Q 1234 2150 1697 2047
L 1894 2003
Q 2506 1872 2764 1633
Q 3022 1394 3022 966
Q 3022 478 2636 193
Q 2250 -91 1575 -91
Q 1294 -91 989 -36
Q 684 19 347 128
L 347 722
Q 666 556 975 473
Q 1284 391 1588 391
Q 1994 391 2212 530
Q 2431 669 2431 922
Q 2431 1156 2273 1281
Q 2116 1406 1581 1522
L 1381 1569
Q 847 1681 609 1914
Q 372 2147 372 2553
Q 372 3047 722 3315
Q 1072 3584 1716 3584
Q 2034 3584 2315 3537
Q 2597 3491 2834 3397
z
" transform="scale(0.015625)"/>
       <path id="DejaVuSans-5d" d="M 1947 4863
L 1947 -844
L 622 -844
L 622 -397
L 1369 -397
L 1369 4416
L 622 4416
L 622 4863
L 1947 4863
z
" transform="scale(0.015625)"/>
      </defs>
      <use xlink:href="#DejaVuSans-74"/>
      <use xlink:href="#DejaVuSans-69" x="39.208984"/>
      <use xlink:href="#DejaVuSans-6d" x="66.992188"/>
      <use xlink:href="#DejaVuSans-65" x="164.404297"/>
      <use xlink:href="#DejaVuSans-20" x="225.927734"/>
      <use xlink:href="#DejaVuSans-5b" x="257.714844"/>
      <use xlink:href="#DejaVuSans-73" x="296.728516"/>
      <use xlink:href="#DejaVuSans-5d" x="348.828125"/>
     </g>
    </g>
   </g>
   <g id="matplotlib.axis_2">
    <g id="ytick_1">
     <g id="line2d_17">
      <path d="M 60.59 262.29109
L 493.2 262.29109
" clip-path="url(#p54ef50f567)" style="fill: none; stroke: #b0b0b0; stroke-opacity: 0.3; stroke-width: 0.8; stroke-linecap: square"/>
     </g>
     <g id="line2d_18">
      <defs>
       <path id="m9e8ac18d42" d="M 0 0
L -3.5 0
" style="stroke: #000000; stroke-width: 0.8"/>
      </defs>
      <g>
       <use xlink:href="#m9e8ac18d42" x="60.59" y="262.29109" style="stroke: #000000; stroke-width: 0.8"/>
      </g>
     </g>
     <g id="text_10">
      <!-- 119.2 -->
      <g transform="translate(24.961875 266.090308) scale(0.1 -0.1)">
       <defs>
        <path id="DejaVuSans-39" d="M 703 97
L 703 672
Q 941 559 1184 500
Q 1428 441 1663 441
Q 2288 441 2617 861
Q 2947 1281 2994 2138
Q 2813 1869 2534 1725
Q 2256 1581 1919 1581
Q 1219 1581 811 2004
Q 403 2428 403 3163
Q 403 3881 828 4315
Q 1253 4750 1959 4750
Q 2769 4750 3195 4129
Q 3622 3509 3622 2328
Q 3622 1225 3098 567
Q 2575 -91 1691 -91
Q 1453 -91 1209 -44
Q 966 3 703 97
z
M 1959 2075
Q 2384 2075 2632 2365
Q 2881 2656 2881 3163
Q 2881 3666 2632 3958
Q 2384 4250 1959 4250
Q 1534 4250 1286 3958
Q 1038 3666 1038 3163
Q 1038 2656 1286 2365
Q 1534 2075 1959 2075
z
" transform="scale(0.015625)"/>
       </defs>
       <use xlink:href="#DejaVuSans-31"/>
       <use xlink:href="#DejaVuSans-31" x="63.623047"/>
       <use xlink:href="#DejaVuSans-39" x="127.246094"/>
       <use xlink:href="#DejaVuSans-2e" x="190.869141"/>
       <use xlink:href="#DejaVuSans-32" x="222.65625"/>
      </g>
     </g>
    </g>
    <g id="ytick_2">
     <g id="line2d_19">
      <path d="M 60.59 202.768151
L 493.2 202.768151
" clip-path="url(#p54ef50f567)" style="fill: none; stroke: #b0b0b0; stroke-opacity: 0.3; stroke-width: 0.8; stroke-linecap: square"/>
     </g>
     <g id="line2d_20">
      <g>
       <use xlink:href="#m9e8ac18d42" x="60.59" y="202.768151" style="stroke: #000000; stroke-width: 0.8"/>
      </g>
     </g>
     <g id="text_11">
      <!-- 119.4 -->
      <g transform="translate(24.961875 206.567369) scale(0.1 -0.1)">
       <defs>
        <path id="DejaVuSans-34" d="M 2419 4116
L 825 1625
L 2419 1625
L 2419 4116
z
M 2253 4666
L 3047 4666
L 3047 1625
L 3713 1625
L 3713 1100
L 3047 1100
L 3047 0
L 2419 0
L 2419 1100
L 313 1100
L 313 1709
L 2253 4666
z
" transform="scale(0.015625)"/>
       </defs>
       <use xlink:href="#DejaVuSans-31"/>
       <use xlink:href="#DejaVuSans-31" x="63.623047"/>
       <use xlink:href="#DejaVuSans-39" x="127.246094"/>
       <use xlink:href="#DejaVuSans-2e" x="190.869141"/>
       <use xlink:href="#DejaVuSans-34" x="222.65625"/>
      </g>
     </g>
    </g>
    <g id="ytick_3">
     <g id="line2d_21">
      <path d="M 60.59 143.245212
L 493.2 143.245212
" clip-path="url(#p54ef50f567)" style="fill: none; stroke: #b0b0b0; stroke-opacity: 0.3; stroke-width: 0.8; stroke-linecap: square"/>
     </g>
     <g id="line2d_22">
      <g>
       <use xlink:href="#m9e8ac18d42" x="60.59" y="143.245212" style="stroke: #000000; stroke-width: 0.8"/>
      </g>
     </g>
     <g id="text_12">
      <!-- 119.6 -->
      <g transform="translate(24.961875 147.04443) scale(0.1 -0.1)">
       <defs>
        <path id="DejaVuSans-36" d="M 2113 2584
Q 1688 2584 1439 2293
Q 1191 2003 1191 1497
Q 1191 994 1439 701
Q 1688 409 2113 409
Q 2538 409 2786 701
Q 3034 994 3034 1497
Q 3034 2003 2786 2293
Q 2538 2584 2113 2584
z
M 3366 4563
L 3366 3988
Q 3128 4100 2886 4159
Q 2644 4219 2406 4219
Q 1781 4219 1451 3797
Q 1122 3375 1075 2522
Q 1259 2794 1537 2939
Q 1816 3084 2150 3084
Q 2853 3084 3261 2657
Q 3669 2231 3669 1497
Q 3669 778 3244 343
Q 2819 -91 2113 -91
Q 1303 -91 875 529
Q 447 1150 447 2328
Q 447 3434 972 4092
Q 1497 4750 2381 4750
Q 2619 4750 2861 4703
Q 3103 4656 3366 4563
z
" transform="scale(0.015625)"/>
       </defs>
       <use xlink:href="#DejaVuSans-31"/>
       <use xlink:href="#DejaVuSans-31" x="63.623047"/>
       <use xlink:href="#DejaVuSans-39" x="127.246094"/>
       <use xlink:href="#DejaVuSans-2e" x="190.869141"/>
       <use xlink:href="#DejaVuSans-36" x="222.65625"/>
      </g>
     </g>
    </g>
    <g id="ytick_4">
     <g id="line2d_23">
      <path d="M 60.59 83.722273
L 493.2 83.722273
" clip-path="url(#p54ef50f567)" style="fill: none; stroke: #b0b0b0; stroke-opacity: 0.3; stroke-width: 0.8; stroke-linecap: square"/>
     </g>
     <g id="line2d_24">
      <g>
       <use xlink:href="#m9e8ac18d42" x="60.59" y="83.722273" style="stroke: #000000; stroke-width: 0.8"/>
      </g>
     </g>
     <g id="text_13">
      <!-- 119.8 -->
      <g transform="translate(24.961875 87.521492) scale(0.1 -0.1)">
       <defs>
        <path id="DejaVuSans-38" d="M 2034 2216
Q 1584 2216 1326 1975
Q 1069 1734 1069 1313
Q 1069 891 1326 650
Q 1584 409 2034 409
Q 2484 409 2743 651
Q 3003 894 3003 1313
Q 3003 1734 2745 1975
Q 2488 2216 2034 2216
z
M 1403 2484
Q 997 2584 770 2862
Q 544 3141 544 3541
Q 544 4100 942 4425
Q 1341 4750 2034 4750
Q 2731 4750 3128 4425
Q 3525 4100 3525 3541
Q 3525 3141 3298 2862
Q 3072 2584 2669 2484
Q 3125 2378 3379 2068
Q 3634 1759 3634 1313
Q 3634 634 3220 271
Q 2806 -91 2034 -91
Q 1263 -91 848 271
Q 434 634 434 1313
Q 434 1759 690 2068
Q 947 2378 1403 2484
z
M 1172 3481
Q 1172 3119 1398 2916
Q 1625 2713 2034 2713
Q 2441 2713 2670 2916
Q 2900 3119 2900 3481
Q 2900 3844 2670 4047
Q 2441 4250 2034 4250
Q 1625 4250 1398 4047
Q 1172 3844 1172 3481
z
" transform="scale(0.015625)"/>
       </defs>
       <use xlink:href="#DejaVuSans-31"/>
       <use xlink:href="#DejaVuSans-31" x="63.623047"/>
       <use xlink:href="#DejaVuSans-39" x="127.246094"/>
       <use xlink:href="#DejaVuSans-2e" x="190.869141"/>
       <use xlink:href="#DejaVuSans-38" x="222.65625"/>
      </g>
     </g>
    </g>
    <g id="ytick_5">
     <g id="line2d_25">
      <path d="M 60.59 24.199334
L 493.2 24.199334
" clip-path="url(#p54ef50f567)" style="fill: none; stroke: #b0b0b0; stroke-opacity: 0.3; stroke-width: 0.8; stroke-linecap: square"/>
     </g>
     <g id="line2d_26">
      <g>
       <use xlink:href="#m9e8ac18d42" x="60.59" y="24.199334" style="stroke: #000000; stroke-width: 0.8"/>
      </g>
     </g>
     <g id="text_14">
      <!-- 120.0 -->
      <g transform="translate(24.961875 27.998553) scale(0.1 -0.1)">
       <use xlink:href="#DejaVuSans-31"/>
       <use xlink:href="#DejaVuSans-32" x="63.623047"/>
       <use xlink:href="#DejaVuSans-30" x="127.246094"/>
       <use xlink:href="#DejaVuSans-2e" x="190.869141"/>
       <use xlink:href="#DejaVuSans-30" x="222.65625"/>
      </g>
     </g>
    </g>
    <g id="text_15">
     <!-- pc mean [Pa] -->
     <g transform="translate(18.882188 179.456719) rotate(-90) scale(0.1 -0.1)">
      <defs>
       <path id="DejaVuSans-70" d="M 1159 525
L 1159 -1331
L 581 -1331
L 581 3500
L 1159 3500
L 1159 2969
Q 1341 3281 1617 3432
Q 1894 3584 2278 3584
Q 2916 3584 3314 3078
Q 3713 2572 3713 1747
Q 3713 922 3314 415
Q 2916 -91 2278 -91
Q 1894 -91 1617 61
Q 1341 213 1159 525
z
M 3116 1747
Q 3116 2381 2855 2742
Q 2594 3103 2138 3103
Q 1681 3103 1420 2742
Q 1159 2381 1159 1747
Q 1159 1113 1420 752
Q 1681 391 2138 391
Q 2594 391 2855 752
Q 3116 1113 3116 1747
z
" transform="scale(0.015625)"/>
       <path id="DejaVuSans-63" d="M 3122 3366
L 3122 2828
Q 2878 2963 2633 3030
Q 2388 3097 2138 3097
Q 1578 3097 1268 2742
Q 959 2388 959 1747
Q 959 1106 1268 751
Q 1578 397 2138 397
Q 2388 397 2633 464
Q 2878 531 3122 666
L 3122 134
Q 2881 22 2623 -34
Q 2366 -91 2075 -91
Q 1284 -91 818 406
Q 353 903 353 1747
Q 353 2603 823 3093
Q 1294 3584 2113 3584
Q 2378 3584 2631 3529
Q 2884 3475 3122 3366
z
" transform="scale(0.015625)"/>
       <path id="DejaVuSans-61" d="M 2194 1759
Q 1497 1759 1228 1600
Q 959 1441 959 1056
Q 959 750 1161 570
Q 1363 391 1709 391
Q 2188 391 2477 730
Q 2766 1069 2766 1631
L 2766 1759
L 2194 1759
z
M 3341 1997
L 3341 0
L 2766 0
L 2766 531
Q 2569 213 2275 61
Q 1981 -91 1556 -91
Q 1019 -91 701 211
Q 384 513 384 1019
Q 384 1609 779 1909
Q 1175 2209 1959 2209
L 2766 2209
L 2766 2266
Q 2766 2663 2505 2880
Q 2244 3097 1772 3097
Q 1472 3097 1187 3025
Q 903 2953 641 2809
L 641 3341
Q 956 3463 1253 3523
Q 1550 3584 1831 3584
Q 2591 3584 2966 3190
Q 3341 2797 3341 1997
z
" transform="scale(0.015625)"/>
       <path id="DejaVuSans-6e" d="M 3513 2113
L 3513 0
L 2938 0
L 2938 2094
Q 2938 2591 2744 2837
Q 2550 3084 2163 3084
Q 1697 3084 1428 2787
Q 1159 2491 1159 1978
L 1159 0
L 581 0
L 581 3500
L 1159 3500
L 1159 2956
Q 1366 3272 1645 3428
Q 1925 3584 2291 3584
Q 2894 3584 3203 3211
Q 3513 2838 3513 2113
z
" transform="scale(0.015625)"/>
       <path id="DejaVuSans-50" d="M 1259 4147
L 1259 2394
L 2053 2394
Q 2494 2394 2734 2622
Q 2975 2850 2975 3272
Q 2975 3691 2734 3919
Q 2494 4147 2053 4147
L 1259 4147
z
M 628 4666
L 2053 4666
Q 2838 4666 3239 4311
Q 3641 3956 3641 3272
Q 3641 2581 3239 2228
Q 2838 1875 2053 1875
L 1259 1875
L 1259 0
L 628 0
L 628 4666
z
" transform="scale(0.015625)"/>
      </defs>
      <use xlink:href="#DejaVuSans-70"/>
      <use xlink:href="#DejaVuSans-63" x="63.476562"/>
      <use xlink:href="#DejaVuSans-20" x="118.457031"/>
      <use xlink:href="#DejaVuSans-6d" x="150.244141"/>
      <use xlink:href="#DejaVuSans-65" x="247.65625"/>
      <use xlink:href="#DejaVuSans-61" x="309.179688"/>
      <use xlink:href="#DejaVuSans-6e" x="370.458984"/>
      <use xlink:href="#DejaVuSans-20" x="433.837891"/>
      <use xlink:href="#DejaVuSans-5b" x="465.625"/>
      <use xlink:href="#DejaVuSans-50" x="504.638672"/>
      <use xlink:href="#DejaVuSans-61" x="560.441406"/>
      <use xlink:href="#DejaVuSans-5d" x="621.720703"/>
     </g>
    </g>
   </g>
   <g id="line2d_27">
    <path d="M 80.254091 24.199334
L 85.734953 24.199334
L 91.204919 23.794607
L 96.685781 23.730558
L 102.166643 24.175495
L 107.636609 25.106444
L 113.117471 26.53558
L 118.598333 28.348382
L 124.068298 30.707341
L 129.54916 33.985088
L 135.030023 37.720759
L 140.499988 41.510674
L 145.98085 45.235048
L 151.461712 48.892703
L 156.931678 52.530176
L 162.41254 56.20114
L 167.893402 59.73175
L 173.363368 63.286212
L 178.84423 66.752985
L 184.325092 70.104017
L 189.795058 73.482594
L 195.27592 76.735406
L 200.756782 80.206653
L 206.226748 83.782132
L 211.70761 87.47787
L 217.177575 91.255749
L 222.658438 95.075966
L 228.1393 98.926903
L 233.609265 102.797254
L 239.090127 106.681272
L 244.570989 110.593604
L 250.040955 114.51746
L 255.521817 118.443934
L 261.002679 122.394575
L 266.472645 126.319784
L 271.953507 130.277342
L 277.434369 134.215728
" clip-path="url(#p54ef50f567)" style="fill: none; stroke: #1f77b4; stroke-width: 1.5; stroke-linecap: square"/>
    <defs>
     <path id="me4588c6314" d="M 0 3
C 0.795609 3 1.55874 2.683901 2.12132 2.12132
C 2.683901 1.55874 3 0.795609 3 0
C 3 -0.795609 2.683901 -1.55874 2.12132 -2.12132
C 1.55874 -2.683901 0.795609 -3 0 -3
C -0.795609 -3 -1.55874 -2.683901 -2.12132 -2.12132
C -2.683901 -1.55874 -3 -0.795609 -3 0
C -3 0.795609 -2.683901 1.55874 -2.12132 2.12132
C -1.55874 2.683901 -0.795609 3 0 3
z
" style="stroke: #1f77b4"/>
    </defs>
    <g clip-path="url(#p54ef50f567)">
     <use xlink:href="#me4588c6314" x="80.254091" y="24.199334" style="fill: #1f77b4; stroke: #1f77b4"/>
     <use xlink:href="#me4588c6314" x="85.734953" y="24.199334" style="fill: #1f77b4; stroke: #1f77b4"/>
     <use xlink:href="#me4588c6314" x="91.204919" y="23.794607" style="fill: #1f77b4; stroke: #1f77b4"/>
     <use xlink:href="#me4588c6314" x="96.685781" y="23.730558" style="fill: #1f77b4; stroke: #1f77b4"/>
     <use xlink:href="#me4588c6314" x="102.166643" y="24.175495" style="fill: #1f77b4; stroke: #1f77b4"/>
     <use xlink:href="#me4588c6314" x="107.636609" y="25.106444" style="fill: #1f77b4; stroke: #1f77b4"/>
     <use xlink:href="#me4588c6314" x="113.117471" y="26.53558" style="fill: #1f77b4; stroke: #1f77b4"/>
     <use xlink:href="#me4588c6314" x="118.598333" y="28.348382" style="fill: #1f77b4; stroke: #1f77b4"/>
     <use xlink:href="#me4588c6314" x="124.068298" y="30.707341" style="fill: #1f77b4; stroke: #1f77b4"/>
     <use xlink:href="#me4588c6314" x="129.54916" y="33.985088" style="fill: #1f77b4; stroke: #1f77b4"/>
     <use xlink:href="#me4588c6314" x="135.030023" y="37.720759" style="fill: #1f77b4; stroke: #1f77b4"/>
     <use xlink:href="#me4588c6314" x="140.499988" y="41.510674" style="fill: #1f77b4; stroke: #1f77b4"/>
     <use xlink:href="#me4588c6314" x="145.98085" y="45.235048" style="fill: #1f77b4; stroke: #1f77b4"/>
     <use xlink:href="#me4588c6314" x="151.461712" y="48.892703" style="fill: #1f77b4; stroke: #1f77b4"/>
     <use xlink:href="#me4588c6314" x="156.931678" y="52.530176" style="fill: #1f77b4; stroke: #1f77b4"/>
     <use xlink:href="#me4588c6314" x="162.41254" y="56.20114" style="fill: #1f77b4; stroke: #1f77b4"/>
     <use xlink:href="#me4588c6314" x="167.893402" y="59.73175" style="fill: #1f77b4; stroke: #1f77b4"/>
     <use xlink:href="#me4588c6314" x="173.363368" y="63.286212" style="fill: #1f77b4; stroke: #1f77b4"/>
     <use xlink:href="#me4588c6314" x="178.84423" y="66.752985" style="fill: #1f77b4; stroke: #1f77b4"/>
     <use xlink:href="#me4588c6314" x="184.325092" y="70.104017" style="fill: #1f77b4; stroke: #1f77b4"/>
     <use xlink:href="#me4588c6314" x="189.795058" y="73.482594" style="fill: #1f77b4; stroke: #1f77b4"/>
     <use xlink:href="#me4588c6314" x="195.27592" y="76.735406" style="fill: #1f77b4; stroke: #1f77b4"/>
     <use xlink:href="#me4588c6314" x="200.756782" y="80.206653" style="fill: #1f77b4; stroke: #1f77b4"/>
     <use xlink:href="#me4588c6314" x="206.226748" y="83.782132" style="fill: #1f77b4; stroke: #1f77b4"/>
     <use xlink:href="#me4588c6314" x="211.70761" y="87.47787" style="fill: #1f77b4; stroke: #1f77b4"/>
     <use xlink:href="#me4588c6314" x="217.177575" y="91.255749" style="fill: #1f77b4; stroke: #1f77b4"/>
     <use xlink:href="#me4588c6314" x="222.658438" y="95.075966" style="fill: #1f77b4; stroke: #1f77b4"/>
     <use xlink:href="#me4588c6314" x="228.1393" y="98.926903" style="fill: #1f77b4; stroke: #1f77b4"/>
     <use xlink:href="#me4588c6314" x="233.609265" y="102.797254" style="fill: #1f77b4; stroke: #1f77b4"/>
     <use xlink:href="#me4588c6314" x="239.090127" y="106.681272" style="fill: #1f77b4; stroke: #1f77b4"/>
     <use xlink:href="#me4588c6314" x="244.570989" y="110.593604" style="fill: #1f77b4; stroke: #1f77b4"/>
     <use xlink:href="#me4588c6314" x="250.040955" y="114.51746" style="fill: #1f77b4; stroke: #1f77b4"/>
     <use xlink:href="#me4588c6314" x="255.521817" y="118.443934" style="fill: #1f77b4; stroke: #1f77b4"/>
     <use xlink:href="#me4588c6314" x="261.002679" y="122.394575" style="fill: #1f77b4; stroke: #1f77b4"/>
     <use xlink:href="#me4588c6314" x="266.472645" y="126.319784" style="fill: #1f77b4; stroke: #1f77b4"/>
     <use xlink:href="#me4588c6314" x="271.953507" y="130.277342" style="fill: #1f77b4; stroke: #1f77b4"/>
     <use xlink:href="#me4588c6314" x="277.434369" y="134.215728" style="fill: #1f77b4; stroke: #1f77b4"/>
    </g>
   </g>
   <g id="line2d_28">
    <path d="M 80.254091 24.199334
L 85.734953 24.199334
L 91.204919 23.129091
L 96.685781 23.77713
L 102.166643 25.157295
L 107.636609 28.139248
L 113.117471 32.032099
L 118.598333 36.925389
L 124.068298 43.026929
L 129.54916 50.147401
L 135.030023 58.270359
L 140.499988 66.636791
L 145.98085 74.619197
L 151.461712 82.524633
L 156.931678 90.593311
L 162.41254 98.636623
L 167.893402 106.762608
L 173.363368 114.789649
L 178.84423 122.809005
L 184.314196 130.712657
L 189.795058 139.089209
L 195.27592 147.452496
L 200.745886 155.311776
L 206.226748 163.077904
L 211.70761 171.047068
L 217.177575 179.111972
L 222.658438 186.979274
L 228.1393 194.820047
L 233.609265 202.770959
L 239.090127 210.797715
L 244.560093 218.854335
L 250.040955 226.898253
L 255.521817 235.264516
L 260.991783 243.902121
L 266.472645 252.531653
L 271.953507 261.134048
L 277.423473 269.710909
" clip-path="url(#p54ef50f567)" style="fill: none; stroke: #ff7f0e; stroke-width: 1.5; stroke-linecap: square"/>
    <defs>
     <path id="m68d28596ec" d="M 0 3
C 0.795609 3 1.55874 2.683901 2.12132 2.12132
C 2.683901 1.55874 3 0.795609 3 0
C 3 -0.795609 2.683901 -1.55874 2.12132 -2.12132
C 1.55874 -2.683901 0.795609 -3 0 -3
C -0.795609 -3 -1.55874 -2.683901 -2.12132 -2.12132
C -2.683901 -1.55874 -3 -0.795609 -3 0
C -3 0.795609 -2.683901 1.55874 -2.12132 2.12132
C -1.55874 2.683901 -0.795609 3 0 3
z
" style="stroke: #ff7f0e"/>
    </defs>
    <g clip-path="url(#p54ef50f567)">
     <use xlink:href="#m68d28596ec" x="80.254091" y="24.199334" style="fill: #ff7f0e; stroke: #ff7f0e"/>
     <use xlink:href="#m68d28596ec" x="85.734953" y="24.199334" style="fill: #ff7f0e; stroke: #ff7f0e"/>
     <use xlink:href="#m68d28596ec" x="91.204919" y="23.129091" style="fill: #ff7f0e; stroke: #ff7f0e"/>
     <use xlink:href="#m68d28596ec" x="96.685781" y="23.77713" style="fill: #ff7f0e; stroke: #ff7f0e"/>
     <use xlink:href="#m68d28596ec" x="102.166643" y="25.157295" style="fill: #ff7f0e; stroke: #ff7f0e"/>
     <use xlink:href="#m68d28596ec" x="107.636609" y="28.139248" style="fill: #ff7f0e; stroke: #ff7f0e"/>
     <use xlink:href="#m68d28596ec" x="113.117471" y="32.032099" style="fill: #ff7f0e; stroke: #ff7f0e"/>
     <use xlink:href="#m68d28596ec" x="118.598333" y="36.925389" style="fill: #ff7f0e; stroke: #ff7f0e"/>
     <use xlink:href="#m68d28596ec" x="124.068298" y="43.026929" style="fill: #ff7f0e; stroke: #ff7f0e"/>
     <use xlink:href="#m68d28596ec" x="129.54916" y="50.147401" style="fill: #ff7f0e; stroke: #ff7f0e"/>
     <use xlink:href="#m68d28596ec" x="135.030023" y="58.270359" style="fill: #ff7f0e; stroke: #ff7f0e"/>
     <use xlink:href="#m68d28596ec" x="140.499988" y="66.636791" style="fill: #ff7f0e; stroke: #ff7f0e"/>
     <use xlink:href="#m68d28596ec" x="145.98085" y="74.619197" style="fill: #ff7f0e; stroke: #ff7f0e"/>
     <use xlink:href="#m68d28596ec" x="151.461712" y="82.524633" style="fill: #ff7f0e; stroke: #ff7f0e"/>
     <use xlink:href="#m68d28596ec" x="156.931678" y="90.593311" style="fill: #ff7f0e; stroke: #ff7f0e"/>
     <use xlink:href="#m68d28596ec" x="162.41254" y="98.636623" style="fill: #ff7f0e; stroke: #ff7f0e"/>
     <use xlink:href="#m68d28596ec" x="167.893402" y="106.762608" style="fill: #ff7f0e; stroke: #ff7f0e"/>
     <use xlink:href="#m68d28596ec" x="173.363368" y="114.789649" style="fill: #ff7f0e; stroke: #ff7f0e"/>
     <use xlink:href="#m68d28596ec" x="178.84423" y="122.809005" style="fill: #ff7f0e; stroke: #ff7f0e"/>
     <use xlink:href="#m68d28596ec" x="184.314196" y="130.712657" style="fill: #ff7f0e; stroke: #ff7f0e"/>
     <use xlink:href="#m68d28596ec" x="189.795058" y="139.089209" style="fill: #ff7f0e; stroke: #ff7f0e"/>
     <use xlink:href="#m68d28596ec" x="195.27592" y="147.452496" style="fill: #ff7f0e; stroke: #ff7f0e"/>
     <use xlink:href="#m68d28596ec" x="200.745886" y="155.311776" style="fill: #ff7f0e; stroke: #ff7f0e"/>
     <use xlink:href="#m68d28596ec" x="206.226748" y="163.077904" style="fill: #ff7f0e; stroke: #ff7f0e"/>
     <use xlink:href="#m68d28596ec" x="211.70761" y="171.047068" style="fill: #ff7f0e; stroke: #ff7f0e"/>
     <use xlink:href="#m68d28596ec" x="217.177575" y="179.111972" style="fill: #ff7f0e; stroke: #ff7f0e"/>
     <use xlink:href="#m68d28596ec" x="222.658438" y="186.979274" style="fill: #ff7f0e; stroke: #ff7f0e"/>
     <use xlink:href="#m68d28596ec" x="228.1393" y="194.820047" style="fill: #ff7f0e; stroke: #ff7f0e"/>
     <use xlink:href="#m68d28596ec" x="233.609265" y="202.770959" style="fill: #ff7f0e; stroke: #ff7f0e"/>
     <use xlink:href="#m68d28596ec" x="239.090127" y="210.797715" style="fill: #ff7f0e; stroke: #ff7f0e"/>
     <use xlink:href="#m68d28596ec" x="244.560093" y="218.854335" style="fill: #ff7f0e; stroke: #ff7f0e"/>
     <use xlink:href="#m68d28596ec" x="250.040955" y="226.898253" style="fill: #ff7f0e; stroke: #ff7f0e"/>
     <use xlink:href="#m68d28596ec" x="255.521817" y="235.264516" style="fill: #ff7f0e; stroke: #ff7f0e"/>
     <use xlink:href="#m68d28596ec" x="260.991783" y="243.902121" style="fill: #ff7f0e; stroke: #ff7f0e"/>
     <use xlink:href="#m68d28596ec" x="266.472645" y="252.531653" style="fill: #ff7f0e; stroke: #ff7f0e"/>
     <use xlink:href="#m68d28596ec" x="271.953507" y="261.134048" style="fill: #ff7f0e; stroke: #ff7f0e"/>
     <use xlink:href="#m68d28596ec" x="277.423473" y="269.710909" style="fill: #ff7f0e; stroke: #ff7f0e"/>
    </g>
   </g>
   <g id="line2d_29">
    <path d="M 80.254091 24.199334
L 85.734953 24.199334
L 91.204919 23.794607
L 96.685781 24.066994
L 102.166643 24.646363
L 107.636609 25.892791
L 113.117471 27.521284
L 118.598333 29.624228
L 124.068298 32.199999
L 129.54916 35.2635
L 135.030023 38.505402
L 140.499988 41.891511
L 145.98085 45.316405
L 151.461712 48.754586
L 156.931678 52.262652
L 162.41254 55.784567
L 167.893402 59.505614
L 173.363368 63.138524
L 178.84423 66.769343
L 184.314196 70.597055
L 189.795058 74.306899
L 195.27592 78.013094
L 200.745886 81.753343
L 206.226748 85.523873
L 211.70761 89.279704
L 217.177575 93.055404
L 222.658438 96.699626
L 228.1393 100.672431
L 233.609265 104.304881
L 239.090127 107.928826
L 244.560093 111.556742
L 250.040955 115.153412
L 255.521817 118.756553
L 260.991783 122.401595
L 266.472645 126.00116
L 271.953507 129.573458
L 277.423473 133.1409
" clip-path="url(#p54ef50f567)" style="fill: none; stroke: #2ca02c; stroke-width: 1.5; stroke-linecap: square"/>
    <defs>
     <path id="mcaa2512046" d="M 0 3
C 0.795609 3 1.55874 2.683901 2.12132 2.12132
C 2.683901 1.55874 3 0.795609 3 0
C 3 -0.795609 2.683901 -1.55874 2.12132 -2.12132
C 1.55874 -2.683901 0.795609 -3 0 -3
C -0.795609 -3 -1.55874 -2.683901 -2.12132 -2.12132
C -2.683901 -1.55874 -3 -0.795609 -3 0
C -3 0.795609 -2.683901 1.55874 -2.12132 2.12132
C -1.55874 2.683901 -0.795609 3 0 3
z
" style="stroke: #2ca02c"/>
    </defs>
    <g clip-path="url(#p54ef50f567)">
     <use xlink:href="#mcaa2512046" x="80.254091" y="24.199334" style="fill: #2ca02c; stroke: #2ca02c"/>
     <use xlink:href="#mcaa2512046" x="85.734953" y="24.199334" style="fill: #2ca02c; stroke: #2ca02c"/>
     <use xlink:href="#mcaa2512046" x="91.204919" y="23.794607" style="fill: #2ca02c; stroke: #2ca02c"/>
     <use xlink:href="#mcaa2512046" x="96.685781" y="24.066994" style="fill: #2ca02c; stroke: #2ca02c"/>
     <use xlink:href="#mcaa2512046" x="102.166643" y="24.646363" style="fill: #2ca02c; stroke: #2ca02c"/>
     <use xlink:href="#mcaa2512046" x="107.636609" y="25.892791" style="fill: #2ca02c; stroke: #2ca02c"/>
     <use xlink:href="#mcaa2512046" x="113.117471" y="27.521284" style="fill: #2ca02c; stroke: #2ca02c"/>
     <use xlink:href="#mcaa2512046" x="118.598333" y="29.624228" style="fill: #2ca02c; stroke: #2ca02c"/>
     <use xlink:href="#mcaa2512046" x="124.068298" y="32.199999" style="fill: #2ca02c; stroke: #2ca02c"/>
     <use xlink:href="#mcaa2512046" x="129.54916" y="35.2635" style="fill: #2ca02c; stroke: #2ca02c"/>
     <use xlink:href="#mcaa2512046" x="135.030023" y="38.505402" style="fill: #2ca02c; stroke: #2ca02c"/>
     <use xlink:href="#mcaa2512046" x="140.499988" y="41.891511" style="fill: #2ca02c; stroke: #2ca02c"/>
     <use xlink:href="#mcaa2512046" x="145.98085" y="45.316405" style="fill: #2ca02c; stroke: #2ca02c"/>
     <use xlink:href="#mcaa2512046" x="151.461712" y="48.754586" style="fill: #2ca02c; stroke: #2ca02c"/>
     <use xlink:href="#mcaa2512046" x="156.931678" y="52.262652" style="fill: #2ca02c; stroke: #2ca02c"/>
     <use xlink:href="#mcaa2512046" x="162.41254" y="55.784567" style="fill: #2ca02c; stroke: #2ca02c"/>
     <use xlink:href="#mcaa2512046" x="167.893402" y="59.505614" style="fill: #2ca02c; stroke: #2ca02c"/>
     <use xlink:href="#mcaa2512046" x="173.363368" y="63.138524" style="fill: #2ca02c; stroke: #2ca02c"/>
     <use xlink:href="#mcaa2512046" x="178.84423" y="66.769343" style="fill: #2ca02c; stroke: #2ca02c"/>
     <use xlink:href="#mcaa2512046" x="184.314196" y="70.597055" style="fill: #2ca02c; stroke: #2ca02c"/>
     <use xlink:href="#mcaa2512046" x="189.795058" y="74.306899" style="fill: #2ca02c; stroke: #2ca02c"/>
     <use xlink:href="#mcaa2512046" x="195.27592" y="78.013094" style="fill: #2ca02c; stroke: #2ca02c"/>
     <use xlink:href="#mcaa2512046" x="200.745886" y="81.753343" style="fill: #2ca02c; stroke: #2ca02c"/>
     <use xlink:href="#mcaa2512046" x="206.226748" y="85.523873" style="fill: #2ca02c; stroke: #2ca02c"/>
     <use xlink:href="#mcaa2512046" x="211.70761" y="89.279704" style="fill: #2ca02c; stroke: #2ca02c"/>
     <use xlink:href="#mcaa2512046" x="217.177575" y="93.055404" style="fill: #2ca02c; stroke: #2ca02c"/>
     <use xlink:href="#mcaa2512046" x="222.658438" y="96.699626" style="fill: #2ca02c; stroke: #2ca02c"/>
     <use xlink:href="#mcaa2512046" x="228.1393" y="100.672431" style="fill: #2ca02c; stroke: #2ca02c"/>
     <use xlink:href="#mcaa2512046" x="233.609265" y="104.304881" style="fill: #2ca02c; stroke: #2ca02c"/>
     <use xlink:href="#mcaa2512046" x="239.090127" y="107.928826" style="fill: #2ca02c; stroke: #2ca02c"/>
     <use xlink:href="#mcaa2512046" x="244.560093" y="111.556742" style="fill: #2ca02c; stroke: #2ca02c"/>
     <use xlink:href="#mcaa2512046" x="250.040955" y="115.153412" style="fill: #2ca02c; stroke: #2ca02c"/>
     <use xlink:href="#mcaa2512046" x="255.521817" y="118.756553" style="fill: #2ca02c; stroke: #2ca02c"/>
     <use xlink:href="#mcaa2512046" x="260.991783" y="122.401595" style="fill: #2ca02c; stroke: #2ca02c"/>
     <use xlink:href="#mcaa2512046" x="266.472645" y="126.00116" style="fill: #2ca02c; stroke: #2ca02c"/>
     <use xlink:href="#mcaa2512046" x="271.953507" y="129.573458" style="fill: #2ca02c; stroke: #2ca02c"/>
     <use xlink:href="#mcaa2512046" x="277.423473" y="133.1409" style="fill: #2ca02c; stroke: #2ca02c"/>
    </g>
   </g>
   <g id="line2d_30">
    <path d="M 80.254091 24.199334
L 85.734953 24.199334
L 91.204919 24.529152
L 96.685781 31.393909
L 102.166643 35.383723
L 107.636609 36.978916
L 113.117471 38.758806
L 118.598333 40.894092
L 124.068298 43.565232
L 129.54916 46.811126
L 135.030023 50.141383
L 140.499988 53.601626
L 145.98085 57.276567
L 151.461712 60.828039
L 156.931678 64.551155
L 162.41254 69.098335
L 167.893402 74.755764
L 173.363368 80.625062
L 178.84423 86.009577
L 184.314196 91.598788
L 189.795058 97.329845
L 195.27592 102.458639
L 200.745886 107.67687
L 206.226748 112.872345
L 211.70761 118.140995
L 217.177575 124.090247
L 222.658438 130.899218
L 228.1393 137.518089
L 233.609265 144.09979
L 239.090127 150.6763
L 244.560093 157.213907
L 250.040955 163.643372
L 255.521817 170.142173
L 260.991783 176.598569
L 266.472645 182.870532
L 271.953507 189.265343
L 277.423473 195.703268
" clip-path="url(#p54ef50f567)" style="fill: none; stroke: #d62728; stroke-width: 1.5; stroke-linecap: square"/>
    <defs>
     <path id="m37b609214d" d="M 0 3
C 0.795609 3 1.55874 2.683901 2.12132 2.12132
C 2.683901 1.55874 3 0.795609 3 0
C 3 -0.795609 2.683901 -1.55874 2.12132 -2.12132
C 1.55874 -2.683901 0.795609 -3 0 -3
C -0.795609 -3 -1.55874 -2.683901 -2.12132 -2.12132
C -2.683901 -1.55874 -3 -0.795609 -3 0
C -3 0.795609 -2.683901 1.55874 -2.12132 2.12132
C -1.55874 2.683901 -0.795609 3 0 3
z
" style="stroke: #d62728"/>
    </defs>
    <g clip-path="url(#p54ef50f567)">
     <use xlink:href="#m37b609214d" x="80.254091" y="24.199334" style="fill: #d62728; stroke: #d62728"/>
     <use xlink:href="#m37b609214d" x="85.734953" y="24.199334" style="fill: #d62728; stroke: #d62728"/>
     <use xlink:href="#m37b609214d" x="91.204919" y="24.529152" style="fill: #d62728; stroke: #d62728"/>
     <use xlink:href="#m37b609214d" x="96.685781" y="31.393909" style="fill: #d62728; stroke: #d62728"/>
     <use xlink:href="#m37b609214d" x="102.166643" y="35.383723" style="fill: #d62728; stroke: #d62728"/>
     <use xlink:href="#m37b609214d" x="107.636609" y="36.978916" style="fill: #d62728; stroke: #d62728"/>
     <use xlink:href="#m37b609214d" x="113.117471" y="38.758806" style="fill: #d62728; stroke: #d62728"/>
     <use xlink:href="#m37b609214d" x="118.598333" y="40.894092" style="fill: #d62728; stroke: #d62728"/>
     <use xlink:href="#m37b609214d" x="124.068298" y="43.565232" style="fill: #d62728; stroke: #d62728"/>
     <use xlink:href="#m37b609214d" x="129.54916" y="46.811126" style="fill: #d62728; stroke: #d62728"/>
     <use xlink:href="#m37b609214d" x="135.030023" y="50.141383" style="fill: #d62728; stroke: #d62728"/>
     <use xlink:href="#m37b609214d" x="140.499988" y="53.601626" style="fill: #d62728; stroke: #d62728"/>
     <use xlink:href="#m37b609214d" x="145.98085" y="57.276567" style="fill: #d62728; stroke: #d62728"/>
     <use xlink:href="#m37b609214d" x="151.461712" y="60.828039" style="fill: #d62728; stroke: #d62728"/>
     <use xlink:href="#m37b609214d" x="156.931678" y="64.551155" style="fill: #d62728; stroke: #d62728"/>
     <use xlink:href="#m37b609214d" x="162.41254" y="69.098335" style="fill: #d62728; stroke: #d62728"/>
     <use xlink:href="#m37b609214d" x="167.893402" y="74.755764" style="fill: #d62728; stroke: #d62728"/>
     <use xlink:href="#m37b609214d" x="173.363368" y="80.625062" style="fill: #d62728; stroke: #d62728"/>
     <use xlink:href="#m37b609214d" x="178.84423" y="86.009577" style="fill: #d62728; stroke: #d62728"/>
     <use xlink:href="#m37b609214d" x="184.314196" y="91.598788" style="fill: #d62728; stroke: #d62728"/>
     <use xlink:href="#m37b609214d" x="189.795058" y="97.329845" style="fill: #d62728; stroke: #d62728"/>
     <use xlink:href="#m37b609214d" x="195.27592" y="102.458639" style="fill: #d62728; stroke: #d62728"/>
     <use xlink:href="#m37b609214d" x="200.745886" y="107.67687" style="fill: #d62728; stroke: #d62728"/>
     <use xlink:href="#m37b609214d" x="206.226748" y="112.872345" style="fill: #d62728; stroke: #d62728"/>
     <use xlink:href="#m37b609214d" x="211.70761" y="118.140995" style="fill: #d62728; stroke: #d62728"/>
     <use xlink:href="#m37b609214d" x="217.177575" y="124.090247" style="fill: #d62728; stroke: #d62728"/>
     <use xlink:href="#m37b609214d" x="222.658438" y="130.899218" style="fill: #d62728; stroke: #d62728"/>
     <use xlink:href="#m37b609214d" x="228.1393" y="137.518089" style="fill: #d62728; stroke: #d62728"/>
     <use xlink:href="#m37b609214d" x="233.609265" y="144.09979" style="fill: #d62728; stroke: #d62728"/>
     <use xlink:href="#m37b609214d" x="239.090127" y="150.6763" style="fill: #d62728; stroke: #d62728"/>
     <use xlink:href="#m37b609214d" x="244.560093" y="157.213907" style="fill: #d62728; stroke: #d62728"/>
     <use xlink:href="#m37b609214d" x="250.040955" y="163.643372" style="fill: #d62728; stroke: #d62728"/>
     <use xlink:href="#m37b609214d" x="255.521817" y="170.142173" style="fill: #d62728; stroke: #d62728"/>
     <use xlink:href="#m37b609214d" x="260.991783" y="176.598569" style="fill: #d62728; stroke: #d62728"/>
     <use xlink:href="#m37b609214d" x="266.472645" y="182.870532" style="fill: #d62728; stroke: #d62728"/>
     <use xlink:href="#m37b609214d" x="271.953507" y="189.265343" style="fill: #d62728; stroke: #d62728"/>
     <use xlink:href="#m37b609214d" x="277.423473" y="195.703268" style="fill: #d62728; stroke: #d62728"/>
    </g>
   </g>
   <g id="line2d_31">
    <path d="M 80.254091 24.199334
L 91.204919 24.316457
L 102.166643 26.92876
L 113.117471 30.05751
L 124.079195 33.484715
L 135.030023 37.441404
L 145.98085 41.475114
L 156.942574 45.325019
L 167.893402 49.450412
L 178.84423 53.810804
L 189.805954 58.12327
L 200.756782 62.410538
L 211.70761 66.66188
L 222.669334 70.881303
L 233.620162 74.973615
L 244.581886 79.079666
L 255.532714 83.160205
L 266.483541 87.196029
L 277.445265 91.24002
L 287.306459 94.858583
L 298.257286 98.892096
L 309.208114 102.888293
L 320.169838 106.894911
L 331.120666 110.87576
L 342.071494 114.873515
L 353.033218 118.845355
L 363.984046 122.838664
L 374.94577 126.832602
L 385.896598 130.825041
L 396.847426 134.814263
L 407.80915 138.800252
L 418.759977 142.798366
L 429.710805 146.802877
L 440.672529 150.846211
L 451.623357 155.002067
L 462.585081 159.179078
L 473.535909 163.354569
" clip-path="url(#p54ef50f567)" style="fill: none; stroke: #9467bd; stroke-width: 1.5; stroke-linecap: square"/>
    <defs>
     <path id="m1ca6418a7f" d="M 0 3
C 0.795609 3 1.55874 2.683901 2.12132 2.12132
C 2.683901 1.55874 3 0.795609 3 0
C 3 -0.795609 2.683901 -1.55874 2.12132 -2.12132
C 1.55874 -2.683901 0.795609 -3 0 -3
C -0.795609 -3 -1.55874 -2.683901 -2.12132 -2.12132
C -2.683901 -1.55874 -3 -0.795609 -3 0
C -3 0.795609 -2.683901 1.55874 -2.12132 2.12132
C -1.55874 2.683901 -0.795609 3 0 3
z
" style="stroke: #9467bd"/>
    </defs>
    <g clip-path="url(#p54ef50f567)">
     <use xlink:href="#m1ca6418a7f" x="80.254091" y="24.199334" style="fill: #9467bd; stroke: #9467bd"/>
     <use xlink:href="#m1ca6418a7f" x="91.204919" y="24.316457" style="fill: #9467bd; stroke: #9467bd"/>
     <use xlink:href="#m1ca6418a7f" x="102.166643" y="26.92876" style="fill: #9467bd; stroke: #9467bd"/>
     <use xlink:href="#m1ca6418a7f" x="113.117471" y="30.05751" style="fill: #9467bd; stroke: #9467bd"/>
     <use xlink:href="#m1ca6418a7f" x="124.079195" y="33.484715" style="fill: #9467bd; stroke: #9467bd"/>
     <use xlink:href="#m1ca6418a7f" x="135.030023" y="37.441404" style="fill: #9467bd; stroke: #9467bd"/>
     <use xlink:href="#m1ca6418a7f" x="145.98085" y="41.475114" style="fill: #9467bd; stroke: #9467bd"/>
     <use xlink:href="#m1ca6418a7f" x="156.942574" y="45.325019" style="fill: #9467bd; stroke: #9467bd"/>
     <use xlink:href="#m1ca6418a7f" x="167.893402" y="49.450412" style="fill: #9467bd; stroke: #9467bd"/>
     <use xlink:href="#m1ca6418a7f" x="178.84423" y="53.810804" style="fill: #9467bd; stroke: #9467bd"/>
     <use xlink:href="#m1ca6418a7f" x="189.805954" y="58.12327" style="fill: #9467bd; stroke: #9467bd"/>
     <use xlink:href="#m1ca6418a7f" x="200.756782" y="62.410538" style="fill: #9467bd; stroke: #9467bd"/>
     <use xlink:href="#m1ca6418a7f" x="211.70761" y="66.66188" style="fill: #9467bd; stroke: #9467bd"/>
     <use xlink:href="#m1ca6418a7f" x="222.669334" y="70.881303" style="fill: #9467bd; stroke: #9467bd"/>
     <use xlink:href="#m1ca6418a7f" x="233.620162" y="74.973615" style="fill: #9467bd; stroke: #9467bd"/>
     <use xlink:href="#m1ca6418a7f" x="244.581886" y="79.079666" style="fill: #9467bd; stroke: #9467bd"/>
     <use xlink:href="#m1ca6418a7f" x="255.532714" y="83.160205" style="fill: #9467bd; stroke: #9467bd"/>
     <use xlink:href="#m1ca6418a7f" x="266.483541" y="87.196029" style="fill: #9467bd; stroke: #9467bd"/>
     <use xlink:href="#m1ca6418a7f" x="277.445265" y="91.24002" style="fill: #9467bd; stroke: #9467bd"/>
     <use xlink:href="#m1ca6418a7f" x="287.306459" y="94.858583" style="fill: #9467bd; stroke: #9467bd"/>
     <use xlink:href="#m1ca6418a7f" x="298.257286" y="98.892096" style="fill: #9467bd; stroke: #9467bd"/>
     <use xlink:href="#m1ca6418a7f" x="309.208114" y="102.888293" style="fill: #9467bd; stroke: #9467bd"/>
     <use xlink:href="#m1ca6418a7f" x="320.169838" y="106.894911" style="fill: #9467bd; stroke: #9467bd"/>
     <use xlink:href="#m1ca6418a7f" x="331.120666" y="110.87576" style="fill: #9467bd; stroke: #9467bd"/>
     <use xlink:href="#m1ca6418a7f" x="342.071494" y="114.873515" style="fill: #9467bd; stroke: #9467bd"/>
     <use xlink:href="#m1ca6418a7f" x="353.033218" y="118.845355" style="fill: #9467bd; stroke: #9467bd"/>
     <use xlink:href="#m1ca6418a7f" x="363.984046" y="122.838664" style="fill: #9467bd; stroke: #9467bd"/>
     <use xlink:href="#m1ca6418a7f" x="374.94577" y="126.832602" style="fill: #9467bd; stroke: #9467bd"/>
     <use xlink:href="#m1ca6418a7f" x="385.896598" y="130.825041" style="fill: #9467bd; stroke: #9467bd"/>
     <use xlink:href="#m1ca6418a7f" x="396.847426" y="134.814263" style="fill: #9467bd; stroke: #9467bd"/>
     <use xlink:href="#m1ca6418a7f" x="407.80915" y="138.800252" style="fill: #9467bd; stroke: #9467bd"/>
     <use xlink:href="#m1ca6418a7f" x="418.759977" y="142.798366" style="fill: #9467bd; stroke: #9467bd"/>
     <use xlink:href="#m1ca6418a7f" x="429.710805" y="146.802877" style="fill: #9467bd; stroke: #9467bd"/>
     <use xlink:href="#m1ca6418a7f" x="440.672529" y="150.846211" style="fill: #9467bd; stroke: #9467bd"/>
     <use xlink:href="#m1ca6418a7f" x="451.623357" y="155.002067" style="fill: #9467bd; stroke: #9467bd"/>
     <use xlink:href="#m1ca6418a7f" x="462.585081" y="159.179078" style="fill: #9467bd; stroke: #9467bd"/>
     <use xlink:href="#m1ca6418a7f" x="473.535909" y="163.354569" style="fill: #9467bd; stroke: #9467bd"/>
    </g>
   </g>
   <g id="patch_3">
    <path d="M 60.59 282.04
L 60.59 10.8
" style="fill: none; stroke: #000000; stroke-width: 0.8; stroke-linejoin: miter; stroke-linecap: square"/>
   </g>
   <g id="patch_4">
    <path d="M 493.2 282.04
L 493.2 10.8
" style="fill: none; stroke: #000000; stroke-width: 0.8; stroke-linejoin: miter; stroke-linecap: square"/>
   </g>
   <g id="patch_5">
    <path d="M 60.59 282.04
L 493.2 282.04
" style="fill: none; stroke: #000000; stroke-width: 0.8; stroke-linejoin: miter; stroke-linecap: square"/>
   </g>
   <g id="patch_6">
    <path d="M 60.59 10.8
L 493.2 10.8
" style="fill: none; stroke: #000000; stroke-width: 0.8; stroke-linejoin: miter; stroke-linecap: square"/>
   </g>
   <g id="legend_1">
    <g id="patch_7">
     <path d="M 377.0525 76.8025
L 487.6 76.8025
Q 489.2 76.8025 489.2 75.2025
L 489.2 16.4
Q 489.2 14.8 487.6 14.8
L 377.0525 14.8
Q 375.4525 14.8 375.4525 16.4
L 375.4525 75.2025
Q 375.4525 76.8025 377.0525 76.8025
z
" style="fill: #ffffff; opacity: 0.8; stroke: #cccccc; stroke-linejoin: miter"/>
    </g>
    <g id="line2d_32">
     <path d="M 378.6525 21.27875
L 386.6525 21.27875
L 394.6525 21.27875
" style="fill: none; stroke: #1f77b4; stroke-width: 1.5; stroke-linecap: square"/>
     <g>
      <use xlink:href="#me4588c6314" x="386.6525" y="21.27875" style="fill: #1f77b4; stroke: #1f77b4"/>
     </g>
    </g>
    <g id="text_16">
     <!-- baseline -->
     <g transform="translate(401.0525 24.07875) scale(0.08 -0.08)">
      <defs>
       <path id="DejaVuSans-62" d="M 3116 1747
Q 3116 2381 2855 2742
Q 2594 3103 2138 3103
Q 1681 3103 1420 2742
Q 1159 2381 1159 1747
Q 1159 1113 1420 752
Q 1681 391 2138 391
Q 2594 391 2855 752
Q 3116 1113 3116 1747
z
M 1159 2969
Q 1341 3281 1617 3432
Q 1894 3584 2278 3584
Q 2916 3584 3314 3078
Q 3713 2572 3713 1747
Q 3713 922 3314 415
Q 2916 -91 2278 -91
Q 1894 -91 1617 61
Q 1341 213 1159 525
L 1159 0
L 581 0
L 581 4863
L 1159 4863
L 1159 2969
z
" transform="scale(0.015625)"/>
       <path id="DejaVuSans-6c" d="M 603 4863
L 1178 4863
L 1178 0
L 603 0
L 603 4863
z
" transform="scale(0.015625)"/>
      </defs>
      <use xlink:href="#DejaVuSans-62"/>
      <use xlink:href="#DejaVuSans-61" x="63.476562"/>
      <use xlink:href="#DejaVuSans-73" x="124.755859"/>
      <use xlink:href="#DejaVuSans-65" x="176.855469"/>
      <use xlink:href="#DejaVuSans-6c" x="238.378906"/>
      <use xlink:href="#DejaVuSans-69" x="266.162109"/>
      <use xlink:href="#DejaVuSans-6e" x="293.945312"/>
      <use xlink:href="#DejaVuSans-65" x="357.324219"/>
     </g>
    </g>
    <g id="line2d_33">
     <path d="M 378.6525 33.02125
L 386.6525 33.02125
L 394.6525 33.02125
" style="fill: none; stroke: #ff7f0e; stroke-width: 1.5; stroke-linecap: square"/>
     <g>
      <use xlink:href="#m68d28596ec" x="386.6525" y="33.02125" style="fill: #ff7f0e; stroke: #ff7f0e"/>
     </g>
    </g>
    <g id="text_17">
     <!-- fixed_substeps4 -->
     <g transform="translate(401.0525 35.82125) scale(0.08 -0.08)">
      <defs>
       <path id="DejaVuSans-66" d="M 2375 4863
L 2375 4384
L 1825 4384
Q 1516 4384 1395 4259
Q 1275 4134 1275 3809
L 1275 3500
L 2222 3500
L 2222 3053
L 1275 3053
L 1275 0
L 697 0
L 697 3053
L 147 3053
L 147 3500
L 697 3500
L 697 3744
Q 697 4328 969 4595
Q 1241 4863 1831 4863
L 2375 4863
z
" transform="scale(0.015625)"/>
       <path id="DejaVuSans-78" d="M 3513 3500
L 2247 1797
L 3578 0
L 2900 0
L 1881 1375
L 863 0
L 184 0
L 1544 1831
L 300 3500
L 978 3500
L 1906 2253
L 2834 3500
L 3513 3500
z
" transform="scale(0.015625)"/>
       <path id="DejaVuSans-64" d="M 2906 2969
L 2906 4863
L 3481 4863
L 3481 0
L 2906 0
L 2906 525
Q 2725 213 2448 61
Q 2172 -91 1784 -91
Q 1150 -91 751 415
Q 353 922 353 1747
Q 353 2572 751 3078
Q 1150 3584 1784 3584
Q 2172 3584 2448 3432
Q 2725 3281 2906 2969
z
M 947 1747
Q 947 1113 1208 752
Q 1469 391 1925 391
Q 2381 391 2643 752
Q 2906 1113 2906 1747
Q 2906 2381 2643 2742
Q 2381 3103 1925 3103
Q 1469 3103 1208 2742
Q 947 2381 947 1747
z
" transform="scale(0.015625)"/>
       <path id="DejaVuSans-5f" d="M 3263 -1063
L 3263 -1509
L -63 -1509
L -63 -1063
L 3263 -1063
z
" transform="scale(0.015625)"/>
       <path id="DejaVuSans-75" d="M 544 1381
L 544 3500
L 1119 3500
L 1119 1403
Q 1119 906 1312 657
Q 1506 409 1894 409
Q 2359 409 2629 706
Q 2900 1003 2900 1516
L 2900 3500
L 3475 3500
L 3475 0
L 2900 0
L 2900 538
Q 2691 219 2414 64
Q 2138 -91 1772 -91
Q 1169 -91 856 284
Q 544 659 544 1381
z
M 1991 3584
L 1991 3584
z
" transform="scale(0.015625)"/>
      </defs>
      <use xlink:href="#DejaVuSans-66"/>
      <use xlink:href="#DejaVuSans-69" x="35.205078"/>
      <use xlink:href="#DejaVuSans-78" x="62.988281"/>
      <use xlink:href="#DejaVuSans-65" x="119.042969"/>
      <use xlink:href="#DejaVuSans-64" x="180.566406"/>
      <use xlink:href="#DejaVuSans-5f" x="244.042969"/>
      <use xlink:href="#DejaVuSans-73" x="294.042969"/>
      <use xlink:href="#DejaVuSans-75" x="346.142578"/>
      <use xlink:href="#DejaVuSans-62" x="409.521484"/>
      <use xlink:href="#DejaVuSans-73" x="472.998047"/>
      <use xlink:href="#DejaVuSans-74" x="525.097656"/>
      <use xlink:href="#DejaVuSans-65" x="564.306641"/>
      <use xlink:href="#DejaVuSans-70" x="625.830078"/>
      <use xlink:href="#DejaVuSans-73" x="689.306641"/>
      <use xlink:href="#DejaVuSans-34" x="741.40625"/>
     </g>
    </g>
    <g id="line2d_34">
     <path d="M 378.6525 44.98625
L 386.6525 44.98625
L 394.6525 44.98625
" style="fill: none; stroke: #2ca02c; stroke-width: 1.5; stroke-linecap: square"/>
     <g>
      <use xlink:href="#mcaa2512046" x="386.6525" y="44.98625" style="fill: #2ca02c; stroke: #2ca02c"/>
     </g>
    </g>
    <g id="text_18">
     <!-- adaptive_substeps16 -->
     <g transform="translate(401.0525 47.78625) scale(0.08 -0.08)">
      <defs>
       <path id="DejaVuSans-76" d="M 191 3500
L 800 3500
L 1894 563
L 2988 3500
L 3597 3500
L 2284 0
L 1503 0
L 191 3500
z
" transform="scale(0.015625)"/>
      </defs>
      <use xlink:href="#DejaVuSans-61"/>
      <use xlink:href="#DejaVuSans-64" x="61.279297"/>
      <use xlink:href="#DejaVuSans-61" x="124.755859"/>
      <use xlink:href="#DejaVuSans-70" x="186.035156"/>
      <use xlink:href="#DejaVuSans-74" x="249.511719"/>
      <use xlink:href="#DejaVuSans-69" x="288.720703"/>
      <use xlink:href="#DejaVuSans-76" x="316.503906"/>
      <use xlink:href="#DejaVuSans-65" x="375.683594"/>
      <use xlink:href="#DejaVuSans-5f" x="437.207031"/>
      <use xlink:href="#DejaVuSans-73" x="487.207031"/>
      <use xlink:href="#DejaVuSans-75" x="539.306641"/>
      <use xlink:href="#DejaVuSans-62" x="602.685547"/>
      <use xlink:href="#DejaVuSans-73" x="666.162109"/>
      <use xlink:href="#DejaVuSans-74" x="718.261719"/>
      <use xlink:href="#DejaVuSans-65" x="757.470703"/>
      <use xlink:href="#DejaVuSans-70" x="818.994141"/>
      <use xlink:href="#DejaVuSans-73" x="882.470703"/>
      <use xlink:href="#DejaVuSans-31" x="934.570312"/>
      <use xlink:href="#DejaVuSans-36" x="998.193359"/>
     </g>
    </g>
    <g id="line2d_35">
     <path d="M 378.6525 56.95125
L 386.6525 56.95125
L 394.6525 56.95125
" style="fill: none; stroke: #d62728; stroke-width: 1.5; stroke-linecap: square"/>
     <g>
      <use xlink:href="#m37b609214d" x="386.6525" y="56.95125" style="fill: #d62728; stroke: #d62728"/>
     </g>
    </g>
    <g id="text_19">
     <!-- adaptive_fallback16 -->
     <g transform="translate(401.0525 59.75125) scale(0.08 -0.08)">
      <defs>
       <path id="DejaVuSans-6b" d="M 581 4863
L 1159 4863
L 1159 1991
L 2875 3500
L 3609 3500
L 1753 1863
L 3688 0
L 2938 0
L 1159 1709
L 1159 0
L 581 0
L 581 4863
z
" transform="scale(0.015625)"/>
      </defs>
      <use xlink:href="#DejaVuSans-61"/>
      <use xlink:href="#DejaVuSans-64" x="61.279297"/>
      <use xlink:href="#DejaVuSans-61" x="124.755859"/>
      <use xlink:href="#DejaVuSans-70" x="186.035156"/>
      <use xlink:href="#DejaVuSans-74" x="249.511719"/>
      <use xlink:href="#DejaVuSans-69" x="288.720703"/>
      <use xlink:href="#DejaVuSans-76" x="316.503906"/>
      <use xlink:href="#DejaVuSans-65" x="375.683594"/>
      <use xlink:href="#DejaVuSans-5f" x="437.207031"/>
      <use xlink:href="#DejaVuSans-66" x="487.207031"/>
      <use xlink:href="#DejaVuSans-61" x="522.412109"/>
      <use xlink:href="#DejaVuSans-6c" x="583.691406"/>
      <use xlink:href="#DejaVuSans-6c" x="611.474609"/>
      <use xlink:href="#DejaVuSans-62" x="639.257812"/>
      <use xlink:href="#DejaVuSans-61" x="702.734375"/>
      <use xlink:href="#DejaVuSans-63" x="764.013672"/>
      <use xlink:href="#DejaVuSans-6b" x="818.994141"/>
      <use xlink:href="#DejaVuSans-31" x="876.904297"/>
      <use xlink:href="#DejaVuSans-36" x="940.527344"/>
     </g>
    </g>
    <g id="line2d_36">
     <path d="M 378.6525 68.91625
L 386.6525 68.91625
L 394.6525 68.91625
" style="fill: none; stroke: #9467bd; stroke-width: 1.5; stroke-linecap: square"/>
     <g>
      <use xlink:href="#m1ca6418a7f" x="386.6525" y="68.91625" style="fill: #9467bd; stroke: #9467bd"/>
     </g>
    </g>
    <g id="text_20">
     <!-- half_speed_adaptive -->
     <g transform="translate(401.0525 71.71625) scale(0.08 -0.08)">
      <defs>
       <path id="DejaVuSans-68" d="M 3513 2113
L 3513 0
L 2938 0
L 2938 2094
Q 2938 2591 2744 2837
Q 2550 3084 2163 3084
Q 1697 3084 1428 2787
Q 1159 2491 1159 1978
L 1159 0
L 581 0
L 581 4863
L 1159 4863
L 1159 2956
Q 1366 3272 1645 3428
Q 1925 3584 2291 3584
Q 2894 3584 3203 3211
Q 3513 2838 3513 2113
z
" transform="scale(0.015625)"/>
      </defs>
      <use xlink:href="#DejaVuSans-68"/>
      <use xlink:href="#DejaVuSans-61" x="63.378906"/>
      <use xlink:href="#DejaVuSans-6c" x="124.658203"/>
      <use xlink:href="#DejaVuSans-66" x="152.441406"/>
      <use xlink:href="#DejaVuSans-5f" x="187.646484"/>
      <use xlink:href="#DejaVuSans-73" x="237.646484"/>
      <use xlink:href="#DejaVuSans-70" x="289.746094"/>
      <use xlink:href="#DejaVuSans-65" x="353.222656"/>
      <use xlink:href="#DejaVuSans-65" x="414.746094"/>
      <use xlink:href="#DejaVuSans-64" x="476.269531"/>
      <use xlink:href="#DejaVuSans-5f" x="539.746094"/>
      <use xlink:href="#DejaVuSans-61" x="589.746094"/>
      <use xlink:href="#DejaVuSans-64" x="651.025391"/>
      <use xlink:href="#DejaVuSans-61" x="714.501953"/>
      <use xlink:href="#DejaVuSans-70" x="775.78125"/>
      <use xlink:href="#DejaVuSans-74" x="839.257812"/>
      <use xlink:href="#DejaVuSans-69" x="878.466797"/>
      <use xlink:href="#DejaVuSans-76" x="906.25"/>
      <use xlink:href="#DejaVuSans-65" x="965.429688"/>
     </g>
    </g>
   </g>
  </g>
 </g>
 <defs>
  <clipPath id="p54ef50f567">
   <rect x="60.59" y="10.8" width="432.61" height="271.24"/>
  </clipPath>
 </defs>
</svg>
