<?xml version="1.0" encoding="utf-8" standalone="no"?>
<!DOCTYPE svg PUBLIC "-//W3C//DTD SVG 1.1//EN"
  "http://www.w3.org/Graphics/SVG/1.1/DTD/svg11.dtd">
<svg xmlns:xlink="http://www.w3.org/1999/xlink" width="504pt" height="324pt" viewBox="0 0 504 324" xmlns="http://www.w3.org/2000/svg" version="1.1">
 <metadata>
  <rdf:RDF xmlns:dc="http://purl.org/dc/elements/1.1/" xmlns:cc="http://creativecommons.org/ns#" xmlns:rdf="http://www.w3.org/1999/02/22-rdf-syntax-ns#">
   <cc:Work>
    <dc:type rdf:resource="http://purl.org/dc/dcmitype/StillImage"/>
    <dc:date>2026-05-14T04:26:48.424114</dc:date>
    <dc:format>image/svg+xml</dc:format>
    <dc:creator>
     <cc:Agent>
      <dc:title>Matplotlib v3.9.4, https://matplotlib.org/</dc:title>
     </cc:Agent>
    </dc:creator>
   </cc:Work>
  </rdf:RDF>
 </metadata>
 <defs>
  <style type="text/css">*{stroke-linejoin: round; stroke-linecap: butt}</style>
 </defs>
 <g id="figure_1">
  <g id="patch_1">
   <path d="M 0 324 
L 504 324 
L 504 0 
L 0 0 
z
" style="fill: #ffffff"/>
  </g>
  <g id="axes_1">
   <g id="patch_2">
    <path d="M 60.32 282.04 
L 493.2 282.04 
L 493.2 10.8 
L 60.32 10.8 
z
" style="fill: #ffffff"/>
   </g>
   <g id="matplotlib.axis_1">
    <g id="xtick_1">
     <g id="line2d_1">
      <path d="M 79.996364 282.04 
L 79.996364 10.8 
" clip-path="url(#p4f80af9312)" style="fill: none; stroke: #b0b0b0; stroke-opacity: 0.3; stroke-width: 0.8; stroke-linecap: square"/>
     </g>
     <g id="line2d_2">
      <defs>
       <path id="m112cb08921" d="M 0 0 
L 0 3.5 
" style="stroke: #000000; stroke-width: 0.8"/>
      </defs>
      <g>
       <use xlink:href="#m112cb08921" x="79.996364" y="282.04" style="stroke: #000000; stroke-width: 0.8"/>
      </g>
     </g>
     <g id="text_1">
      <!-- 0.000 -->
      <g transform="translate(65.682301 296.638438) scale(0.1 -0.1)">
       <defs>
        <path id="DejaVuSans-30" d="M 2034 4250 
Q 1547 4250 1301 3770 
Q 1056 3291 1056 2328 
Q 1056 1369 1301 889 
Q 1547 409 2034 409 
Q 2525 409 2770 889 
Q 3016 1369 3016 2328 
Q 3016 3291 2770 3770 
Q 2525 4250 2034 4250 
z
M 2034 4750 
Q 2819 4750 3233 4129 
Q 3647 3509 3647 2328 
Q 3647 1150 3233 529 
Q 2819 -91 2034 -91 
Q 1250 -91 836 529 
Q 422 1150 422 2328 
Q 422 3509 836 4129 
Q 1250 4750 2034 4750 
z
" transform="scale(0.015625)"/>
        <path id="DejaVuSans-2e" d="M 684 794 
L 1344 794 
L 1344 0 
L 684 0 
L 684 794 
z
" transform="scale(0.015625)"/>
       </defs>
       <use xlink:href="#DejaVuSans-30"/>
       <use xlink:href="#DejaVuSans-2e" x="63.623047"/>
       <use xlink:href="#DejaVuSans-30" x="95.410156"/>
       <use xlink:href="#DejaVuSans-30" x="159.033203"/>
       <use xlink:href="#DejaVuSans-30" x="222.65625"/>
      </g>
     </g>
    </g>
    <g id="xtick_2">
     <g id="line2d_3">
      <path d="M 134.512097 282.04 
L 134.512097 10.8 
" clip-path="url(#p4f80af9312)" style="fill: none; stroke: #b0b0b0; stroke-opacity: 0.3; stroke-width: 0.8; stroke-linecap: square"/>
     </g>
     <g id="line2d_4">
      <g>
       <use xlink:href="#m112cb08921" x="134.512097" y="282.04" style="stroke: #000000; stroke-width: 0.8"/>
      </g>
     </g>
     <g id="text_2">
      <!-- 0.005 -->
      <g transform="translate(120.198034 296.638438) scale(0.1 -0.1)">
       <defs>
        <path id="DejaVuSans-35" d="M 691 4666 
L 3169 4666 
L 3169 4134 
L 1269 4134 
L 1269 2991 
Q 1406 3038 1543 3061 
Q 1681 3084 1819 3084 
Q 2600 3084 3056 2656 
Q 3513 2228 3513 1497 
Q 3513 744 3044 326 
Q 2575 -91 1722 -91 
Q 1428 -91 1123 -41 
Q 819 9 494 109 
L 494 744 
Q 775 591 1075 516 
Q 1375 441 1709 441 
Q 2250 441 2565 725 
Q 2881 1009 2881 1497 
Q 2881 1984 2565 2268 
Q 2250 2553 1709 2553 
Q 1456 2553 1204 2497 
Q 953 2441 691 2322 
L 691 4666 
z
" transform="scale(0.015625)"/>
       </defs>
       <use xlink:href="#DejaVuSans-30"/>
       <use xlink:href="#DejaVuSans-2e" x="63.623047"/>
       <use xlink:href="#DejaVuSans-30" x="95.410156"/>
       <use xlink:href="#DejaVuSans-30" x="159.033203"/>
       <use xlink:href="#DejaVuSans-35" x="222.65625"/>
      </g>
     </g>
    </g>
    <g id="xtick_3">
     <g id="line2d_5">
      <path d="M 189.02783 282.04 
L 189.02783 10.8 
" clip-path="url(#p4f80af9312)" style="fill: none; stroke: #b0b0b0; stroke-opacity: 0.3; stroke-width: 0.8; stroke-linecap: square"/>
     </g>
     <g id="line2d_6">
      <g>
       <use xlink:href="#m112cb08921" x="189.02783" y="282.04" style="stroke: #000000; stroke-width: 0.8"/>
      </g>
     </g>
     <g id="text_3">
      <!-- 0.010 -->
      <g transform="translate(174.713768 296.638438) scale(0.1 -0.1)">
       <defs>
        <path id="DejaVuSans-31" d="M 794 531 
L 1825 531 
L 1825 4091 
L 703 3866 
L 703 4441 
L 1819 4666 
L 2450 4666 
L 2450 531 
L 3481 531 
L 3481 0 
L 794 0 
L 794 531 
z
" transform="scale(0.015625)"/>
       </defs>
       <use xlink:href="#DejaVuSans-30"/>
       <use xlink:href="#DejaVuSans-2e" x="63.623047"/>
       <use xlink:href="#DejaVuSans-30" x="95.410156"/>
       <use xlink:href="#DejaVuSans-31" x="159.033203"/>
       <use xlink:href="#DejaVuSans-30" x="222.65625"/>
      </g>
     </g>
    </g>
    <g id="xtick_4">
     <g id="line2d_7">
      <path d="M 243.543564 282.04 
L 243.543564 10.8 
" clip-path="url(#p4f80af9312)" style="fill: none; stroke: #b0b0b0; stroke-opacity: 0.3; stroke-width: 0.8; stroke-linecap: square"/>
     </g>
     <g id="line2d_8">
      <g>
       <use xlink:href="#m112cb08921" x="243.543564" y="282.04" style="stroke: #000000; stroke-width: 0.8"/>
      </g>
     </g>
     <g id="text_4">
      <!-- 0.015 -->
      <g transform="translate(229.229501 296.638438) scale(0.1 -0.1)">
       <use xlink:href="#DejaVuSans-30"/>
       <use xlink:href="#DejaVuSans-2e" x="63.623047"/>
       <use xlink:href="#DejaVuSans-30" x="95.410156"/>
       <use xlink:href="#DejaVuSans-31" x="159.033203"/>
       <use xlink:href="#DejaVuSans-35" x="222.65625"/>
      </g>
     </g>
    </g>
    <g id="xtick_5">
     <g id="line2d_9">
      <path d="M 298.059297 282.04 
L 298.059297 10.8 
" clip-path="url(#p4f80af9312)" style="fill: none; stroke: #b0b0b0; stroke-opacity: 0.3; stroke-width: 0.8; stroke-linecap: square"/>
     </g>
     <g id="line2d_10">
      <g>
       <use xlink:href="#m112cb08921" x="298.059297" y="282.04" style="stroke: #000000; stroke-width: 0.8"/>
      </g>
     </g>
     <g id="text_5">
      <!-- 0.020 -->
      <g transform="translate(283.745235 296.638438) scale(0.1 -0.1)">
       <defs>
        <path id="DejaVuSans-32" d="M 1228 531 
L 3431 531 
L 3431 0 
L 469 0 
L 469 531 
Q 828 903 1448 1529 
Q 2069 2156 2228 2338 
Q 2531 2678 2651 2914 
Q 2772 3150 2772 3378 
Q 2772 3750 2511 3984 
Q 2250 4219 1831 4219 
Q 1534 4219 1204 4116 
Q 875 4013 500 3803 
L 500 4441 
Q 881 4594 1212 4672 
Q 1544 4750 1819 4750 
Q 2544 4750 2975 4387 
Q 3406 4025 3406 3419 
Q 3406 3131 3298 2873 
Q 3191 2616 2906 2266 
Q 2828 2175 2409 1742 
Q 1991 1309 1228 531 
z
" transform="scale(0.015625)"/>
       </defs>
       <use xlink:href="#DejaVuSans-30"/>
       <use xlink:href="#DejaVuSans-2e" x="63.623047"/>
       <use xlink:href="#DejaVuSans-30" x="95.410156"/>
       <use xlink:href="#DejaVuSans-32" x="159.033203"/>
       <use xlink:href="#DejaVuSans-30" x="222.65625"/>
      </g>
     </g>
    </g>
    <g id="xtick_6">
     <g id="line2d_11">
      <path d="M 352.57503 282.04 
L 352.57503 10.8 
" clip-path="url(#p4f80af9312)" style="fill: none; stroke: #b0b0b0; stroke-opacity: 0.3; stroke-width: 0.8; stroke-linecap: square"/>
     </g>
     <g id="line2d_12">
      <g>
       <use xlink:href="#m112cb08921" x="352.57503" y="282.04" style="stroke: #000000; stroke-width: 0.8"/>
      </g>
     </g>
     <g id="text_6">
      <!-- 0.025 -->
      <g transform="translate(338.260968 296.638438) scale(0.1 -0.1)">
       <use xlink:href="#DejaVuSans-30"/>
       <use xlink:href="#DejaVuSans-2e" x="63.623047"/>
       <use xlink:href="#DejaVuSans-30" x="95.410156"/>
       <use xlink:href="#DejaVuSans-32" x="159.033203"/>
       <use xlink:href="#DejaVuSans-35" x="222.65625"/>
      </g>
     </g>
    </g>
    <g id="xtick_7">
     <g id="line2d_13">
      <path d="M 407.090764 282.04 
L 407.090764 10.8 
" clip-path="url(#p4f80af9312)" style="fill: none; stroke: #b0b0b0; stroke-opacity: 0.3; stroke-width: 0.8; stroke-linecap: square"/>
     </g>
     <g id="line2d_14">
      <g>
       <use xlink:href="#m112cb08921" x="407.090764" y="282.04" style="stroke: #000000; stroke-width: 0.8"/>
      </g>
     </g>
     <g id="text_7">
      <!-- 0.030 -->
      <g transform="translate(392.776701 296.638438) scale(0.1 -0.1)">
       <defs>
        <path id="DejaVuSans-33" d="M 2597 2516 
Q 3050 2419 3304 2112 
Q 3559 1806 3559 1356 
Q 3559 666 3084 287 
Q 2609 -91 1734 -91 
Q 1441 -91 1130 -33 
Q 819 25 488 141 
L 488 750 
Q 750 597 1062 519 
Q 1375 441 1716 441 
Q 2309 441 2620 675 
Q 2931 909 2931 1356 
Q 2931 1769 2642 2001 
Q 2353 2234 1838 2234 
L 1294 2234 
L 1294 2753 
L 1863 2753 
Q 2328 2753 2575 2939 
Q 2822 3125 2822 3475 
Q 2822 3834 2567 4026 
Q 2313 4219 1838 4219 
Q 1578 4219 1281 4162 
Q 984 4106 628 3988 
L 628 4550 
Q 988 4650 1302 4700 
Q 1616 4750 1894 4750 
Q 2613 4750 3031 4423 
Q 3450 4097 3450 3541 
Q 3450 3153 3228 2886 
Q 3006 2619 2597 2516 
z
" transform="scale(0.015625)"/>
       </defs>
       <use xlink:href="#DejaVuSans-30"/>
       <use xlink:href="#DejaVuSans-2e" x="63.623047"/>
       <use xlink:href="#DejaVuSans-30" x="95.410156"/>
       <use xlink:href="#DejaVuSans-33" x="159.033203"/>
       <use xlink:href="#DejaVuSans-30" x="222.65625"/>
      </g>
     </g>
    </g>
    <g id="xtick_8">
     <g id="line2d_15">
      <path d="M 461.606497 282.04 
L 461.606497 10.8 
" clip-path="url(#p4f80af9312)" style="fill: none; stroke: #b0b0b0; stroke-opacity: 0.3; stroke-width: 0.8; stroke-linecap: square"/>
     </g>
     <g id="line2d_16">
      <g>
       <use xlink:href="#m112cb08921" x="461.606497" y="282.04" style="stroke: #000000; stroke-width: 0.8"/>
      </g>
     </g>
     <g id="text_8">
      <!-- 0.035 -->
      <g transform="translate(447.292435 296.638438) scale(0.1 -0.1)">
       <use xlink:href="#DejaVuSans-30"/>
       <use xlink:href="#DejaVuSans-2e" x="63.623047"/>
       <use xlink:href="#DejaVuSans-30" x="95.410156"/>
       <use xlink:href="#DejaVuSans-33" x="159.033203"/>
       <use xlink:href="#DejaVuSans-35" x="222.65625"/>
      </g>
     </g>
    </g>
    <g id="text_9">
     <!-- time [s] -->
     <g transform="translate(257.368594 310.316563) scale(0.1 -0.1)">
      <defs>
       <path id="DejaVuSans-74" d="M 1172 4494 
L 1172 3500 
L 2356 3500 
L 2356 3053 
L 1172 3053 
L 1172 1153 
Q 1172 725 1289 603 
Q 1406 481 1766 481 
L 2356 481 
L 2356 0 
L 1766 0 
Q 1100 0 847 248 
Q 594 497 594 1153 
L 594 3053 
L 172 3053 
L 172 3500 
L 594 3500 
L 594 4494 
L 1172 4494 
z
" transform="scale(0.015625)"/>
       <path id="DejaVuSans-69" d="M 603 3500 
L 1178 3500 
L 1178 0 
L 603 0 
L 603 3500 
z
M 603 4863 
L 1178 4863 
L 1178 4134 
L 603 4134 
L 603 4863 
z
" transform="scale(0.015625)"/>
       <path id="DejaVuSans-6d" d="M 3328 2828 
Q 3544 3216 3844 3400 
Q 4144 3584 4550 3584 
Q 5097 3584 5394 3201 
Q 5691 2819 5691 2113 
L 5691 0 
L 5113 0 
L 5113 2094 
Q 5113 2597 4934 2840 
Q 4756 3084 4391 3084 
Q 3944 3084 3684 2787 
Q 3425 2491 3425 1978 
L 3425 0 
L 2847 0 
L 2847 2094 
Q 2847 2600 2669 2842 
Q 2491 3084 2119 3084 
Q 1678 3084 1418 2786 
Q 1159 2488 1159 1978 
L 1159 0 
L 581 0 
L 581 3500 
L 1159 3500 
L 1159 2956 
Q 1356 3278 1631 3431 
Q 1906 3584 2284 3584 
Q 2666 3584 2933 3390 
Q 3200 3197 3328 2828 
z
" transform="scale(0.015625)"/>
       <path id="DejaVuSans-65" d="M 3597 1894 
L 3597 1613 
L 953 1613 
Q 991 1019 1311 708 
Q 1631 397 2203 397 
Q 2534 397 2845 478 
Q 3156 559 3463 722 
L 3463 178 
Q 3153 47 2828 -22 
Q 2503 -91 2169 -91 
Q 1331 -91 842 396 
Q 353 884 353 1716 
Q 353 2575 817 3079 
Q 1281 3584 2069 3584 
Q 2775 3584 3186 3129 
Q 3597 2675 3597 1894 
z
M 3022 2063 
Q 3016 2534 2758 2815 
Q 2500 3097 2075 3097 
Q 1594 3097 1305 2825 
Q 1016 2553 972 2059 
L 3022 2063 
z
" transform="scale(0.015625)"/>
       <path id="DejaVuSans-20" transform="scale(0.015625)"/>
       <path id="DejaVuSans-5b" d="M 550 4863 
L 1875 4863 
L 1875 4416 
L 1125 4416 
L 1125 -397 
L 1875 -397 
L 1875 -844 
L 550 -844 
L 550 4863 
z
" transform="scale(0.015625)"/>
       <path id="DejaVuSans-73" d="M 2834 3397 
L 2834 2853 
Q 2591 2978 2328 3040 
Q 2066 3103 1784 3103 
Q 1356 3103 1142 2972 
Q 928 2841 928 2578 
Q 928 2378 1081 2264 
Q 1234 2150 1697 2047 
L 1894 2003 
Q 2506 1872 2764 1633 
Q 3022 1394 3022 966 
Q 3022 478 2636 193 
Q 2250 -91 1575 -91 
Q 1294 -91 989 -36 
Q 684 19 347 128 
L 347 722 
Q 666 556 975 473 
Q 1284 391 1588 391 
Q 1994 391 2212 530 
Q 2431 669 2431 922 
Q 2431 1156 2273 1281 
Q 2116 1406 1581 1522 
L 1381 1569 
Q 847 1681 609 1914 
Q 372 2147 372 2553 
Q 372 3047 722 3315 
Q 1072 3584 1716 3584 
Q 2034 3584 2315 3537 
Q 2597 3491 2834 3397 
z
" transform="scale(0.015625)"/>
       <path id="DejaVuSans-5d" d="M 1947 4863 
L 1947 -844 
L 622 -844 
L 622 -397 
L 1369 -397 
L 1369 4416 
L 622 4416 
L 622 4863 
L 1947 4863 
z
" transform="scale(0.015625)"/>
      </defs>
      <use xlink:href="#DejaVuSans-74"/>
      <use xlink:href="#DejaVuSans-69" x="39.208984"/>
      <use xlink:href="#DejaVuSans-6d" x="66.992188"/>
      <use xlink:href="#DejaVuSans-65" x="164.404297"/>
      <use xlink:href="#DejaVuSans-20" x="225.927734"/>
      <use xlink:href="#DejaVuSans-5b" x="257.714844"/>
      <use xlink:href="#DejaVuSans-73" x="296.728516"/>
      <use xlink:href="#DejaVuSans-5d" x="348.828125"/>
     </g>
    </g>
   </g>
   <g id="matplotlib.axis_2">
    <g id="ytick_1">
     <g id="line2d_17">
      <path d="M 60.32 269.710909 
L 493.2 269.710909 
" clip-path="url(#p4f80af9312)" style="fill: none; stroke: #b0b0b0; stroke-opacity: 0.3; stroke-width: 0.8; stroke-linecap: square"/>
     </g>
     <g id="line2d_18">
      <defs>
       <path id="me8f416fc80" d="M 0 0 
L -3.5 0 
" style="stroke: #000000; stroke-width: 0.8"/>
      </defs>
      <g>
       <use xlink:href="#me8f416fc80" x="60.32" y="269.710909" style="stroke: #000000; stroke-width: 0.8"/>
      </g>
     </g>
     <g id="text_10">
      <!-- 0.000 -->
      <g transform="translate(24.691875 273.510128) scale(0.1 -0.1)">
       <use xlink:href="#DejaVuSans-30"/>
       <use xlink:href="#DejaVuSans-2e" x="63.623047"/>
       <use xlink:href="#DejaVuSans-30" x="95.410156"/>
       <use xlink:href="#DejaVuSans-30" x="159.033203"/>
       <use xlink:href="#DejaVuSans-30" x="222.65625"/>
      </g>
     </g>
    </g>
    <g id="ytick_2">
     <g id="line2d_19">
      <path d="M 60.32 228.034968 
L 493.2 228.034968 
" clip-path="url(#p4f80af9312)" style="fill: none; stroke: #b0b0b0; stroke-opacity: 0.3; stroke-width: 0.8; stroke-linecap: square"/>
     </g>
     <g id="line2d_20">
      <g>
       <use xlink:href="#me8f416fc80" x="60.32" y="228.034968" style="stroke: #000000; stroke-width: 0.8"/>
      </g>
     </g>
     <g id="text_11">
      <!-- 0.001 -->
      <g transform="translate(24.691875 231.834187) scale(0.1 -0.1)">
       <use xlink:href="#DejaVuSans-30"/>
       <use xlink:href="#DejaVuSans-2e" x="63.623047"/>
       <use xlink:href="#DejaVuSans-30" x="95.410156"/>
       <use xlink:href="#DejaVuSans-30" x="159.033203"/>
       <use xlink:href="#DejaVuSans-31" x="222.65625"/>
      </g>
     </g>
    </g>
    <g id="ytick_3">
     <g id="line2d_21">
      <path d="M 60.32 186.359026 
L 493.2 186.359026 
" clip-path="url(#p4f80af9312)" style="fill: none; stroke: #b0b0b0; stroke-opacity: 0.3; stroke-width: 0.8; stroke-linecap: square"/>
     </g>
     <g id="line2d_22">
      <g>
       <use xlink:href="#me8f416fc80" x="60.32" y="186.359026" style="stroke: #000000; stroke-width: 0.8"/>
      </g>
     </g>
     <g id="text_12">
      <!-- 0.002 -->
      <g transform="translate(24.691875 190.158245) scale(0.1 -0.1)">
       <use xlink:href="#DejaVuSans-30"/>
       <use xlink:href="#DejaVuSans-2e" x="63.623047"/>
       <use xlink:href="#DejaVuSans-30" x="95.410156"/>
       <use xlink:href="#DejaVuSans-30" x="159.033203"/>
       <use xlink:href="#DejaVuSans-32" x="222.65625"/>
      </g>
     </g>
    </g>
    <g id="ytick_4">
     <g id="line2d_23">
      <path d="M 60.32 144.683085 
L 493.2 144.683085 
" clip-path="url(#p4f80af9312)" style="fill: none; stroke: #b0b0b0; stroke-opacity: 0.3; stroke-width: 0.8; stroke-linecap: square"/>
     </g>
     <g id="line2d_24">
      <g>
       <use xlink:href="#me8f416fc80" x="60.32" y="144.683085" style="stroke: #000000; stroke-width: 0.8"/>
      </g>
     </g>
     <g id="text_13">
      <!-- 0.003 -->
      <g transform="translate(24.691875 148.482304) scale(0.1 -0.1)">
       <use xlink:href="#DejaVuSans-30"/>
       <use xlink:href="#DejaVuSans-2e" x="63.623047"/>
       <use xlink:href="#DejaVuSans-30" x="95.410156"/>
       <use xlink:href="#DejaVuSans-30" x="159.033203"/>
       <use xlink:href="#DejaVuSans-33" x="222.65625"/>
      </g>
     </g>
    </g>
    <g id="ytick_5">
     <g id="line2d_25">
      <path d="M 60.32 103.007144 
L 493.2 103.007144 
" clip-path="url(#p4f80af9312)" style="fill: none; stroke: #b0b0b0; stroke-opacity: 0.3; stroke-width: 0.8; stroke-linecap: square"/>
     </g>
     <g id="line2d_26">
      <g>
       <use xlink:href="#me8f416fc80" x="60.32" y="103.007144" style="stroke: #000000; stroke-width: 0.8"/>
      </g>
     </g>
     <g id="text_14">
      <!-- 0.004 -->
      <g transform="translate(24.691875 106.806363) scale(0.1 -0.1)">
       <defs>
        <path id="DejaVuSans-34" d="M 2419 4116 
L 825 1625 
L 2419 1625 
L 2419 4116 
z
M 2253 4666 
L 3047 4666 
L 3047 1625 
L 3713 1625 
L 3713 1100 
L 3047 1100 
L 3047 0 
L 2419 0 
L 2419 1100 
L 313 1100 
L 313 1709 
L 2253 4666 
z
" transform="scale(0.015625)"/>
       </defs>
       <use xlink:href="#DejaVuSans-30"/>
       <use xlink:href="#DejaVuSans-2e" x="63.623047"/>
       <use xlink:href="#DejaVuSans-30" x="95.410156"/>
       <use xlink:href="#DejaVuSans-30" x="159.033203"/>
       <use xlink:href="#DejaVuSans-34" x="222.65625"/>
      </g>
     </g>
    </g>
    <g id="ytick_6">
     <g id="line2d_27">
      <path d="M 60.32 61.331203 
L 493.2 61.331203 
" clip-path="url(#p4f80af9312)" style="fill: none; stroke: #b0b0b0; stroke-opacity: 0.3; stroke-width: 0.8; stroke-linecap: square"/>
     </g>
     <g id="line2d_28">
      <g>
       <use xlink:href="#me8f416fc80" x="60.32" y="61.331203" style="stroke: #000000; stroke-width: 0.8"/>
      </g>
     </g>
     <g id="text_15">
      <!-- 0.005 -->
      <g transform="translate(24.691875 65.130421) scale(0.1 -0.1)">
       <use xlink:href="#DejaVuSans-30"/>
       <use xlink:href="#DejaVuSans-2e" x="63.623047"/>
       <use xlink:href="#DejaVuSans-30" x="95.410156"/>
       <use xlink:href="#DejaVuSans-30" x="159.033203"/>
       <use xlink:href="#DejaVuSans-35" x="222.65625"/>
      </g>
     </g>
    </g>
    <g id="ytick_7">
     <g id="line2d_29">
      <path d="M 60.32 19.655261 
L 493.2 19.655261 
" clip-path="url(#p4f80af9312)" style="fill: none; stroke: #b0b0b0; stroke-opacity: 0.3; stroke-width: 0.8; stroke-linecap: square"/>
     </g>
     <g id="line2d_30">
      <g>
       <use xlink:href="#me8f416fc80" x="60.32" y="19.655261" style="stroke: #000000; stroke-width: 0.8"/>
      </g>
     </g>
     <g id="text_16">
      <!-- 0.006 -->
      <g transform="translate(24.691875 23.45448) scale(0.1 -0.1)">
       <defs>
        <path id="DejaVuSans-36" d="M 2113 2584 
Q 1688 2584 1439 2293 
Q 1191 2003 1191 1497 
Q 1191 994 1439 701 
Q 1688 409 2113 409 
Q 2538 409 2786 701 
Q 3034 994 3034 1497 
Q 3034 2003 2786 2293 
Q 2538 2584 2113 2584 
z
M 3366 4563 
L 3366 3988 
Q 3128 4100 2886 4159 
Q 2644 4219 2406 4219 
Q 1781 4219 1451 3797 
Q 1122 3375 1075 2522 
Q 1259 2794 1537 2939 
Q 1816 3084 2150 3084 
Q 2853 3084 3261 2657 
Q 3669 2231 3669 1497 
Q 3669 778 3244 343 
Q 2819 -91 2113 -91 
Q 1303 -91 875 529 
Q 447 1150 447 2328 
Q 447 3434 972 4092 
Q 1497 4750 2381 4750 
Q 2619 4750 2861 4703 
Q 3103 4656 3366 4563 
z
" transform="scale(0.015625)"/>
       </defs>
       <use xlink:href="#DejaVuSans-30"/>
       <use xlink:href="#DejaVuSans-2e" x="63.623047"/>
       <use xlink:href="#DejaVuSans-30" x="95.410156"/>
       <use xlink:href="#DejaVuSans-30" x="159.033203"/>
       <use xlink:href="#DejaVuSans-36" x="222.65625"/>
      </g>
     </g>
    </g>
    <g id="text_17">
     <!-- velocity max [m/s] -->
     <g transform="translate(18.612188 193.095) rotate(-90) scale(0.1 -0.1)">
      <defs>
       <path id="DejaVuSans-76" d="M 191 3500 
L 800 3500 
L 1894 563 
L 2988 3500 
L 3597 3500 
L 2284 0 
L 1503 0 
L 191 3500 
z
" transform="scale(0.015625)"/>
       <path id="DejaVuSans-6c" d="M 603 4863 
L 1178 4863 
L 1178 0 
L 603 0 
L 603 4863 
z
" transform="scale(0.015625)"/>
       <path id="DejaVuSans-6f" d="M 1959 3097 
Q 1497 3097 1228 2736 
Q 959 2375 959 1747 
Q 959 1119 1226 758 
Q 1494 397 1959 397 
Q 2419 397 2687 759 
Q 2956 1122 2956 1747 
Q 2956 2369 2687 2733 
Q 2419 3097 1959 3097 
z
M 1959 3584 
Q 2709 3584 3137 3096 
Q 3566 2609 3566 1747 
Q 3566 888 3137 398 
Q 2709 -91 1959 -91 
Q 1206 -91 779 398 
Q 353 888 353 1747 
Q 353 2609 779 3096 
Q 1206 3584 1959 3584 
z
" transform="scale(0.015625)"/>
       <path id="DejaVuSans-63" d="M 3122 3366 
L 3122 2828 
Q 2878 2963 2633 3030 
Q 2388 3097 2138 3097 
Q 1578 3097 1268 2742 
Q 959 2388 959 1747 
Q 959 1106 1268 751 
Q 1578 397 2138 397 
Q 2388 397 2633 464 
Q 2878 531 3122 666 
L 3122 134 
Q 2881 22 2623 -34 
Q 2366 -91 2075 -91 
Q 1284 -91 818 406 
Q 353 903 353 1747 
Q 353 2603 823 3093 
Q 1294 3584 2113 3584 
Q 2378 3584 2631 3529 
Q 2884 3475 3122 3366 
z
" transform="scale(0.015625)"/>
       <path id="DejaVuSans-79" d="M 2059 -325 
Q 1816 -950 1584 -1140 
Q 1353 -1331 966 -1331 
L 506 -1331 
L 506 -850 
L 844 -850 
Q 1081 -850 1212 -737 
Q 1344 -625 1503 -206 
L 1606 56 
L 191 3500 
L 800 3500 
L 1894 763 
L 2988 3500 
L 3597 3500 
L 2059 -325 
z
" transform="scale(0.015625)"/>
       <path id="DejaVuSans-61" d="M 2194 1759 
Q 1497 1759 1228 1600 
Q 959 1441 959 1056 
Q 959 750 1161 570 
Q 1363 391 1709 391 
Q 2188 391 2477 730 
Q 2766 1069 2766 1631 
L 2766 1759 
L 2194 1759 
z
M 3341 1997 
L 3341 0 
L 2766 0 
L 2766 531 
Q 2569 213 2275 61 
Q 1981 -91 1556 -91 
Q 1019 -91 701 211 
Q 384 513 384 1019 
Q 384 1609 779 1909 
Q 1175 2209 1959 2209 
L 2766 2209 
L 2766 2266 
Q 2766 2663 2505 2880 
Q 2244 3097 1772 3097 
Q 1472 3097 1187 3025 
Q 903 2953 641 2809 
L 641 3341 
Q 956 3463 1253 3523 
Q 1550 3584 1831 3584 
Q 2591 3584 2966 3190 
Q 3341 2797 3341 1997 
z
" transform="scale(0.015625)"/>
       <path id="DejaVuSans-78" d="M 3513 3500 
L 2247 1797 
L 3578 0 
L 2900 0 
L 1881 1375 
L 863 0 
L 184 0 
L 1544 1831 
L 300 3500 
L 978 3500 
L 1906 2253 
L 2834 3500 
L 3513 3500 
z
" transform="scale(0.015625)"/>
       <path id="DejaVuSans-2f" d="M 1625 4666 
L 2156 4666 
L 531 -594 
L 0 -594 
L 1625 4666 
z
" transform="scale(0.015625)"/>
      </defs>
      <use xlink:href="#DejaVuSans-76"/>
      <use xlink:href="#DejaVuSans-65" x="59.179688"/>
      <use xlink:href="#DejaVuSans-6c" x="120.703125"/>
      <use xlink:href="#DejaVuSans-6f" x="148.486328"/>
      <use xlink:href="#DejaVuSans-63" x="209.667969"/>
      <use xlink:href="#DejaVuSans-69" x="264.648438"/>
      <use xlink:href="#DejaVuSans-74" x="292.431641"/>
      <use xlink:href="#DejaVuSans-79" x="331.640625"/>
      <use xlink:href="#DejaVuSans-20" x="390.820312"/>
      <use xlink:href="#DejaVuSans-6d" x="422.607422"/>
      <use xlink:href="#DejaVuSans-61" x="520.019531"/>
      <use xlink:href="#DejaVuSans-78" x="581.298828"/>
      <use xlink:href="#DejaVuSans-20" x="640.478516"/>
      <use xlink:href="#DejaVuSans-5b" x="672.265625"/>
      <use xlink:href="#DejaVuSans-6d" x="711.279297"/>
      <use xlink:href="#DejaVuSans-2f" x="808.691406"/>
      <use xlink:href="#DejaVuSans-73" x="842.382812"/>
      <use xlink:href="#DejaVuSans-5d" x="894.482422"/>
     </g>
    </g>
   </g>
   <g id="line2d_31">
    <path d="M 79.996364 269.710909 
L 85.480646 61.331207 
L 90.954026 61.331207 
L 96.438309 61.331207 
L 101.922592 61.331207 
L 107.395971 61.331207 
L 112.880254 53.924304 
L 118.364537 46.137254 
L 123.837916 40.110922 
L 129.322199 35.468425 
L 134.806482 31.952046 
L 140.279862 29.240264 
L 145.764144 27.193773 
L 151.248427 25.678077 
L 156.721807 24.394119 
L 162.20609 23.129091 
L 167.690372 36.327282 
L 173.163752 36.820564 
L 178.648035 37.21818 
L 184.132317 37.375315 
L 189.605697 37.241064 
L 195.08998 36.878067 
L 200.574263 36.738173 
L 206.047642 36.771524 
L 211.531925 36.995139 
L 217.005305 37.298277 
L 222.489587 37.399835 
L 227.97387 37.501791 
L 233.44725 37.584776 
L 238.931533 37.653933 
L 244.415815 37.742564 
L 249.889195 37.859335 
L 255.373478 37.984603 
L 260.857761 38.415358 
L 266.33114 38.839167 
L 271.815423 39.040613 
L 277.299706 39.48331 
" clip-path="url(#p4f80af9312)" style="fill: none; stroke: #1f77b4; stroke-width: 1.5; stroke-linecap: square"/>
    <defs>
     <path id="m86bb077819" d="M 0 3 
C 0.795609 3 1.55874 2.683901 2.12132 2.12132 
C 2.683901 1.55874 3 0.795609 3 0 
C 3 -0.795609 2.683901 -1.55874 2.12132 -2.12132 
C 1.55874 -2.683901 0.795609 -3 0 -3 
C -0.795609 -3 -1.55874 -2.683901 -2.12132 -2.12132 
C -2.683901 -1.55874 -3 -0.795609 -3 0 
C -3 0.795609 -2.683901 1.55874 -2.12132 2.12132 
C -1.55874 2.683901 -0.795609 3 0 3 
z
" style="stroke: #1f77b4"/>
    </defs>
    <g clip-path="url(#p4f80af9312)">
     <use xlink:href="#m86bb077819" x="79.996364" y="269.710909" style="fill: #1f77b4; stroke: #1f77b4"/>
     <use xlink:href="#m86bb077819" x="85.480646" y="61.331207" style="fill: #1f77b4; stroke: #1f77b4"/>
     <use xlink:href="#m86bb077819" x="90.954026" y="61.331207" style="fill: #1f77b4; stroke: #1f77b4"/>
     <use xlink:href="#m86bb077819" x="96.438309" y="61.331207" style="fill: #1f77b4; stroke: #1f77b4"/>
     <use xlink:href="#m86bb077819" x="101.922592" y="61.331207" style="fill: #1f77b4; stroke: #1f77b4"/>
     <use xlink:href="#m86bb077819" x="107.395971" y="61.331207" style="fill: #1f77b4; stroke: #1f77b4"/>
     <use xlink:href="#m86bb077819" x="112.880254" y="53.924304" style="fill: #1f77b4; stroke: #1f77b4"/>
     <use xlink:href="#m86bb077819" x="118.364537" y="46.137254" style="fill: #1f77b4; stroke: #1f77b4"/>
     <use xlink:href="#m86bb077819" x="123.837916" y="40.110922" style="fill: #1f77b4; stroke: #1f77b4"/>
     <use xlink:href="#m86bb077819" x="129.322199" y="35.468425" style="fill: #1f77b4; stroke: #1f77b4"/>
     <use xlink:href="#m86bb077819" x="134.806482" y="31.952046" style="fill: #1f77b4; stroke: #1f77b4"/>
     <use xlink:href="#m86bb077819" x="140.279862" y="29.240264" style="fill: #1f77b4; stroke: #1f77b4"/>
     <use xlink:href="#m86bb077819" x="145.764144" y="27.193773" style="fill: #1f77b4; stroke: #1f77b4"/>
     <use xlink:href="#m86bb077819" x="151.248427" y="25.678077" style="fill: #1f77b4; stroke: #1f77b4"/>
     <use xlink:href="#m86bb077819" x="156.721807" y="24.394119" style="fill: #1f77b4; stroke: #1f77b4"/>
     <use xlink:href="#m86bb077819" x="162.20609" y="23.129091" style="fill: #1f77b4; stroke: #1f77b4"/>
     <use xlink:href="#m86bb077819" x="167.690372" y="36.327282" style="fill: #1f77b4; stroke: #1f77b4"/>
     <use xlink:href="#m86bb077819" x="173.163752" y="36.820564" style="fill: #1f77b4; stroke: #1f77b4"/>
     <use xlink:href="#m86bb077819" x="178.648035" y="37.21818" style="fill: #1f77b4; stroke: #1f77b4"/>
     <use xlink:href="#m86bb077819" x="184.132317" y="37.375315" style="fill: #1f77b4; stroke: #1f77b4"/>
     <use xlink:href="#m86bb077819" x="189.605697" y="37.241064" style="fill: #1f77b4; stroke: #1f77b4"/>
     <use xlink:href="#m86bb077819" x="195.08998" y="36.878067" style="fill: #1f77b4; stroke: #1f77b4"/>
     <use xlink:href="#m86bb077819" x="200.574263" y="36.738173" style="fill: #1f77b4; stroke: #1f77b4"/>
     <use xlink:href="#m86bb077819" x="206.047642" y="36.771524" style="fill: #1f77b4; stroke: #1f77b4"/>
     <use xlink:href="#m86bb077819" x="211.531925" y="36.995139" style="fill: #1f77b4; stroke: #1f77b4"/>
     <use xlink:href="#m86bb077819" x="217.005305" y="37.298277" style="fill: #1f77b4; stroke: #1f77b4"/>
     <use xlink:href="#m86bb077819" x="222.489587" y="37.399835" style="fill: #1f77b4; stroke: #1f77b4"/>
     <use xlink:href="#m86bb077819" x="227.97387" y="37.501791" style="fill: #1f77b4; stroke: #1f77b4"/>
     <use xlink:href="#m86bb077819" x="233.44725" y="37.584776" style="fill: #1f77b4; stroke: #1f77b4"/>
     <use xlink:href="#m86bb077819" x="238.931533" y="37.653933" style="fill: #1f77b4; stroke: #1f77b4"/>
     <use xlink:href="#m86bb077819" x="244.415815" y="37.742564" style="fill: #1f77b4; stroke: #1f77b4"/>
     <use xlink:href="#m86bb077819" x="249.889195" y="37.859335" style="fill: #1f77b4; stroke: #1f77b4"/>
     <use xlink:href="#m86bb077819" x="255.373478" y="37.984603" style="fill: #1f77b4; stroke: #1f77b4"/>
     <use xlink:href="#m86bb077819" x="260.857761" y="38.415358" style="fill: #1f77b4; stroke: #1f77b4"/>
     <use xlink:href="#m86bb077819" x="266.33114" y="38.839167" style="fill: #1f77b4; stroke: #1f77b4"/>
     <use xlink:href="#m86bb077819" x="271.815423" y="39.040613" style="fill: #1f77b4; stroke: #1f77b4"/>
     <use xlink:href="#m86bb077819" x="277.299706" y="39.48331" style="fill: #1f77b4; stroke: #1f77b4"/>
    </g>
   </g>
   <g id="line2d_32">
    <path d="M 79.996364 269.710909 
L 90.954026 165.52106 
L 101.922592 158.172335 
L 112.880254 148.341758 
L 123.84882 144.634076 
L 134.806482 142.678459 
L 145.764144 143.66568 
L 156.73271 144.970813 
L 167.690372 144.764196 
L 178.648035 144.008955 
L 189.6166 143.6565 
L 200.574263 143.190808 
L 211.531925 143.122004 
L 222.500491 143.521101 
L 233.458153 144.161652 
L 244.426719 144.708508 
L 255.384381 145.219191 
L 266.342043 145.798733 
L 277.310609 146.38393 
L 287.177957 146.877898 
L 298.135619 147.416653 
L 309.093281 147.947018 
L 320.061847 148.444644 
L 331.019509 148.914789 
L 341.977172 149.375755 
L 352.945737 149.823415 
L 363.9034 150.24486 
L 374.871965 150.640751 
L 385.829628 151.013736 
L 396.78729 151.360952 
L 407.755856 151.684969 
L 418.713518 151.992464 
L 429.67118 152.283481 
L 440.639746 152.55452 
L 451.597408 152.806245 
L 462.565974 153.041834 
L 473.523636 153.261931 
" clip-path="url(#p4f80af9312)" style="fill: none; stroke: #ff7f0e; stroke-width: 1.5; stroke-linecap: square"/>
    <defs>
     <path id="m1e3f1abed3" d="M 0 3 
C 0.795609 3 1.55874 2.683901 2.12132 2.12132 
C 2.683901 1.55874 3 0.795609 3 0 
C 3 -0.795609 2.683901 -1.55874 2.12132 -2.12132 
C 1.55874 -2.683901 0.795609 -3 0 -3 
C -0.795609 -3 -1.55874 -2.683901 -2.12132 -2.12132 
C -2.683901 -1.55874 -3 -0.795609 -3 0 
C -3 0.795609 -2.683901 1.55874 -2.12132 2.12132 
C -1.55874 2.683901 -0.795609 3 0 3 
z
" style="stroke: #ff7f0e"/>
    </defs>
    <g clip-path="url(#p4f80af9312)">
     <use xlink:href="#m1e3f1abed3" x="79.996364" y="269.710909" style="fill: #ff7f0e; stroke: #ff7f0e"/>
     <use xlink:href="#m1e3f1abed3" x="90.954026" y="165.52106" style="fill: #ff7f0e; stroke: #ff7f0e"/>
     <use xlink:href="#m1e3f1abed3" x="101.922592" y="158.172335" style="fill: #ff7f0e; stroke: #ff7f0e"/>
     <use xlink:href="#m1e3f1abed3" x="112.880254" y="148.341758" style="fill: #ff7f0e; stroke: #ff7f0e"/>
     <use xlink:href="#m1e3f1abed3" x="123.84882" y="144.634076" style="fill: #ff7f0e; stroke: #ff7f0e"/>
     <use xlink:href="#m1e3f1abed3" x="134.806482" y="142.678459" style="fill: #ff7f0e; stroke: #ff7f0e"/>
     <use xlink:href="#m1e3f1abed3" x="145.764144" y="143.66568" style="fill: #ff7f0e; stroke: #ff7f0e"/>
     <use xlink:href="#m1e3f1abed3" x="156.73271" y="144.970813" style="fill: #ff7f0e; stroke: #ff7f0e"/>
     <use xlink:href="#m1e3f1abed3" x="167.690372" y="144.764196" style="fill: #ff7f0e; stroke: #ff7f0e"/>
     <use xlink:href="#m1e3f1abed3" x="178.648035" y="144.008955" style="fill: #ff7f0e; stroke: #ff7f0e"/>
     <use xlink:href="#m1e3f1abed3" x="189.6166" y="143.6565" style="fill: #ff7f0e; stroke: #ff7f0e"/>
     <use xlink:href="#m1e3f1abed3" x="200.574263" y="143.190808" style="fill: #ff7f0e; stroke: #ff7f0e"/>
     <use xlink:href="#m1e3f1abed3" x="211.531925" y="143.122004" style="fill: #ff7f0e; stroke: #ff7f0e"/>
     <use xlink:href="#m1e3f1abed3" x="222.500491" y="143.521101" style="fill: #ff7f0e; stroke: #ff7f0e"/>
     <use xlink:href="#m1e3f1abed3" x="233.458153" y="144.161652" style="fill: #ff7f0e; stroke: #ff7f0e"/>
     <use xlink:href="#m1e3f1abed3" x="244.426719" y="144.708508" style="fill: #ff7f0e; stroke: #ff7f0e"/>
     <use xlink:href="#m1e3f1abed3" x="255.384381" y="145.219191" style="fill: #ff7f0e; stroke: #ff7f0e"/>
     <use xlink:href="#m1e3f1abed3" x="266.342043" y="145.798733" style="fill: #ff7f0e; stroke: #ff7f0e"/>
     <use xlink:href="#m1e3f1abed3" x="277.310609" y="146.38393" style="fill: #ff7f0e; stroke: #ff7f0e"/>
     <use xlink:href="#m1e3f1abed3" x="287.177957" y="146.877898" style="fill: #ff7f0e; stroke: #ff7f0e"/>
     <use xlink:href="#m1e3f1abed3" x="298.135619" y="147.416653" style="fill: #ff7f0e; stroke: #ff7f0e"/>
     <use xlink:href="#m1e3f1abed3" x="309.093281" y="147.947018" style="fill: #ff7f0e; stroke: #ff7f0e"/>
     <use xlink:href="#m1e3f1abed3" x="320.061847" y="148.444644" style="fill: #ff7f0e; stroke: #ff7f0e"/>
     <use xlink:href="#m1e3f1abed3" x="331.019509" y="148.914789" style="fill: #ff7f0e; stroke: #ff7f0e"/>
     <use xlink:href="#m1e3f1abed3" x="341.977172" y="149.375755" style="fill: #ff7f0e; stroke: #ff7f0e"/>
     <use xlink:href="#m1e3f1abed3" x="352.945737" y="149.823415" style="fill: #ff7f0e; stroke: #ff7f0e"/>
     <use xlink:href="#m1e3f1abed3" x="363.9034" y="150.24486" style="fill: #ff7f0e; stroke: #ff7f0e"/>
     <use xlink:href="#m1e3f1abed3" x="374.871965" y="150.640751" style="fill: #ff7f0e; stroke: #ff7f0e"/>
     <use xlink:href="#m1e3f1abed3" x="385.829628" y="151.013736" style="fill: #ff7f0e; stroke: #ff7f0e"/>
     <use xlink:href="#m1e3f1abed3" x="396.78729" y="151.360952" style="fill: #ff7f0e; stroke: #ff7f0e"/>
     <use xlink:href="#m1e3f1abed3" x="407.755856" y="151.684969" style="fill: #ff7f0e; stroke: #ff7f0e"/>
     <use xlink:href="#m1e3f1abed3" x="418.713518" y="151.992464" style="fill: #ff7f0e; stroke: #ff7f0e"/>
     <use xlink:href="#m1e3f1abed3" x="429.67118" y="152.283481" style="fill: #ff7f0e; stroke: #ff7f0e"/>
     <use xlink:href="#m1e3f1abed3" x="440.639746" y="152.55452" style="fill: #ff7f0e; stroke: #ff7f0e"/>
     <use xlink:href="#m1e3f1abed3" x="451.597408" y="152.806245" style="fill: #ff7f0e; stroke: #ff7f0e"/>
     <use xlink:href="#m1e3f1abed3" x="462.565974" y="153.041834" style="fill: #ff7f0e; stroke: #ff7f0e"/>
     <use xlink:href="#m1e3f1abed3" x="473.523636" y="153.261931" style="fill: #ff7f0e; stroke: #ff7f0e"/>
    </g>
   </g>
   <g id="line2d_33">
    <path d="M 79.996364 269.710909 
L 85.480646 61.331207 
L 90.954026 61.331207 
L 96.438309 61.331207 
L 101.922592 61.331207 
L 107.395971 61.331207 
L 112.880254 53.924304 
L 118.364537 46.137254 
L 123.837916 40.110922 
L 129.322199 35.468425 
L 134.806482 31.952046 
L 140.279862 29.240264 
L 145.764144 27.193773 
" clip-path="url(#p4f80af9312)" style="fill: none; stroke: #2ca02c; stroke-width: 1.5; stroke-linecap: square"/>
    <defs>
     <path id="mad0e503326" d="M 0 3 
C 0.795609 3 1.55874 2.683901 2.12132 2.12132 
C 2.683901 1.55874 3 0.795609 3 0 
C 3 -0.795609 2.683901 -1.55874 2.12132 -2.12132 
C 1.55874 -2.683901 0.795609 -3 0 -3 
C -0.795609 -3 -1.55874 -2.683901 -2.12132 -2.12132 
C -2.683901 -1.55874 -3 -0.795609 -3 0 
C -3 0.795609 -2.683901 1.55874 -2.12132 2.12132 
C -1.55874 2.683901 -0.795609 3 0 3 
z
" style="stroke: #2ca02c"/>
    </defs>
    <g clip-path="url(#p4f80af9312)">
     <use xlink:href="#mad0e503326" x="79.996364" y="269.710909" style="fill: #2ca02c; stroke: #2ca02c"/>
     <use xlink:href="#mad0e503326" x="85.480646" y="61.331207" style="fill: #2ca02c; stroke: #2ca02c"/>
     <use xlink:href="#mad0e503326" x="90.954026" y="61.331207" style="fill: #2ca02c; stroke: #2ca02c"/>
     <use xlink:href="#mad0e503326" x="96.438309" y="61.331207" style="fill: #2ca02c; stroke: #2ca02c"/>
     <use xlink:href="#mad0e503326" x="101.922592" y="61.331207" style="fill: #2ca02c; stroke: #2ca02c"/>
     <use xlink:href="#mad0e503326" x="107.395971" y="61.331207" style="fill: #2ca02c; stroke: #2ca02c"/>
     <use xlink:href="#mad0e503326" x="112.880254" y="53.924304" style="fill: #2ca02c; stroke: #2ca02c"/>
     <use xlink:href="#mad0e503326" x="118.364537" y="46.137254" style="fill: #2ca02c; stroke: #2ca02c"/>
     <use xlink:href="#mad0e503326" x="123.837916" y="40.110922" style="fill: #2ca02c; stroke: #2ca02c"/>
     <use xlink:href="#mad0e503326" x="129.322199" y="35.468425" style="fill: #2ca02c; stroke: #2ca02c"/>
     <use xlink:href="#mad0e503326" x="134.806482" y="31.952046" style="fill: #2ca02c; stroke: #2ca02c"/>
     <use xlink:href="#mad0e503326" x="140.279862" y="29.240264" style="fill: #2ca02c; stroke: #2ca02c"/>
     <use xlink:href="#mad0e503326" x="145.764144" y="27.193773" style="fill: #2ca02c; stroke: #2ca02c"/>
    </g>
   </g>
   <g id="line2d_34">
    <path d="M 79.996364 269.710909 
L 85.480646 61.331207 
L 90.954026 61.331207 
L 96.438309 61.331207 
L 101.922592 61.331207 
L 107.395971 61.331207 
L 112.880254 53.924304 
L 118.364537 46.137254 
L 123.837916 40.110922 
L 129.322199 35.468425 
L 134.806482 31.952046 
L 140.279862 29.240264 
L 145.764144 27.193773 
L 151.248427 25.678077 
L 156.721807 24.394119 
L 162.20609 23.129091 
L 167.690372 36.327303 
L 173.163752 36.820604 
L 178.648035 37.218244 
L 184.132317 37.375348 
L 189.605697 37.241073 
L 195.08998 36.878019 
L 200.574263 36.738109 
L 206.047642 36.771458 
L 211.531925 36.995062 
L 217.005305 37.298192 
L 222.489587 37.399742 
L 227.97387 37.501683 
L 233.44725 37.584667 
L 238.931533 37.653811 
L 244.415815 37.742439 
L 249.889195 37.859205 
L 255.373478 37.984465 
L 260.857761 38.415231 
L 266.33114 38.839032 
L 271.815423 39.040485 
L 277.299706 39.483175 
" clip-path="url(#p4f80af9312)" style="fill: none; stroke: #d62728; stroke-width: 1.5; stroke-linecap: square"/>
    <defs>
     <path id="m344d87b788" d="M 0 3 
C 0.795609 3 1.55874 2.683901 2.12132 2.12132 
C 2.683901 1.55874 3 0.795609 3 0 
C 3 -0.795609 2.683901 -1.55874 2.12132 -2.12132 
C 1.55874 -2.683901 0.795609 -3 0 -3 
C -0.795609 -3 -1.55874 -2.683901 -2.12132 -2.12132 
C -2.683901 -1.55874 -3 -0.795609 -3 0 
C -3 0.795609 -2.683901 1.55874 -2.12132 2.12132 
C -1.55874 2.683901 -0.795609 3 0 3 
z
" style="stroke: #d62728"/>
    </defs>
    <g clip-path="url(#p4f80af9312)">
     <use xlink:href="#m344d87b788" x="79.996364" y="269.710909" style="fill: #d62728; stroke: #d62728"/>
     <use xlink:href="#m344d87b788" x="85.480646" y="61.331207" style="fill: #d62728; stroke: #d62728"/>
     <use xlink:href="#m344d87b788" x="90.954026" y="61.331207" style="fill: #d62728; stroke: #d62728"/>
     <use xlink:href="#m344d87b788" x="96.438309" y="61.331207" style="fill: #d62728; stroke: #d62728"/>
     <use xlink:href="#m344d87b788" x="101.922592" y="61.331207" style="fill: #d62728; stroke: #d62728"/>
     <use xlink:href="#m344d87b788" x="107.395971" y="61.331207" style="fill: #d62728; stroke: #d62728"/>
     <use xlink:href="#m344d87b788" x="112.880254" y="53.924304" style="fill: #d62728; stroke: #d62728"/>
     <use xlink:href="#m344d87b788" x="118.364537" y="46.137254" style="fill: #d62728; stroke: #d62728"/>
     <use xlink:href="#m344d87b788" x="123.837916" y="40.110922" style="fill: #d62728; stroke: #d62728"/>
     <use xlink:href="#m344d87b788" x="129.322199" y="35.468425" style="fill: #d62728; stroke: #d62728"/>
     <use xlink:href="#m344d87b788" x="134.806482" y="31.952046" style="fill: #d62728; stroke: #d62728"/>
     <use xlink:href="#m344d87b788" x="140.279862" y="29.240264" style="fill: #d62728; stroke: #d62728"/>
     <use xlink:href="#m344d87b788" x="145.764144" y="27.193773" style="fill: #d62728; stroke: #d62728"/>
     <use xlink:href="#m344d87b788" x="151.248427" y="25.678077" style="fill: #d62728; stroke: #d62728"/>
     <use xlink:href="#m344d87b788" x="156.721807" y="24.394119" style="fill: #d62728; stroke: #d62728"/>
     <use xlink:href="#m344d87b788" x="162.20609" y="23.129091" style="fill: #d62728; stroke: #d62728"/>
     <use xlink:href="#m344d87b788" x="167.690372" y="36.327303" style="fill: #d62728; stroke: #d62728"/>
     <use xlink:href="#m344d87b788" x="173.163752" y="36.820604" style="fill: #d62728; stroke: #d62728"/>
     <use xlink:href="#m344d87b788" x="178.648035" y="37.218244" style="fill: #d62728; stroke: #d62728"/>
     <use xlink:href="#m344d87b788" x="184.132317" y="37.375348" style="fill: #d62728; stroke: #d62728"/>
     <use xlink:href="#m344d87b788" x="189.605697" y="37.241073" style="fill: #d62728; stroke: #d62728"/>
     <use xlink:href="#m344d87b788" x="195.08998" y="36.878019" style="fill: #d62728; stroke: #d62728"/>
     <use xlink:href="#m344d87b788" x="200.574263" y="36.738109" style="fill: #d62728; stroke: #d62728"/>
     <use xlink:href="#m344d87b788" x="206.047642" y="36.771458" style="fill: #d62728; stroke: #d62728"/>
     <use xlink:href="#m344d87b788" x="211.531925" y="36.995062" style="fill: #d62728; stroke: #d62728"/>
     <use xlink:href="#m344d87b788" x="217.005305" y="37.298192" style="fill: #d62728; stroke: #d62728"/>
     <use xlink:href="#m344d87b788" x="222.489587" y="37.399742" style="fill: #d62728; stroke: #d62728"/>
     <use xlink:href="#m344d87b788" x="227.97387" y="37.501683" style="fill: #d62728; stroke: #d62728"/>
     <use xlink:href="#m344d87b788" x="233.44725" y="37.584667" style="fill: #d62728; stroke: #d62728"/>
     <use xlink:href="#m344d87b788" x="238.931533" y="37.653811" style="fill: #d62728; stroke: #d62728"/>
     <use xlink:href="#m344d87b788" x="244.415815" y="37.742439" style="fill: #d62728; stroke: #d62728"/>
     <use xlink:href="#m344d87b788" x="249.889195" y="37.859205" style="fill: #d62728; stroke: #d62728"/>
     <use xlink:href="#m344d87b788" x="255.373478" y="37.984465" style="fill: #d62728; stroke: #d62728"/>
     <use xlink:href="#m344d87b788" x="260.857761" y="38.415231" style="fill: #d62728; stroke: #d62728"/>
     <use xlink:href="#m344d87b788" x="266.33114" y="38.839032" style="fill: #d62728; stroke: #d62728"/>
     <use xlink:href="#m344d87b788" x="271.815423" y="39.040485" style="fill: #d62728; stroke: #d62728"/>
     <use xlink:href="#m344d87b788" x="277.299706" y="39.483175" style="fill: #d62728; stroke: #d62728"/>
    </g>
   </g>
   <g id="patch_3">
    <path d="M 60.32 282.04 
L 60.32 10.8 
" style="fill: none; stroke: #000000; stroke-width: 0.8; stroke-linejoin: miter; stroke-linecap: square"/>
   </g>
   <g id="patch_4">
    <path d="M 493.2 282.04 
L 493.2 10.8 
" style="fill: none; stroke: #000000; stroke-width: 0.8; stroke-linejoin: miter; stroke-linecap: square"/>
   </g>
   <g id="patch_5">
    <path d="M 60.32 282.04 
L 493.2 282.04 
" style="fill: none; stroke: #000000; stroke-width: 0.8; stroke-linejoin: miter; stroke-linecap: square"/>
   </g>
   <g id="patch_6">
    <path d="M 60.32 10.8 
L 493.2 10.8 
" style="fill: none; stroke: #000000; stroke-width: 0.8; stroke-linejoin: miter; stroke-linecap: square"/>
   </g>
   <g id="legend_1">
    <g id="patch_7">
     <path d="M 381.6825 64.8375 
L 487.6 64.8375 
Q 489.2 64.8375 489.2 63.2375 
L 489.2 16.4 
Q 489.2 14.8 487.6 14.8 
L 381.6825 14.8 
Q 380.0825 14.8 380.0825 16.4 
L 380.0825 63.2375 
Q 380.0825 64.8375 381.6825 64.8375 
z
" style="fill: #ffffff; opacity: 0.8; stroke: #cccccc; stroke-linejoin: miter"/>
    </g>
    <g id="line2d_35">
     <path d="M 383.2825 21.27875 
L 391.2825 21.27875 
L 399.2825 21.27875 
" style="fill: none; stroke: #1f77b4; stroke-width: 1.5; stroke-linecap: square"/>
     <g>
      <use xlink:href="#m86bb077819" x="391.2825" y="21.27875" style="fill: #1f77b4; stroke: #1f77b4"/>
     </g>
    </g>
    <g id="text_18">
     <!-- baseline -->
     <g transform="translate(405.6825 24.07875) scale(0.08 -0.08)">
      <defs>
       <path id="DejaVuSans-62" d="M 3116 1747 
Q 3116 2381 2855 2742 
Q 2594 3103 2138 3103 
Q 1681 3103 1420 2742 
Q 1159 2381 1159 1747 
Q 1159 1113 1420 752 
Q 1681 391 2138 391 
Q 2594 391 2855 752 
Q 3116 1113 3116 1747 
z
M 1159 2969 
Q 1341 3281 1617 3432 
Q 1894 3584 2278 3584 
Q 2916 3584 3314 3078 
Q 3713 2572 3713 1747 
Q 3713 922 3314 415 
Q 2916 -91 2278 -91 
Q 1894 -91 1617 61 
Q 1341 213 1159 525 
L 1159 0 
L 581 0 
L 581 4863 
L 1159 4863 
L 1159 2969 
z
" transform="scale(0.015625)"/>
       <path id="DejaVuSans-6e" d="M 3513 2113 
L 3513 0 
L 2938 0 
L 2938 2094 
Q 2938 2591 2744 2837 
Q 2550 3084 2163 3084 
Q 1697 3084 1428 2787 
Q 1159 2491 1159 1978 
L 1159 0 
L 581 0 
L 581 3500 
L 1159 3500 
L 1159 2956 
Q 1366 3272 1645 3428 
Q 1925 3584 2291 3584 
Q 2894 3584 3203 3211 
Q 3513 2838 3513 2113 
z
" transform="scale(0.015625)"/>
      </defs>
      <use xlink:href="#DejaVuSans-62"/>
      <use xlink:href="#DejaVuSans-61" x="63.476562"/>
      <use xlink:href="#DejaVuSans-73" x="124.755859"/>
      <use xlink:href="#DejaVuSans-65" x="176.855469"/>
      <use xlink:href="#DejaVuSans-6c" x="238.378906"/>
      <use xlink:href="#DejaVuSans-69" x="266.162109"/>
      <use xlink:href="#DejaVuSans-6e" x="293.945312"/>
      <use xlink:href="#DejaVuSans-65" x="357.324219"/>
     </g>
    </g>
    <g id="line2d_36">
     <path d="M 383.2825 33.02125 
L 391.2825 33.02125 
L 399.2825 33.02125 
" style="fill: none; stroke: #ff7f0e; stroke-width: 1.5; stroke-linecap: square"/>
     <g>
      <use xlink:href="#m1e3f1abed3" x="391.2825" y="33.02125" style="fill: #ff7f0e; stroke: #ff7f0e"/>
     </g>
    </g>
    <g id="text_19">
     <!-- slower_half_velocity -->
     <g transform="translate(405.6825 35.82125) scale(0.08 -0.08)">
      <defs>
       <path id="DejaVuSans-77" d="M 269 3500 
L 844 3500 
L 1563 769 
L 2278 3500 
L 2956 3500 
L 3675 769 
L 4391 3500 
L 4966 3500 
L 4050 0 
L 3372 0 
L 2619 2869 
L 1863 0 
L 1184 0 
L 269 3500 
z
" transform="scale(0.015625)"/>
       <path id="DejaVuSans-72" d="M 2631 2963 
Q 2534 3019 2420 3045 
Q 2306 3072 2169 3072 
Q 1681 3072 1420 2755 
Q 1159 2438 1159 1844 
L 1159 0 
L 581 0 
L 581 3500 
L 1159 3500 
L 1159 2956 
Q 1341 3275 1631 3429 
Q 1922 3584 2338 3584 
Q 2397 3584 2469 3576 
Q 2541 3569 2628 3553 
L 2631 2963 
z
" transform="scale(0.015625)"/>
       <path id="DejaVuSans-5f" d="M 3263 -1063 
L 3263 -1509 
L -63 -1509 
L -63 -1063 
L 3263 -1063 
z
" transform="scale(0.015625)"/>
       <path id="DejaVuSans-68" d="M 3513 2113 
L 3513 0 
L 2938 0 
L 2938 2094 
Q 2938 2591 2744 2837 
Q 2550 3084 2163 3084 
Q 1697 3084 1428 2787 
Q 1159 2491 1159 1978 
L 1159 0 
L 581 0 
L 581 4863 
L 1159 4863 
L 1159 2956 
Q 1366 3272 1645 3428 
Q 1925 3584 2291 3584 
Q 2894 3584 3203 3211 
Q 3513 2838 3513 2113 
z
" transform="scale(0.015625)"/>
       <path id="DejaVuSans-66" d="M 2375 4863 
L 2375 4384 
L 1825 4384 
Q 1516 4384 1395 4259 
Q 1275 4134 1275 3809 
L 1275 3500 
L 2222 3500 
L 2222 3053 
L 1275 3053 
L 1275 0 
L 697 0 
L 697 3053 
L 147 3053 
L 147 3500 
L 697 3500 
L 697 3744 
Q 697 4328 969 4595 
Q 1241 4863 1831 4863 
L 2375 4863 
z
" transform="scale(0.015625)"/>
      </defs>
      <use xlink:href="#DejaVuSans-73"/>
      <use xlink:href="#DejaVuSans-6c" x="52.099609"/>
      <use xlink:href="#DejaVuSans-6f" x="79.882812"/>
      <use xlink:href="#DejaVuSans-77" x="141.064453"/>
      <use xlink:href="#DejaVuSans-65" x="222.851562"/>
      <use xlink:href="#DejaVuSans-72" x="284.375"/>
      <use xlink:href="#DejaVuSans-5f" x="325.488281"/>
      <use xlink:href="#DejaVuSans-68" x="375.488281"/>
      <use xlink:href="#DejaVuSans-61" x="438.867188"/>
      <use xlink:href="#DejaVuSans-6c" x="500.146484"/>
      <use xlink:href="#DejaVuSans-66" x="527.929688"/>
      <use xlink:href="#DejaVuSans-5f" x="563.134766"/>
      <use xlink:href="#DejaVuSans-76" x="613.134766"/>
      <use xlink:href="#DejaVuSans-65" x="672.314453"/>
      <use xlink:href="#DejaVuSans-6c" x="733.837891"/>
      <use xlink:href="#DejaVuSans-6f" x="761.621094"/>
      <use xlink:href="#DejaVuSans-63" x="822.802734"/>
      <use xlink:href="#DejaVuSans-69" x="877.783203"/>
      <use xlink:href="#DejaVuSans-74" x="905.566406"/>
      <use xlink:href="#DejaVuSans-79" x="944.775391"/>
     </g>
    </g>
    <g id="line2d_37">
     <path d="M 383.2825 44.98625 
L 391.2825 44.98625 
L 399.2825 44.98625 
" style="fill: none; stroke: #2ca02c; stroke-width: 1.5; stroke-linecap: square"/>
     <g>
      <use xlink:href="#mad0e503326" x="391.2825" y="44.98625" style="fill: #2ca02c; stroke: #2ca02c"/>
     </g>
    </g>
    <g id="text_20">
     <!-- early_stop -->
     <g transform="translate(405.6825 47.78625) scale(0.08 -0.08)">
      <defs>
       <path id="DejaVuSans-70" d="M 1159 525 
L 1159 -1331 
L 581 -1331 
L 581 3500 
L 1159 3500 
L 1159 2969 
Q 1341 3281 1617 3432 
Q 1894 3584 2278 3584 
Q 2916 3584 3314 3078 
Q 3713 2572 3713 1747 
Q 3713 922 3314 415 
Q 2916 -91 2278 -91 
Q 1894 -91 1617 61 
Q 1341 213 1159 525 
z
M 3116 1747 
Q 3116 2381 2855 2742 
Q 2594 3103 2138 3103 
Q 1681 3103 1420 2742 
Q 1159 2381 1159 1747 
Q 1159 1113 1420 752 
Q 1681 391 2138 391 
Q 2594 391 2855 752 
Q 3116 1113 3116 1747 
z
" transform="scale(0.015625)"/>
      </defs>
      <use xlink:href="#DejaVuSans-65"/>
      <use xlink:href="#DejaVuSans-61" x="61.523438"/>
      <use xlink:href="#DejaVuSans-72" x="122.802734"/>
      <use xlink:href="#DejaVuSans-6c" x="163.916016"/>
      <use xlink:href="#DejaVuSans-79" x="191.699219"/>
      <use xlink:href="#DejaVuSans-5f" x="250.878906"/>
      <use xlink:href="#DejaVuSans-73" x="300.878906"/>
      <use xlink:href="#DejaVuSans-74" x="352.978516"/>
      <use xlink:href="#DejaVuSans-6f" x="392.1875"/>
      <use xlink:href="#DejaVuSans-70" x="453.369141"/>
     </g>
    </g>
    <g id="line2d_38">
     <path d="M 383.2825 56.95125 
L 391.2825 56.95125 
L 399.2825 56.95125 
" style="fill: none; stroke: #d62728; stroke-width: 1.5; stroke-linecap: square"/>
     <g>
      <use xlink:href="#m344d87b788" x="391.2825" y="56.95125" style="fill: #d62728; stroke: #d62728"/>
     </g>
    </g>
    <g id="text_21">
     <!-- tight_return -->
     <g transform="translate(405.6825 59.75125) scale(0.08 -0.08)">
      <defs>
       <path id="DejaVuSans-67" d="M 2906 1791 
Q 2906 2416 2648 2759 
Q 2391 3103 1925 3103 
Q 1463 3103 1205 2759 
Q 947 2416 947 1791 
Q 947 1169 1205 825 
Q 1463 481 1925 481 
Q 2391 481 2648 825 
Q 2906 1169 2906 1791 
z
M 3481 434 
Q 3481 -459 3084 -895 
Q 2688 -1331 1869 -1331 
Q 1566 -1331 1297 -1286 
Q 1028 -1241 775 -1147 
L 775 -588 
Q 1028 -725 1275 -790 
Q 1522 -856 1778 -856 
Q 2344 -856 2625 -561 
Q 2906 -266 2906 331 
L 2906 616 
Q 2728 306 2450 153 
Q 2172 0 1784 0 
Q 1141 0 747 490 
Q 353 981 353 1791 
Q 353 2603 747 3093 
Q 1141 3584 1784 3584 
Q 2172 3584 2450 3431 
Q 2728 3278 2906 2969 
L 2906 3500 
L 3481 3500 
L 3481 434 
z
" transform="scale(0.015625)"/>
       <path id="DejaVuSans-75" d="M 544 1381 
L 544 3500 
L 1119 3500 
L 1119 1403 
Q 1119 906 1312 657 
Q 1506 409 1894 409 
Q 2359 409 2629 706 
Q 2900 1003 2900 1516 
L 2900 3500 
L 3475 3500 
L 3475 0 
L 2900 0 
L 2900 538 
Q 2691 219 2414 64 
Q 2138 -91 1772 -91 
Q 1169 -91 856 284 
Q 544 659 544 1381 
z
M 1991 3584 
L 1991 3584 
z
" transform="scale(0.015625)"/>
      </defs>
      <use xlink:href="#DejaVuSans-74"/>
      <use xlink:href="#DejaVuSans-69" x="39.208984"/>
      <use xlink:href="#DejaVuSans-67" x="66.992188"/>
      <use xlink:href="#DejaVuSans-68" x="130.46875"/>
      <use xlink:href="#DejaVuSans-74" x="193.847656"/>
      <use xlink:href="#DejaVuSans-5f" x="233.056641"/>
      <use xlink:href="#DejaVuSans-72" x="283.056641"/>
      <use xlink:href="#DejaVuSans-65" x="321.919922"/>
      <use xlink:href="#DejaVuSans-74" x="383.443359"/>
      <use xlink:href="#DejaVuSans-75" x="422.652344"/>
      <use xlink:href="#DejaVuSans-72" x="486.03125"/>
      <use xlink:href="#DejaVuSans-6e" x="525.394531"/>
     </g>
    </g>
   </g>
  </g>
 </g>
 <defs>
  <clipPath id="p4f80af9312">
   <rect x="60.32" y="10.8" width="432.88" height="271.24"/>
  </clipPath>
 </defs>
</svg>
